STARTFONT 2.1
COMMENT
COMMENT Converted from OpenType font "l_10646.ttf" by "otf2bdf 3.0".
COMMENT
FONT -FreeType-Lucida Sans Unicode-Medium-R-Normal--7-50-100-100-P-40-ISO10646-1
SIZE 5 100 100
FONTBOUNDINGBOX 14 15 -4 -5
STARTPROPERTIES 19
FOUNDRY "FreeType"
FAMILY_NAME "Lucida Sans Unicode"
WEIGHT_NAME "Medium"
SLANT "R"
SETWIDTH_NAME "Normal"
ADD_STYLE_NAME ""
PIXEL_SIZE 7
POINT_SIZE 50
RESOLUTION_X 100
RESOLUTION_Y 100
SPACING "P"
AVERAGE_WIDTH 40
CHARSET_REGISTRY "ISO10646"
CHARSET_ENCODING "1"
FONT_ASCENT 7
FONT_DESCENT 3
COPYRIGHT "Copyright © 1993 Bigelow & Holmes Inc. All rights reserved. Pat. Des. 289,420. Pats. Pend."
_OTF_FONTFILE "l_10646.ttf"
_OTF_PSNAME "LucidaSansUnicode"
ENDPROPERTIES
CHARS 1753
STARTCHAR 0020
ENCODING 32
SWIDTH 288 0
DWIDTH 2 0
BBX 0 0 0 0
BITMAP
ENDCHAR
STARTCHAR 0021
ENCODING 33
SWIDTH 288 0
DWIDTH 2 0
BBX 1 5 1 0
BITMAP
80
80
80
00
80
ENDCHAR
STARTCHAR 0022
ENCODING 34
SWIDTH 432 0
DWIDTH 3 0
BBX 2 1 0 4
BITMAP
C0
ENDCHAR
STARTCHAR 0023
ENCODING 35
SWIDTH 576 0
DWIDTH 4 0
BBX 4 5 0 0
BITMAP
10
F0
F0
A0
20
ENDCHAR
STARTCHAR 0024
ENCODING 36
SWIDTH 576 0
DWIDTH 4 0
BBX 3 5 1 0
BITMAP
E0
80
40
A0
C0
ENDCHAR
STARTCHAR 0025
ENCODING 37
SWIDTH 720 0
DWIDTH 5 0
BBX 5 5 0 0
BITMAP
D0
E0
F0
68
90
ENDCHAR
STARTCHAR 0026
ENCODING 38
SWIDTH 720 0
DWIDTH 5 0
BBX 5 5 0 0
BITMAP
60
60
A8
B0
70
ENDCHAR
STARTCHAR 0027
ENCODING 39
SWIDTH 288 0
DWIDTH 2 0
BBX 1 2 0 3
BITMAP
80
80
ENDCHAR
STARTCHAR 0028
ENCODING 40
SWIDTH 288 0
DWIDTH 2 0
BBX 2 6 0 -1
BITMAP
40
40
80
80
40
40
ENDCHAR
STARTCHAR 0029
ENCODING 41
SWIDTH 288 0
DWIDTH 2 0
BBX 2 6 0 -1
BITMAP
80
40
40
40
40
80
ENDCHAR
STARTCHAR 002A
ENCODING 42
SWIDTH 432 0
DWIDTH 3 0
BBX 3 3 0 2
BITMAP
40
00
A0
ENDCHAR
STARTCHAR 002B
ENCODING 43
SWIDTH 864 0
DWIDTH 6 0
BBX 4 3 1 1
BITMAP
40
F0
40
ENDCHAR
STARTCHAR 002C
ENCODING 44
SWIDTH 288 0
DWIDTH 2 0
BBX 1 2 1 -1
BITMAP
80
80
ENDCHAR
STARTCHAR 002D
ENCODING 45
SWIDTH 576 0
DWIDTH 4 0
BBX 4 1 0 2
BITMAP
F0
ENDCHAR
STARTCHAR 002E
ENCODING 46
SWIDTH 288 0
DWIDTH 2 0
BBX 1 1 1 0
BITMAP
80
ENDCHAR
STARTCHAR 002F
ENCODING 47
SWIDTH 576 0
DWIDTH 4 0
BBX 2 5 1 -1
BITMAP
40
80
80
80
80
ENDCHAR
STARTCHAR 0030
ENCODING 48
SWIDTH 576 0
DWIDTH 4 0
BBX 4 5 0 0
BITMAP
60
90
90
90
60
ENDCHAR
STARTCHAR 0031
ENCODING 49
SWIDTH 576 0
DWIDTH 4 0
BBX 2 5 1 0
BITMAP
C0
40
40
40
40
ENDCHAR
STARTCHAR 0032
ENCODING 50
SWIDTH 576 0
DWIDTH 4 0
BBX 3 5 1 0
BITMAP
C0
20
40
80
E0
ENDCHAR
STARTCHAR 0033
ENCODING 51
SWIDTH 576 0
DWIDTH 4 0
BBX 3 5 1 0
BITMAP
C0
40
C0
20
C0
ENDCHAR
STARTCHAR 0034
ENCODING 52
SWIDTH 576 0
DWIDTH 4 0
BBX 4 5 0 0
BITMAP
20
60
A0
F0
20
ENDCHAR
STARTCHAR 0035
ENCODING 53
SWIDTH 576 0
DWIDTH 4 0
BBX 3 5 1 0
BITMAP
E0
80
C0
20
C0
ENDCHAR
STARTCHAR 0036
ENCODING 54
SWIDTH 576 0
DWIDTH 4 0
BBX 4 5 0 0
BITMAP
70
80
F0
90
60
ENDCHAR
STARTCHAR 0037
ENCODING 55
SWIDTH 576 0
DWIDTH 4 0
BBX 3 5 1 0
BITMAP
E0
20
40
80
80
ENDCHAR
STARTCHAR 0038
ENCODING 56
SWIDTH 576 0
DWIDTH 4 0
BBX 3 5 1 0
BITMAP
E0
A0
C0
A0
E0
ENDCHAR
STARTCHAR 0039
ENCODING 57
SWIDTH 576 0
DWIDTH 4 0
BBX 3 5 1 0
BITMAP
C0
A0
E0
20
C0
ENDCHAR
STARTCHAR 003A
ENCODING 58
SWIDTH 288 0
DWIDTH 2 0
BBX 1 4 1 0
BITMAP
80
00
00
80
ENDCHAR
STARTCHAR 003B
ENCODING 59
SWIDTH 288 0
DWIDTH 2 0
BBX 1 5 1 -1
BITMAP
80
00
00
80
80
ENDCHAR
STARTCHAR 003C
ENCODING 60
SWIDTH 864 0
DWIDTH 6 0
BBX 4 5 1 0
BITMAP
10
60
80
40
30
ENDCHAR
STARTCHAR 003D
ENCODING 61
SWIDTH 864 0
DWIDTH 6 0
BBX 4 2 1 1
BITMAP
F0
F0
ENDCHAR
STARTCHAR 003E
ENCODING 62
SWIDTH 864 0
DWIDTH 6 0
BBX 4 5 1 0
BITMAP
80
40
30
60
80
ENDCHAR
STARTCHAR 003F
ENCODING 63
SWIDTH 432 0
DWIDTH 3 0
BBX 3 5 0 0
BITMAP
E0
20
40
00
40
ENDCHAR
STARTCHAR 0040
ENCODING 64
SWIDTH 864 0
DWIDTH 6 0
BBX 6 5 0 0
BITMAP
38
74
D4
B8
70
ENDCHAR
STARTCHAR 0041
ENCODING 65
SWIDTH 720 0
DWIDTH 5 0
BBX 5 5 0 0
BITMAP
20
60
50
70
88
ENDCHAR
STARTCHAR 0042
ENCODING 66
SWIDTH 576 0
DWIDTH 4 0
BBX 3 5 1 0
BITMAP
C0
C0
C0
A0
C0
ENDCHAR
STARTCHAR 0043
ENCODING 67
SWIDTH 720 0
DWIDTH 5 0
BBX 4 5 0 0
BITMAP
70
80
80
80
70
ENDCHAR
STARTCHAR 0044
ENCODING 68
SWIDTH 720 0
DWIDTH 5 0
BBX 4 5 1 0
BITMAP
E0
90
90
90
E0
ENDCHAR
STARTCHAR 0045
ENCODING 69
SWIDTH 576 0
DWIDTH 4 0
BBX 3 5 1 0
BITMAP
C0
80
C0
80
E0
ENDCHAR
STARTCHAR 0046
ENCODING 70
SWIDTH 576 0
DWIDTH 4 0
BBX 2 5 1 0
BITMAP
C0
80
C0
80
80
ENDCHAR
STARTCHAR 0047
ENCODING 71
SWIDTH 720 0
DWIDTH 5 0
BBX 4 5 0 0
BITMAP
70
80
80
90
70
ENDCHAR
STARTCHAR 0048
ENCODING 72
SWIDTH 720 0
DWIDTH 5 0
BBX 4 5 1 0
BITMAP
90
90
F0
90
90
ENDCHAR
STARTCHAR 0049
ENCODING 73
SWIDTH 288 0
DWIDTH 2 0
BBX 1 5 1 0
BITMAP
80
80
80
80
80
ENDCHAR
STARTCHAR 004A
ENCODING 74
SWIDTH 288 0
DWIDTH 2 0
BBX 3 6 -1 -1
BITMAP
20
20
20
20
20
C0
ENDCHAR
STARTCHAR 004B
ENCODING 75
SWIDTH 720 0
DWIDTH 5 0
BBX 3 5 1 0
BITMAP
A0
C0
80
C0
A0
ENDCHAR
STARTCHAR 004C
ENCODING 76
SWIDTH 576 0
DWIDTH 4 0
BBX 3 5 1 0
BITMAP
80
80
80
80
E0
ENDCHAR
STARTCHAR 004D
ENCODING 77
SWIDTH 864 0
DWIDTH 6 0
BBX 4 5 1 0
BITMAP
90
90
F0
F0
F0
ENDCHAR
STARTCHAR 004E
ENCODING 78
SWIDTH 720 0
DWIDTH 5 0
BBX 4 5 1 0
BITMAP
90
90
D0
B0
B0
ENDCHAR
STARTCHAR 004F
ENCODING 79
SWIDTH 720 0
DWIDTH 5 0
BBX 5 5 0 0
BITMAP
70
88
88
88
70
ENDCHAR
STARTCHAR 0050
ENCODING 80
SWIDTH 576 0
DWIDTH 4 0
BBX 3 5 1 0
BITMAP
E0
A0
C0
80
80
ENDCHAR
STARTCHAR 0051
ENCODING 81
SWIDTH 720 0
DWIDTH 5 0
BBX 5 6 0 -1
BITMAP
70
88
88
88
70
08
ENDCHAR
STARTCHAR 0052
ENCODING 82
SWIDTH 576 0
DWIDTH 4 0
BBX 3 5 1 0
BITMAP
C0
A0
C0
C0
A0
ENDCHAR
STARTCHAR 0053
ENCODING 83
SWIDTH 576 0
DWIDTH 4 0
BBX 3 5 0 0
BITMAP
60
80
60
20
E0
ENDCHAR
STARTCHAR 0054
ENCODING 84
SWIDTH 576 0
DWIDTH 4 0
BBX 4 5 0 0
BITMAP
F0
20
20
20
20
ENDCHAR
STARTCHAR 0055
ENCODING 85
SWIDTH 720 0
DWIDTH 5 0
BBX 3 5 1 0
BITMAP
A0
A0
A0
A0
E0
ENDCHAR
STARTCHAR 0056
ENCODING 86
SWIDTH 720 0
DWIDTH 5 0
BBX 4 5 0 0
BITMAP
90
90
50
60
20
ENDCHAR
STARTCHAR 0057
ENCODING 87
SWIDTH 864 0
DWIDTH 6 0
BBX 6 5 0 0
BITMAP
94
B4
B8
78
48
ENDCHAR
STARTCHAR 0058
ENCODING 88
SWIDTH 576 0
DWIDTH 4 0
BBX 4 5 0 0
BITMAP
90
60
20
60
90
ENDCHAR
STARTCHAR 0059
ENCODING 89
SWIDTH 576 0
DWIDTH 4 0
BBX 4 5 0 0
BITMAP
90
60
20
40
40
ENDCHAR
STARTCHAR 005A
ENCODING 90
SWIDTH 576 0
DWIDTH 4 0
BBX 4 5 0 0
BITMAP
F0
20
20
40
F0
ENDCHAR
STARTCHAR 005B
ENCODING 91
SWIDTH 288 0
DWIDTH 2 0
BBX 1 6 1 -1
BITMAP
80
80
80
80
80
80
ENDCHAR
STARTCHAR 005C
ENCODING 92
SWIDTH 576 0
DWIDTH 4 0
BBX 2 5 1 0
BITMAP
80
80
80
80
40
ENDCHAR
STARTCHAR 005D
ENCODING 93
SWIDTH 288 0
DWIDTH 2 0
BBX 2 6 0 -1
BITMAP
C0
40
40
40
40
C0
ENDCHAR
STARTCHAR 005E
ENCODING 94
SWIDTH 576 0
DWIDTH 4 0
BBX 4 3 0 2
BITMAP
20
60
90
ENDCHAR
STARTCHAR 005F
ENCODING 95
SWIDTH 576 0
DWIDTH 4 0
BBX 3 1 0 -1
BITMAP
E0
ENDCHAR
STARTCHAR 0060
ENCODING 96
SWIDTH 576 0
DWIDTH 4 0
BBX 2 2 1 4
BITMAP
80
40
ENDCHAR
STARTCHAR 0061
ENCODING 97
SWIDTH 576 0
DWIDTH 4 0
BBX 4 4 0 0
BITMAP
60
20
60
F0
ENDCHAR
STARTCHAR 0062
ENCODING 98
SWIDTH 576 0
DWIDTH 4 0
BBX 3 5 1 0
BITMAP
80
E0
A0
A0
E0
ENDCHAR
STARTCHAR 0063
ENCODING 99
SWIDTH 576 0
DWIDTH 4 0
BBX 3 4 0 0
BITMAP
60
80
80
60
ENDCHAR
STARTCHAR 0064
ENCODING 100
SWIDTH 576 0
DWIDTH 4 0
BBX 4 5 0 0
BITMAP
10
70
90
90
70
ENDCHAR
STARTCHAR 0065
ENCODING 101
SWIDTH 576 0
DWIDTH 4 0
BBX 3 4 0 0
BITMAP
60
A0
E0
60
ENDCHAR
STARTCHAR 0066
ENCODING 102
SWIDTH 432 0
DWIDTH 3 0
BBX 3 5 0 0
BITMAP
60
C0
80
80
80
ENDCHAR
STARTCHAR 0067
ENCODING 103
SWIDTH 576 0
DWIDTH 4 0
BBX 4 5 0 -1
BITMAP
70
90
90
70
60
ENDCHAR
STARTCHAR 0068
ENCODING 104
SWIDTH 576 0
DWIDTH 4 0
BBX 3 5 1 0
BITMAP
80
E0
A0
A0
A0
ENDCHAR
STARTCHAR 0069
ENCODING 105
SWIDTH 288 0
DWIDTH 2 0
BBX 1 5 1 0
BITMAP
80
80
80
80
80
ENDCHAR
STARTCHAR 006A
ENCODING 106
SWIDTH 288 0
DWIDTH 2 0
BBX 2 6 -1 -1
BITMAP
40
40
40
40
40
C0
ENDCHAR
STARTCHAR 006B
ENCODING 107
SWIDTH 576 0
DWIDTH 4 0
BBX 3 5 1 0
BITMAP
80
C0
80
C0
A0
ENDCHAR
STARTCHAR 006C
ENCODING 108
SWIDTH 288 0
DWIDTH 2 0
BBX 1 5 1 0
BITMAP
80
80
80
80
80
ENDCHAR
STARTCHAR 006D
ENCODING 109
SWIDTH 1008 0
DWIDTH 7 0
BBX 5 4 1 0
BITMAP
D8
A8
A8
A8
ENDCHAR
STARTCHAR 006E
ENCODING 110
SWIDTH 576 0
DWIDTH 4 0
BBX 3 4 1 0
BITMAP
E0
A0
A0
A0
ENDCHAR
STARTCHAR 006F
ENCODING 111
SWIDTH 576 0
DWIDTH 4 0
BBX 4 4 0 0
BITMAP
60
90
90
60
ENDCHAR
STARTCHAR 0070
ENCODING 112
SWIDTH 576 0
DWIDTH 4 0
BBX 3 5 1 -1
BITMAP
E0
A0
A0
E0
80
ENDCHAR
STARTCHAR 0071
ENCODING 113
SWIDTH 576 0
DWIDTH 4 0
BBX 4 5 0 -1
BITMAP
70
90
90
70
10
ENDCHAR
STARTCHAR 0072
ENCODING 114
SWIDTH 432 0
DWIDTH 3 0
BBX 2 4 1 0
BITMAP
C0
80
80
80
ENDCHAR
STARTCHAR 0073
ENCODING 115
SWIDTH 576 0
DWIDTH 4 0
BBX 2 4 1 0
BITMAP
C0
80
40
C0
ENDCHAR
STARTCHAR 0074
ENCODING 116
SWIDTH 432 0
DWIDTH 3 0
BBX 2 5 0 0
BITMAP
80
C0
80
80
40
ENDCHAR
STARTCHAR 0075
ENCODING 117
SWIDTH 576 0
DWIDTH 4 0
BBX 3 4 1 0
BITMAP
A0
A0
A0
E0
ENDCHAR
STARTCHAR 0076
ENCODING 118
SWIDTH 576 0
DWIDTH 4 0
BBX 3 4 0 0
BITMAP
A0
A0
60
40
ENDCHAR
STARTCHAR 0077
ENCODING 119
SWIDTH 720 0
DWIDTH 5 0
BBX 5 4 0 0
BITMAP
A8
B8
58
50
ENDCHAR
STARTCHAR 0078
ENCODING 120
SWIDTH 576 0
DWIDTH 4 0
BBX 4 4 0 0
BITMAP
90
60
60
90
ENDCHAR
STARTCHAR 0079
ENCODING 121
SWIDTH 576 0
DWIDTH 4 0
BBX 3 5 0 -1
BITMAP
A0
A0
60
40
40
ENDCHAR
STARTCHAR 007A
ENCODING 122
SWIDTH 576 0
DWIDTH 4 0
BBX 4 4 0 0
BITMAP
70
20
40
F0
ENDCHAR
STARTCHAR 007B
ENCODING 123
SWIDTH 288 0
DWIDTH 2 0
BBX 2 6 0 -1
BITMAP
40
80
80
80
80
40
ENDCHAR
STARTCHAR 007C
ENCODING 124
SWIDTH 432 0
DWIDTH 3 0
BBX 1 4 1 0
BITMAP
80
80
80
80
ENDCHAR
STARTCHAR 007D
ENCODING 125
SWIDTH 288 0
DWIDTH 2 0
BBX 2 6 0 -1
BITMAP
C0
40
40
40
40
C0
ENDCHAR
STARTCHAR 007E
ENCODING 126
SWIDTH 576 0
DWIDTH 4 0
BBX 4 1 0 1
BITMAP
F0
ENDCHAR
STARTCHAR 00A0
ENCODING 160
SWIDTH 288 0
DWIDTH 2 0
BBX 0 0 0 0
BITMAP
ENDCHAR
STARTCHAR 00A1
ENCODING 161
SWIDTH 288 0
DWIDTH 2 0
BBX 1 5 1 -1
BITMAP
80
00
80
80
80
ENDCHAR
STARTCHAR 00A2
ENCODING 162
SWIDTH 576 0
DWIDTH 4 0
BBX 3 5 1 0
BITMAP
40
E0
C0
E0
40
ENDCHAR
STARTCHAR 00A3
ENCODING 163
SWIDTH 576 0
DWIDTH 4 0
BBX 3 5 1 0
BITMAP
60
80
C0
80
E0
ENDCHAR
STARTCHAR 00A4
ENCODING 164
SWIDTH 576 0
DWIDTH 4 0
BBX 4 3 0 1
BITMAP
70
90
70
ENDCHAR
STARTCHAR 00A5
ENCODING 165
SWIDTH 576 0
DWIDTH 4 0
BBX 3 5 1 0
BITMAP
A0
C0
E0
E0
40
ENDCHAR
STARTCHAR 00A6
ENCODING 166
SWIDTH 432 0
DWIDTH 3 0
BBX 1 4 1 0
BITMAP
80
00
00
80
ENDCHAR
STARTCHAR 00A7
ENCODING 167
SWIDTH 576 0
DWIDTH 4 0
BBX 3 6 1 -1
BITMAP
C0
A0
C0
A0
60
E0
ENDCHAR
STARTCHAR 00A8
ENCODING 168
SWIDTH 576 0
DWIDTH 4 0
BBX 2 1 1 4
BITMAP
C0
ENDCHAR
STARTCHAR 00A9
ENCODING 169
SWIDTH 864 0
DWIDTH 6 0
BBX 6 5 0 0
BITMAP
78
B8
C4
B8
78
ENDCHAR
STARTCHAR 00AA
ENCODING 170
SWIDTH 432 0
DWIDTH 3 0
BBX 2 2 0 3
BITMAP
40
C0
ENDCHAR
STARTCHAR 00AB
ENCODING 171
SWIDTH 576 0
DWIDTH 4 0
BBX 3 3 0 0
BITMAP
60
C0
60
ENDCHAR
STARTCHAR 00AC
ENCODING 172
SWIDTH 864 0
DWIDTH 6 0
BBX 4 2 1 1
BITMAP
F0
10
ENDCHAR
STARTCHAR 00AD
ENCODING 173
SWIDTH 288 0
DWIDTH 2 0
BBX 2 1 0 2
BITMAP
C0
ENDCHAR
STARTCHAR 00AE
ENCODING 174
SWIDTH 576 0
DWIDTH 4 0
BBX 3 3 1 2
BITMAP
C0
E0
C0
ENDCHAR
STARTCHAR 00AF
ENCODING 175
SWIDTH 576 0
DWIDTH 4 0
BBX 3 1 0 4
BITMAP
E0
ENDCHAR
STARTCHAR 00B0
ENCODING 176
SWIDTH 288 0
DWIDTH 2 0
BBX 2 3 0 2
BITMAP
C0
C0
C0
ENDCHAR
STARTCHAR 00B1
ENCODING 177
SWIDTH 864 0
DWIDTH 6 0
BBX 4 4 1 1
BITMAP
F0
00
00
F0
ENDCHAR
STARTCHAR 00B2
ENCODING 178
SWIDTH 432 0
DWIDTH 3 0
BBX 1 3 1 2
BITMAP
80
80
80
ENDCHAR
STARTCHAR 00B3
ENCODING 179
SWIDTH 432 0
DWIDTH 3 0
BBX 1 3 1 2
BITMAP
80
80
80
ENDCHAR
STARTCHAR 00B4
ENCODING 180
SWIDTH 576 0
DWIDTH 4 0
BBX 2 2 1 4
BITMAP
40
80
ENDCHAR
STARTCHAR 00B5
ENCODING 181
SWIDTH 576 0
DWIDTH 4 0
BBX 3 5 1 -1
BITMAP
A0
A0
A0
E0
80
ENDCHAR
STARTCHAR 00B6
ENCODING 182
SWIDTH 576 0
DWIDTH 4 0
BBX 3 6 1 -1
BITMAP
E0
E0
60
60
60
60
ENDCHAR
STARTCHAR 00B7
ENCODING 183
SWIDTH 576 0
DWIDTH 4 0
BBX 1 1 2 2
BITMAP
80
ENDCHAR
STARTCHAR 00B8
ENCODING 184
SWIDTH 576 0
DWIDTH 4 0
BBX 1 3 2 -3
BITMAP
80
80
80
ENDCHAR
STARTCHAR 00B9
ENCODING 185
SWIDTH 432 0
DWIDTH 3 0
BBX 1 3 1 2
BITMAP
80
80
80
ENDCHAR
STARTCHAR 00BA
ENCODING 186
SWIDTH 432 0
DWIDTH 3 0
BBX 2 2 1 3
BITMAP
C0
C0
ENDCHAR
STARTCHAR 00BB
ENCODING 187
SWIDTH 576 0
DWIDTH 4 0
BBX 3 3 0 0
BITMAP
C0
60
C0
ENDCHAR
STARTCHAR 00BC
ENCODING 188
SWIDTH 864 0
DWIDTH 6 0
BBX 5 5 0 0
BITMAP
80
90
A8
58
08
ENDCHAR
STARTCHAR 00BD
ENCODING 189
SWIDTH 864 0
DWIDTH 6 0
BBX 5 5 0 0
BITMAP
80
B0
B8
50
18
ENDCHAR
STARTCHAR 00BE
ENCODING 190
SWIDTH 864 0
DWIDTH 6 0
BBX 5 5 0 0
BITMAP
C8
50
E8
58
48
ENDCHAR
STARTCHAR 00BF
ENCODING 191
SWIDTH 432 0
DWIDTH 3 0
BBX 3 5 0 -1
BITMAP
40
00
40
80
E0
ENDCHAR
STARTCHAR 00C0
ENCODING 192
SWIDTH 720 0
DWIDTH 5 0
BBX 5 8 0 0
BITMAP
40
20
00
20
60
50
70
88
ENDCHAR
STARTCHAR 00C1
ENCODING 193
SWIDTH 720 0
DWIDTH 5 0
BBX 5 8 0 0
BITMAP
20
20
00
20
60
50
70
88
ENDCHAR
STARTCHAR 00C2
ENCODING 194
SWIDTH 720 0
DWIDTH 5 0
BBX 5 8 0 0
BITMAP
20
60
00
20
60
50
70
88
ENDCHAR
STARTCHAR 00C3
ENCODING 195
SWIDTH 720 0
DWIDTH 5 0
BBX 5 8 0 0
BITMAP
50
60
00
20
60
50
70
88
ENDCHAR
STARTCHAR 00C4
ENCODING 196
SWIDTH 720 0
DWIDTH 5 0
BBX 5 7 0 0
BITMAP
60
00
20
60
50
70
88
ENDCHAR
STARTCHAR 00C5
ENCODING 197
SWIDTH 720 0
DWIDTH 5 0
BBX 5 9 0 0
BITMAP
20
60
20
00
20
60
50
70
88
ENDCHAR
STARTCHAR 00C6
ENCODING 198
SWIDTH 864 0
DWIDTH 6 0
BBX 6 5 0 0
BITMAP
1C
30
5C
70
9C
ENDCHAR
STARTCHAR 00C7
ENCODING 199
SWIDTH 720 0
DWIDTH 5 0
BBX 4 8 0 -3
BITMAP
70
80
80
80
70
20
20
20
ENDCHAR
STARTCHAR 00C8
ENCODING 200
SWIDTH 576 0
DWIDTH 4 0
BBX 3 8 1 0
BITMAP
80
80
00
C0
80
C0
80
E0
ENDCHAR
STARTCHAR 00C9
ENCODING 201
SWIDTH 576 0
DWIDTH 4 0
BBX 3 8 1 0
BITMAP
40
80
00
C0
80
C0
80
E0
ENDCHAR
STARTCHAR 00CA
ENCODING 202
SWIDTH 576 0
DWIDTH 4 0
BBX 3 8 1 0
BITMAP
40
C0
00
C0
80
C0
80
E0
ENDCHAR
STARTCHAR 00CB
ENCODING 203
SWIDTH 576 0
DWIDTH 4 0
BBX 3 7 1 0
BITMAP
C0
00
C0
80
C0
80
E0
ENDCHAR
STARTCHAR 00CC
ENCODING 204
SWIDTH 288 0
DWIDTH 2 0
BBX 1 8 0 0
BITMAP
80
80
00
80
80
80
80
80
ENDCHAR
STARTCHAR 00CD
ENCODING 205
SWIDTH 288 0
DWIDTH 2 0
BBX 2 8 0 0
BITMAP
40
80
00
80
80
80
80
80
ENDCHAR
STARTCHAR 00CE
ENCODING 206
SWIDTH 288 0
DWIDTH 2 0
BBX 2 8 0 0
BITMAP
C0
C0
00
80
80
80
80
80
ENDCHAR
STARTCHAR 00CF
ENCODING 207
SWIDTH 288 0
DWIDTH 2 0
BBX 2 7 0 0
BITMAP
C0
00
80
80
80
80
80
ENDCHAR
STARTCHAR 00D0
ENCODING 208
SWIDTH 720 0
DWIDTH 5 0
BBX 5 5 0 0
BITMAP
70
88
E8
88
70
ENDCHAR
STARTCHAR 00D1
ENCODING 209
SWIDTH 720 0
DWIDTH 5 0
BBX 4 8 1 0
BITMAP
60
20
00
90
90
D0
B0
B0
ENDCHAR
STARTCHAR 00D2
ENCODING 210
SWIDTH 720 0
DWIDTH 5 0
BBX 5 8 0 0
BITMAP
20
20
00
70
88
88
88
70
ENDCHAR
STARTCHAR 00D3
ENCODING 211
SWIDTH 720 0
DWIDTH 5 0
BBX 5 8 0 0
BITMAP
10
20
00
70
88
88
88
70
ENDCHAR
STARTCHAR 00D4
ENCODING 212
SWIDTH 720 0
DWIDTH 5 0
BBX 5 8 0 0
BITMAP
20
50
00
70
88
88
88
70
ENDCHAR
STARTCHAR 00D5
ENCODING 213
SWIDTH 720 0
DWIDTH 5 0
BBX 5 8 0 0
BITMAP
30
10
00
70
88
88
88
70
ENDCHAR
STARTCHAR 00D6
ENCODING 214
SWIDTH 720 0
DWIDTH 5 0
BBX 5 7 0 0
BITMAP
50
00
70
88
88
88
70
ENDCHAR
STARTCHAR 00D7
ENCODING 215
SWIDTH 864 0
DWIDTH 6 0
BBX 4 5 1 0
BITMAP
10
A0
40
A0
90
ENDCHAR
STARTCHAR 00D8
ENCODING 216
SWIDTH 720 0
DWIDTH 5 0
BBX 5 5 0 0
BITMAP
78
98
A8
48
70
ENDCHAR
STARTCHAR 00D9
ENCODING 217
SWIDTH 720 0
DWIDTH 5 0
BBX 3 8 1 0
BITMAP
80
40
00
A0
A0
A0
A0
E0
ENDCHAR
STARTCHAR 00DA
ENCODING 218
SWIDTH 720 0
DWIDTH 5 0
BBX 3 8 1 0
BITMAP
40
40
00
A0
A0
A0
A0
E0
ENDCHAR
STARTCHAR 00DB
ENCODING 219
SWIDTH 720 0
DWIDTH 5 0
BBX 3 8 1 0
BITMAP
40
C0
00
A0
A0
A0
A0
E0
ENDCHAR
STARTCHAR 00DC
ENCODING 220
SWIDTH 720 0
DWIDTH 5 0
BBX 3 7 1 0
BITMAP
C0
00
A0
A0
A0
A0
E0
ENDCHAR
STARTCHAR 00DD
ENCODING 221
SWIDTH 576 0
DWIDTH 4 0
BBX 4 8 0 0
BITMAP
20
40
00
90
60
20
40
40
ENDCHAR
STARTCHAR 00DE
ENCODING 222
SWIDTH 576 0
DWIDTH 4 0
BBX 3 5 1 0
BITMAP
80
E0
A0
C0
80
ENDCHAR
STARTCHAR 00DF
ENCODING 223
SWIDTH 576 0
DWIDTH 4 0
BBX 3 5 1 0
BITMAP
C0
C0
C0
A0
E0
ENDCHAR
STARTCHAR 00E0
ENCODING 224
SWIDTH 576 0
DWIDTH 4 0
BBX 4 7 0 0
BITMAP
40
40
00
60
20
60
F0
ENDCHAR
STARTCHAR 00E1
ENCODING 225
SWIDTH 576 0
DWIDTH 4 0
BBX 4 7 0 0
BITMAP
20
40
00
60
20
60
F0
ENDCHAR
STARTCHAR 00E2
ENCODING 226
SWIDTH 576 0
DWIDTH 4 0
BBX 4 7 0 0
BITMAP
60
60
00
60
20
60
F0
ENDCHAR
STARTCHAR 00E3
ENCODING 227
SWIDTH 576 0
DWIDTH 4 0
BBX 4 7 0 0
BITMAP
40
20
00
60
20
60
F0
ENDCHAR
STARTCHAR 00E4
ENCODING 228
SWIDTH 576 0
DWIDTH 4 0
BBX 4 6 0 0
BITMAP
60
00
60
20
60
F0
ENDCHAR
STARTCHAR 00E5
ENCODING 229
SWIDTH 576 0
DWIDTH 4 0
BBX 4 8 0 0
BITMAP
60
A0
60
00
60
20
60
F0
ENDCHAR
STARTCHAR 00E6
ENCODING 230
SWIDTH 864 0
DWIDTH 6 0
BBX 5 4 0 0
BITMAP
78
28
78
F8
ENDCHAR
STARTCHAR 00E7
ENCODING 231
SWIDTH 576 0
DWIDTH 4 0
BBX 3 7 0 -3
BITMAP
60
80
80
60
20
20
20
ENDCHAR
STARTCHAR 00E8
ENCODING 232
SWIDTH 576 0
DWIDTH 4 0
BBX 3 7 0 0
BITMAP
40
40
00
60
A0
E0
60
ENDCHAR
STARTCHAR 00E9
ENCODING 233
SWIDTH 576 0
DWIDTH 4 0
BBX 3 7 0 0
BITMAP
20
40
00
60
A0
E0
60
ENDCHAR
STARTCHAR 00EA
ENCODING 234
SWIDTH 576 0
DWIDTH 4 0
BBX 3 7 0 0
BITMAP
60
60
00
60
A0
E0
60
ENDCHAR
STARTCHAR 00EB
ENCODING 235
SWIDTH 576 0
DWIDTH 4 0
BBX 3 6 0 0
BITMAP
60
00
60
A0
E0
60
ENDCHAR
STARTCHAR 00EC
ENCODING 236
SWIDTH 288 0
DWIDTH 2 0
BBX 1 7 0 0
BITMAP
80
80
00
80
80
80
80
ENDCHAR
STARTCHAR 00ED
ENCODING 237
SWIDTH 288 0
DWIDTH 2 0
BBX 2 7 0 0
BITMAP
40
80
00
80
80
80
80
ENDCHAR
STARTCHAR 00EE
ENCODING 238
SWIDTH 288 0
DWIDTH 2 0
BBX 2 7 0 0
BITMAP
C0
C0
00
80
80
80
80
ENDCHAR
STARTCHAR 00EF
ENCODING 239
SWIDTH 288 0
DWIDTH 2 0
BBX 2 6 0 0
BITMAP
C0
00
80
80
80
80
ENDCHAR
STARTCHAR 00F0
ENCODING 240
SWIDTH 576 0
DWIDTH 4 0
BBX 4 5 0 0
BITMAP
C0
60
90
90
60
ENDCHAR
STARTCHAR 00F1
ENCODING 241
SWIDTH 576 0
DWIDTH 4 0
BBX 3 7 1 0
BITMAP
80
C0
00
E0
A0
A0
A0
ENDCHAR
STARTCHAR 00F2
ENCODING 242
SWIDTH 576 0
DWIDTH 4 0
BBX 4 7 0 0
BITMAP
40
40
00
60
90
90
60
ENDCHAR
STARTCHAR 00F3
ENCODING 243
SWIDTH 576 0
DWIDTH 4 0
BBX 4 7 0 0
BITMAP
20
40
00
60
90
90
60
ENDCHAR
STARTCHAR 00F4
ENCODING 244
SWIDTH 576 0
DWIDTH 4 0
BBX 4 7 0 0
BITMAP
20
60
00
60
90
90
60
ENDCHAR
STARTCHAR 00F5
ENCODING 245
SWIDTH 576 0
DWIDTH 4 0
BBX 4 7 0 0
BITMAP
40
20
00
60
90
90
60
ENDCHAR
STARTCHAR 00F6
ENCODING 246
SWIDTH 576 0
DWIDTH 4 0
BBX 4 6 0 0
BITMAP
60
00
60
90
90
60
ENDCHAR
STARTCHAR 00F7
ENCODING 247
SWIDTH 864 0
DWIDTH 6 0
BBX 4 5 1 0
BITMAP
40
00
F0
00
40
ENDCHAR
STARTCHAR 00F8
ENCODING 248
SWIDTH 576 0
DWIDTH 4 0
BBX 4 4 0 0
BITMAP
70
B0
D0
60
ENDCHAR
STARTCHAR 00F9
ENCODING 249
SWIDTH 576 0
DWIDTH 4 0
BBX 3 7 1 0
BITMAP
80
80
00
A0
A0
A0
E0
ENDCHAR
STARTCHAR 00FA
ENCODING 250
SWIDTH 576 0
DWIDTH 4 0
BBX 3 7 1 0
BITMAP
40
80
00
A0
A0
A0
E0
ENDCHAR
STARTCHAR 00FB
ENCODING 251
SWIDTH 576 0
DWIDTH 4 0
BBX 3 7 1 0
BITMAP
40
C0
00
A0
A0
A0
E0
ENDCHAR
STARTCHAR 00FC
ENCODING 252
SWIDTH 576 0
DWIDTH 4 0
BBX 3 6 1 0
BITMAP
C0
00
A0
A0
A0
E0
ENDCHAR
STARTCHAR 00FD
ENCODING 253
SWIDTH 576 0
DWIDTH 4 0
BBX 3 8 0 -1
BITMAP
20
40
00
A0
A0
60
40
40
ENDCHAR
STARTCHAR 00FE
ENCODING 254
SWIDTH 576 0
DWIDTH 4 0
BBX 3 6 1 -1
BITMAP
80
E0
A0
A0
E0
80
ENDCHAR
STARTCHAR 00FF
ENCODING 255
SWIDTH 576 0
DWIDTH 4 0
BBX 3 7 0 -1
BITMAP
60
00
A0
A0
60
40
40
ENDCHAR
STARTCHAR 0100
ENCODING 256
SWIDTH 720 0
DWIDTH 5 0
BBX 5 7 0 0
BITMAP
70
00
20
60
50
70
88
ENDCHAR
STARTCHAR 0101
ENCODING 257
SWIDTH 576 0
DWIDTH 4 0
BBX 4 6 0 0
BITMAP
60
00
60
20
60
F0
ENDCHAR
STARTCHAR 0102
ENCODING 258
SWIDTH 720 0
DWIDTH 5 0
BBX 5 8 0 0
BITMAP
40
20
00
20
60
50
70
88
ENDCHAR
STARTCHAR 0103
ENCODING 259
SWIDTH 576 0
DWIDTH 4 0
BBX 4 6 0 1
BITMAP
60
00
60
20
60
F0
ENDCHAR
STARTCHAR 0104
ENCODING 260
SWIDTH 720 0
DWIDTH 5 0
BBX 5 8 0 -3
BITMAP
20
60
50
70
88
00
10
08
ENDCHAR
STARTCHAR 0105
ENCODING 261
SWIDTH 576 0
DWIDTH 4 0
BBX 4 7 0 -3
BITMAP
60
20
60
F0
00
20
10
ENDCHAR
STARTCHAR 0106
ENCODING 262
SWIDTH 720 0
DWIDTH 5 0
BBX 4 8 0 0
BITMAP
10
20
00
70
80
80
80
70
ENDCHAR
STARTCHAR 0107
ENCODING 263
SWIDTH 576 0
DWIDTH 4 0
BBX 3 7 0 0
BITMAP
20
40
00
60
80
80
60
ENDCHAR
STARTCHAR 0108
ENCODING 264
SWIDTH 720 0
DWIDTH 5 0
BBX 4 8 0 0
BITMAP
20
50
00
70
80
80
80
70
ENDCHAR
STARTCHAR 0109
ENCODING 265
SWIDTH 576 0
DWIDTH 4 0
BBX 3 7 0 0
BITMAP
20
60
00
60
80
80
60
ENDCHAR
STARTCHAR 010A
ENCODING 266
SWIDTH 720 0
DWIDTH 5 0
BBX 4 7 0 0
BITMAP
20
00
70
80
80
80
70
ENDCHAR
STARTCHAR 010B
ENCODING 267
SWIDTH 576 0
DWIDTH 4 0
BBX 3 6 0 0
BITMAP
20
00
60
80
80
60
ENDCHAR
STARTCHAR 010C
ENCODING 268
SWIDTH 720 0
DWIDTH 5 0
BBX 4 8 0 0
BITMAP
50
20
00
70
80
80
80
70
ENDCHAR
STARTCHAR 010D
ENCODING 269
SWIDTH 576 0
DWIDTH 4 0
BBX 3 7 0 0
BITMAP
60
20
00
60
80
80
60
ENDCHAR
STARTCHAR 010E
ENCODING 270
SWIDTH 720 0
DWIDTH 5 0
BBX 4 8 1 0
BITMAP
A0
40
00
E0
90
90
90
E0
ENDCHAR
STARTCHAR 010F
ENCODING 271
SWIDTH 720 0
DWIDTH 5 0
BBX 5 5 0 0
BITMAP
18
78
90
90
70
ENDCHAR
STARTCHAR 0110
ENCODING 272
SWIDTH 720 0
DWIDTH 5 0
BBX 5 5 0 0
BITMAP
70
88
E8
88
70
ENDCHAR
STARTCHAR 0111
ENCODING 273
SWIDTH 576 0
DWIDTH 4 0
BBX 4 5 0 0
BITMAP
30
70
90
90
70
ENDCHAR
STARTCHAR 0112
ENCODING 274
SWIDTH 576 0
DWIDTH 4 0
BBX 3 7 1 0
BITMAP
C0
00
C0
80
C0
80
E0
ENDCHAR
STARTCHAR 0113
ENCODING 275
SWIDTH 576 0
DWIDTH 4 0
BBX 3 6 0 0
BITMAP
60
00
60
A0
E0
60
ENDCHAR
STARTCHAR 0114
ENCODING 276
SWIDTH 576 0
DWIDTH 4 0
BBX 3 8 1 0
BITMAP
80
C0
00
C0
80
C0
80
E0
ENDCHAR
STARTCHAR 0115
ENCODING 277
SWIDTH 576 0
DWIDTH 4 0
BBX 3 6 0 1
BITMAP
60
00
60
A0
E0
60
ENDCHAR
STARTCHAR 0116
ENCODING 278
SWIDTH 576 0
DWIDTH 4 0
BBX 3 7 1 0
BITMAP
80
00
C0
80
C0
80
E0
ENDCHAR
STARTCHAR 0117
ENCODING 279
SWIDTH 576 0
DWIDTH 4 0
BBX 3 6 0 0
BITMAP
40
00
60
A0
E0
60
ENDCHAR
STARTCHAR 0118
ENCODING 280
SWIDTH 576 0
DWIDTH 4 0
BBX 3 8 1 -3
BITMAP
C0
80
C0
80
E0
00
40
60
ENDCHAR
STARTCHAR 0119
ENCODING 281
SWIDTH 576 0
DWIDTH 4 0
BBX 3 7 0 -3
BITMAP
60
A0
E0
60
00
40
20
ENDCHAR
STARTCHAR 011A
ENCODING 282
SWIDTH 576 0
DWIDTH 4 0
BBX 3 8 1 0
BITMAP
C0
40
00
C0
80
C0
80
E0
ENDCHAR
STARTCHAR 011B
ENCODING 283
SWIDTH 576 0
DWIDTH 4 0
BBX 3 7 0 0
BITMAP
60
60
00
60
A0
E0
60
ENDCHAR
STARTCHAR 011C
ENCODING 284
SWIDTH 720 0
DWIDTH 5 0
BBX 4 8 0 0
BITMAP
20
50
00
70
80
80
90
70
ENDCHAR
STARTCHAR 011D
ENCODING 285
SWIDTH 576 0
DWIDTH 4 0
BBX 4 8 0 -1
BITMAP
20
60
00
70
90
90
70
60
ENDCHAR
STARTCHAR 011E
ENCODING 286
SWIDTH 720 0
DWIDTH 5 0
BBX 4 8 0 0
BITMAP
10
20
00
70
80
80
90
70
ENDCHAR
STARTCHAR 011F
ENCODING 287
SWIDTH 576 0
DWIDTH 4 0
BBX 4 7 0 0
BITMAP
60
00
70
90
90
70
60
ENDCHAR
STARTCHAR 0120
ENCODING 288
SWIDTH 720 0
DWIDTH 5 0
BBX 4 7 0 0
BITMAP
20
00
70
80
80
90
70
ENDCHAR
STARTCHAR 0121
ENCODING 289
SWIDTH 576 0
DWIDTH 4 0
BBX 4 7 0 -1
BITMAP
40
00
70
90
90
70
60
ENDCHAR
STARTCHAR 0122
ENCODING 290
SWIDTH 720 0
DWIDTH 5 0
BBX 4 8 0 -3
BITMAP
70
80
80
90
70
20
20
20
ENDCHAR
STARTCHAR 0123
ENCODING 291
SWIDTH 576 0
DWIDTH 4 0
BBX 4 8 0 -1
BITMAP
40
40
00
70
90
90
70
60
ENDCHAR
STARTCHAR 0124
ENCODING 292
SWIDTH 720 0
DWIDTH 5 0
BBX 4 8 1 0
BITMAP
40
A0
00
90
90
F0
90
90
ENDCHAR
STARTCHAR 0125
ENCODING 293
SWIDTH 576 0
DWIDTH 4 0
BBX 4 7 0 0
BITMAP
C0
C0
80
B0
50
90
90
ENDCHAR
STARTCHAR 0126
ENCODING 294
SWIDTH 864 0
DWIDTH 6 0
BBX 5 5 0 0
BITMAP
F8
48
78
48
48
ENDCHAR
STARTCHAR 0127
ENCODING 295
SWIDTH 576 0
DWIDTH 4 0
BBX 4 5 0 0
BITMAP
C0
B0
50
90
90
ENDCHAR
STARTCHAR 0128
ENCODING 296
SWIDTH 288 0
DWIDTH 2 0
BBX 2 7 0 0
BITMAP
80
40
80
80
80
80
80
ENDCHAR
STARTCHAR 0129
ENCODING 297
SWIDTH 288 0
DWIDTH 2 0
BBX 2 7 0 0
BITMAP
80
40
00
80
80
80
80
ENDCHAR
STARTCHAR 012A
ENCODING 298
SWIDTH 288 0
DWIDTH 2 0
BBX 2 6 0 0
BITMAP
C0
80
80
80
80
80
ENDCHAR
STARTCHAR 012B
ENCODING 299
SWIDTH 288 0
DWIDTH 2 0
BBX 2 6 0 0
BITMAP
C0
00
80
80
80
80
ENDCHAR
STARTCHAR 012C
ENCODING 300
SWIDTH 288 0
DWIDTH 2 0
BBX 2 6 0 1
BITMAP
C0
80
80
80
80
80
ENDCHAR
STARTCHAR 012D
ENCODING 301
SWIDTH 288 0
DWIDTH 2 0
BBX 2 6 0 1
BITMAP
C0
00
80
80
80
80
ENDCHAR
STARTCHAR 012E
ENCODING 302
SWIDTH 288 0
DWIDTH 2 0
BBX 2 8 0 -3
BITMAP
80
80
80
80
80
00
80
40
ENDCHAR
STARTCHAR 012F
ENCODING 303
SWIDTH 288 0
DWIDTH 2 0
BBX 2 8 0 -3
BITMAP
80
80
80
80
80
00
80
40
ENDCHAR
STARTCHAR 0130
ENCODING 304
SWIDTH 288 0
DWIDTH 2 0
BBX 1 6 1 0
BITMAP
80
80
80
80
80
80
ENDCHAR
STARTCHAR 0131
ENCODING 305
SWIDTH 288 0
DWIDTH 2 0
BBX 1 4 1 0
BITMAP
80
80
80
80
ENDCHAR
STARTCHAR 0132
ENCODING 306
SWIDTH 576 0
DWIDTH 4 0
BBX 3 6 1 -1
BITMAP
A0
A0
A0
A0
A0
C0
ENDCHAR
STARTCHAR 0133
ENCODING 307
SWIDTH 576 0
DWIDTH 4 0
BBX 2 6 1 -1
BITMAP
C0
C0
C0
C0
C0
C0
ENDCHAR
STARTCHAR 0134
ENCODING 308
SWIDTH 288 0
DWIDTH 2 0
BBX 3 8 -1 -1
BITMAP
20
60
20
20
20
20
20
C0
ENDCHAR
STARTCHAR 0135
ENCODING 309
SWIDTH 288 0
DWIDTH 2 0
BBX 3 7 -1 -1
BITMAP
20
60
40
40
40
40
C0
ENDCHAR
STARTCHAR 0136
ENCODING 310
SWIDTH 720 0
DWIDTH 5 0
BBX 3 8 1 -3
BITMAP
A0
C0
80
C0
A0
40
40
40
ENDCHAR
STARTCHAR 0137
ENCODING 311
SWIDTH 576 0
DWIDTH 4 0
BBX 3 8 1 -3
BITMAP
80
C0
80
C0
A0
40
40
40
ENDCHAR
STARTCHAR 0138
ENCODING 312
SWIDTH 576 0
DWIDTH 4 0
BBX 3 4 1 0
BITMAP
C0
80
C0
A0
ENDCHAR
STARTCHAR 0139
ENCODING 313
SWIDTH 576 0
DWIDTH 4 0
BBX 3 8 1 0
BITMAP
80
80
00
80
80
80
80
E0
ENDCHAR
STARTCHAR 013A
ENCODING 314
SWIDTH 288 0
DWIDTH 2 0
BBX 2 7 0 0
BITMAP
40
80
80
80
80
80
80
ENDCHAR
STARTCHAR 013B
ENCODING 315
SWIDTH 576 0
DWIDTH 4 0
BBX 3 8 1 -3
BITMAP
80
80
80
80
E0
40
40
40
ENDCHAR
STARTCHAR 013C
ENCODING 316
SWIDTH 288 0
DWIDTH 2 0
BBX 2 8 0 -3
BITMAP
80
80
80
80
80
40
40
80
ENDCHAR
STARTCHAR 013D
ENCODING 317
SWIDTH 576 0
DWIDTH 4 0
BBX 3 5 1 0
BITMAP
C0
C0
80
80
E0
ENDCHAR
STARTCHAR 013E
ENCODING 318
SWIDTH 288 0
DWIDTH 2 0
BBX 2 5 1 0
BITMAP
C0
C0
80
80
80
ENDCHAR
STARTCHAR 013F
ENCODING 319
SWIDTH 576 0
DWIDTH 4 0
BBX 3 5 1 0
BITMAP
80
80
C0
80
E0
ENDCHAR
STARTCHAR 0140
ENCODING 320
SWIDTH 288 0
DWIDTH 2 0
BBX 2 5 1 0
BITMAP
80
80
C0
80
80
ENDCHAR
STARTCHAR 0141
ENCODING 321
SWIDTH 576 0
DWIDTH 4 0
BBX 4 5 0 0
BITMAP
80
40
80
80
70
ENDCHAR
STARTCHAR 0142
ENCODING 322
SWIDTH 288 0
DWIDTH 2 0
BBX 2 5 0 0
BITMAP
80
40
80
80
80
ENDCHAR
STARTCHAR 0143
ENCODING 323
SWIDTH 720 0
DWIDTH 5 0
BBX 4 8 1 0
BITMAP
40
40
00
90
90
D0
B0
B0
ENDCHAR
STARTCHAR 0144
ENCODING 324
SWIDTH 576 0
DWIDTH 4 0
BBX 3 7 1 0
BITMAP
40
80
00
E0
A0
A0
A0
ENDCHAR
STARTCHAR 0145
ENCODING 325
SWIDTH 720 0
DWIDTH 5 0
BBX 4 8 1 -3
BITMAP
90
90
D0
B0
B0
40
40
40
ENDCHAR
STARTCHAR 0146
ENCODING 326
SWIDTH 576 0
DWIDTH 4 0
BBX 3 7 1 -3
BITMAP
E0
A0
A0
A0
40
40
40
ENDCHAR
STARTCHAR 0147
ENCODING 327
SWIDTH 720 0
DWIDTH 5 0
BBX 4 8 1 0
BITMAP
A0
40
00
90
90
D0
B0
B0
ENDCHAR
STARTCHAR 0148
ENCODING 328
SWIDTH 576 0
DWIDTH 4 0
BBX 3 7 1 0
BITMAP
C0
40
00
E0
A0
A0
A0
ENDCHAR
STARTCHAR 0149
ENCODING 329
SWIDTH 576 0
DWIDTH 4 0
BBX 5 5 0 0
BITMAP
80
B0
48
48
48
ENDCHAR
STARTCHAR 014A
ENCODING 330
SWIDTH 720 0
DWIDTH 5 0
BBX 4 6 1 -1
BITMAP
90
D0
D0
B0
B0
20
ENDCHAR
STARTCHAR 014B
ENCODING 331
SWIDTH 576 0
DWIDTH 4 0
BBX 3 5 1 -1
BITMAP
E0
A0
A0
A0
60
ENDCHAR
STARTCHAR 014C
ENCODING 332
SWIDTH 720 0
DWIDTH 5 0
BBX 5 7 0 0
BITMAP
30
00
70
88
88
88
70
ENDCHAR
STARTCHAR 014D
ENCODING 333
SWIDTH 576 0
DWIDTH 4 0
BBX 4 6 0 0
BITMAP
60
00
60
90
90
60
ENDCHAR
STARTCHAR 014E
ENCODING 334
SWIDTH 720 0
DWIDTH 5 0
BBX 5 8 0 0
BITMAP
10
20
00
70
88
88
88
70
ENDCHAR
STARTCHAR 014F
ENCODING 335
SWIDTH 576 0
DWIDTH 4 0
BBX 4 7 0 0
BITMAP
40
60
00
60
90
90
60
ENDCHAR
STARTCHAR 0150
ENCODING 336
SWIDTH 720 0
DWIDTH 5 0
BBX 5 8 0 0
BITMAP
30
30
00
70
88
88
88
70
ENDCHAR
STARTCHAR 0151
ENCODING 337
SWIDTH 576 0
DWIDTH 4 0
BBX 4 7 0 0
BITMAP
30
00
00
60
90
90
60
ENDCHAR
STARTCHAR 0152
ENCODING 338
SWIDTH 1008 0
DWIDTH 7 0
BBX 7 5 0 0
BITMAP
7E
88
8C
88
7E
ENDCHAR
STARTCHAR 0153
ENCODING 339
SWIDTH 1008 0
DWIDTH 7 0
BBX 6 4 0 0
BITMAP
7C
94
9C
6C
ENDCHAR
STARTCHAR 0154
ENCODING 340
SWIDTH 576 0
DWIDTH 4 0
BBX 3 8 1 0
BITMAP
40
80
00
C0
A0
C0
C0
A0
ENDCHAR
STARTCHAR 0155
ENCODING 341
SWIDTH 432 0
DWIDTH 3 0
BBX 2 7 1 0
BITMAP
80
80
00
C0
80
80
80
ENDCHAR
STARTCHAR 0156
ENCODING 342
SWIDTH 576 0
DWIDTH 4 0
BBX 3 8 1 -3
BITMAP
C0
A0
C0
C0
A0
40
40
40
ENDCHAR
STARTCHAR 0157
ENCODING 343
SWIDTH 432 0
DWIDTH 3 0
BBX 2 7 1 -3
BITMAP
C0
80
80
80
80
80
80
ENDCHAR
STARTCHAR 0158
ENCODING 344
SWIDTH 576 0
DWIDTH 4 0
BBX 3 8 1 0
BITMAP
C0
C0
00
C0
A0
C0
C0
A0
ENDCHAR
STARTCHAR 0159
ENCODING 345
SWIDTH 432 0
DWIDTH 3 0
BBX 2 7 1 0
BITMAP
C0
80
00
C0
80
80
80
ENDCHAR
STARTCHAR 015A
ENCODING 346
SWIDTH 576 0
DWIDTH 4 0
BBX 3 8 0 0
BITMAP
20
40
00
60
80
60
20
E0
ENDCHAR
STARTCHAR 015B
ENCODING 347
SWIDTH 576 0
DWIDTH 4 0
BBX 2 7 1 0
BITMAP
40
80
00
C0
80
40
C0
ENDCHAR
STARTCHAR 015C
ENCODING 348
SWIDTH 576 0
DWIDTH 4 0
BBX 3 8 0 0
BITMAP
40
A0
00
60
80
60
20
E0
ENDCHAR
STARTCHAR 015D
ENCODING 349
SWIDTH 576 0
DWIDTH 4 0
BBX 2 7 1 0
BITMAP
80
C0
00
C0
80
40
C0
ENDCHAR
STARTCHAR 015E
ENCODING 350
SWIDTH 576 0
DWIDTH 4 0
BBX 3 8 0 -3
BITMAP
60
80
60
20
E0
40
40
40
ENDCHAR
STARTCHAR 015F
ENCODING 351
SWIDTH 576 0
DWIDTH 4 0
BBX 2 7 1 -3
BITMAP
C0
80
40
C0
80
80
80
ENDCHAR
STARTCHAR 0160
ENCODING 352
SWIDTH 576 0
DWIDTH 4 0
BBX 3 8 0 0
BITMAP
60
60
00
60
80
60
20
E0
ENDCHAR
STARTCHAR 0161
ENCODING 353
SWIDTH 576 0
DWIDTH 4 0
BBX 2 7 1 0
BITMAP
C0
80
00
C0
80
40
C0
ENDCHAR
STARTCHAR 0162
ENCODING 354
SWIDTH 576 0
DWIDTH 4 0
BBX 4 8 0 -3
BITMAP
F0
20
20
20
20
20
20
20
ENDCHAR
STARTCHAR 0163
ENCODING 355
SWIDTH 432 0
DWIDTH 3 0
BBX 2 8 0 -3
BITMAP
80
C0
80
80
40
40
40
40
ENDCHAR
STARTCHAR 0164
ENCODING 356
SWIDTH 576 0
DWIDTH 4 0
BBX 4 8 0 0
BITMAP
60
20
00
F0
20
20
20
20
ENDCHAR
STARTCHAR 0165
ENCODING 357
SWIDTH 576 0
DWIDTH 4 0
BBX 3 6 0 0
BITMAP
20
A0
C0
80
80
40
ENDCHAR
STARTCHAR 0166
ENCODING 358
SWIDTH 576 0
DWIDTH 4 0
BBX 4 5 0 0
BITMAP
F0
20
70
20
20
ENDCHAR
STARTCHAR 0167
ENCODING 359
SWIDTH 432 0
DWIDTH 3 0
BBX 2 5 0 0
BITMAP
80
C0
C0
80
40
ENDCHAR
STARTCHAR 0168
ENCODING 360
SWIDTH 720 0
DWIDTH 5 0
BBX 3 8 1 0
BITMAP
A0
C0
00
A0
A0
A0
A0
E0
ENDCHAR
STARTCHAR 0169
ENCODING 361
SWIDTH 576 0
DWIDTH 4 0
BBX 3 7 1 0
BITMAP
80
40
00
A0
A0
A0
E0
ENDCHAR
STARTCHAR 016A
ENCODING 362
SWIDTH 720 0
DWIDTH 5 0
BBX 3 7 1 0
BITMAP
E0
00
A0
A0
A0
A0
E0
ENDCHAR
STARTCHAR 016B
ENCODING 363
SWIDTH 576 0
DWIDTH 4 0
BBX 3 6 1 0
BITMAP
C0
00
A0
A0
A0
E0
ENDCHAR
STARTCHAR 016C
ENCODING 364
SWIDTH 720 0
DWIDTH 5 0
BBX 3 8 1 0
BITMAP
A0
40
00
A0
A0
A0
A0
E0
ENDCHAR
STARTCHAR 016D
ENCODING 365
SWIDTH 576 0
DWIDTH 4 0
BBX 3 7 1 0
BITMAP
80
C0
00
A0
A0
A0
E0
ENDCHAR
STARTCHAR 016E
ENCODING 366
SWIDTH 720 0
DWIDTH 5 0
BBX 3 9 1 0
BITMAP
40
C0
40
00
A0
A0
A0
A0
E0
ENDCHAR
STARTCHAR 016F
ENCODING 367
SWIDTH 576 0
DWIDTH 4 0
BBX 3 8 1 0
BITMAP
40
C0
40
00
A0
A0
A0
E0
ENDCHAR
STARTCHAR 0170
ENCODING 368
SWIDTH 720 0
DWIDTH 5 0
BBX 3 8 1 0
BITMAP
60
20
00
A0
A0
A0
A0
E0
ENDCHAR
STARTCHAR 0171
ENCODING 369
SWIDTH 576 0
DWIDTH 4 0
BBX 3 7 1 0
BITMAP
60
00
00
A0
A0
A0
E0
ENDCHAR
STARTCHAR 0172
ENCODING 370
SWIDTH 720 0
DWIDTH 5 0
BBX 3 8 1 -3
BITMAP
A0
A0
A0
A0
E0
00
40
40
ENDCHAR
STARTCHAR 0173
ENCODING 371
SWIDTH 576 0
DWIDTH 4 0
BBX 3 7 1 -3
BITMAP
A0
A0
A0
E0
00
40
20
ENDCHAR
STARTCHAR 0174
ENCODING 372
SWIDTH 864 0
DWIDTH 6 0
BBX 6 8 0 0
BITMAP
30
30
00
94
B4
B8
78
48
ENDCHAR
STARTCHAR 0175
ENCODING 373
SWIDTH 720 0
DWIDTH 5 0
BBX 5 7 0 0
BITMAP
20
50
00
A8
B8
58
50
ENDCHAR
STARTCHAR 0176
ENCODING 374
SWIDTH 576 0
DWIDTH 4 0
BBX 4 8 0 0
BITMAP
20
60
00
90
60
20
40
40
ENDCHAR
STARTCHAR 0177
ENCODING 375
SWIDTH 576 0
DWIDTH 4 0
BBX 3 8 0 -1
BITMAP
40
A0
00
A0
A0
60
40
40
ENDCHAR
STARTCHAR 0178
ENCODING 376
SWIDTH 576 0
DWIDTH 4 0
BBX 4 7 0 0
BITMAP
60
00
90
60
20
40
40
ENDCHAR
STARTCHAR 0179
ENCODING 377
SWIDTH 576 0
DWIDTH 4 0
BBX 4 8 0 0
BITMAP
20
40
00
F0
20
20
40
F0
ENDCHAR
STARTCHAR 017A
ENCODING 378
SWIDTH 576 0
DWIDTH 4 0
BBX 4 7 0 0
BITMAP
20
40
00
70
20
40
F0
ENDCHAR
STARTCHAR 017B
ENCODING 379
SWIDTH 576 0
DWIDTH 4 0
BBX 4 7 0 0
BITMAP
20
00
F0
20
20
40
F0
ENDCHAR
STARTCHAR 017C
ENCODING 380
SWIDTH 576 0
DWIDTH 4 0
BBX 4 6 0 0
BITMAP
40
00
70
20
40
F0
ENDCHAR
STARTCHAR 017D
ENCODING 381
SWIDTH 576 0
DWIDTH 4 0
BBX 4 8 0 0
BITMAP
60
20
00
F0
20
20
40
F0
ENDCHAR
STARTCHAR 017E
ENCODING 382
SWIDTH 576 0
DWIDTH 4 0
BBX 4 7 0 0
BITMAP
60
60
00
70
20
40
F0
ENDCHAR
STARTCHAR 017F
ENCODING 383
SWIDTH 288 0
DWIDTH 2 0
BBX 3 5 0 0
BITMAP
60
80
80
80
80
ENDCHAR
STARTCHAR 0180
ENCODING 384
SWIDTH 576 0
DWIDTH 4 0
BBX 4 5 0 0
BITMAP
C0
B0
D0
90
70
ENDCHAR
STARTCHAR 0181
ENCODING 385
SWIDTH 720 0
DWIDTH 5 0
BBX 5 5 0 0
BITMAP
F0
D0
30
48
30
ENDCHAR
STARTCHAR 0182
ENCODING 386
SWIDTH 576 0
DWIDTH 4 0
BBX 3 5 1 0
BITMAP
C0
80
C0
A0
C0
ENDCHAR
STARTCHAR 0183
ENCODING 387
SWIDTH 576 0
DWIDTH 4 0
BBX 3 5 1 0
BITMAP
C0
E0
A0
A0
E0
ENDCHAR
STARTCHAR 0184
ENCODING 388
SWIDTH 576 0
DWIDTH 4 0
BBX 3 5 1 0
BITMAP
80
80
C0
A0
C0
ENDCHAR
STARTCHAR 0185
ENCODING 389
SWIDTH 432 0
DWIDTH 3 0
BBX 2 4 1 0
BITMAP
80
80
C0
C0
ENDCHAR
STARTCHAR 0186
ENCODING 390
SWIDTH 720 0
DWIDTH 5 0
BBX 4 5 0 0
BITMAP
F0
10
10
10
F0
ENDCHAR
STARTCHAR 0187
ENCODING 391
SWIDTH 720 0
DWIDTH 5 0
BBX 6 7 0 0
BITMAP
0C
10
70
80
80
80
70
ENDCHAR
STARTCHAR 0188
ENCODING 392
SWIDTH 576 0
DWIDTH 4 0
BBX 4 5 0 0
BITMAP
10
60
80
80
60
ENDCHAR
STARTCHAR 0189
ENCODING 393
SWIDTH 720 0
DWIDTH 5 0
BBX 5 5 0 0
BITMAP
70
88
E8
88
70
ENDCHAR
STARTCHAR 018A
ENCODING 394
SWIDTH 864 0
DWIDTH 6 0
BBX 6 5 0 0
BITMAP
F8
C4
44
44
38
ENDCHAR
STARTCHAR 018B
ENCODING 395
SWIDTH 576 0
DWIDTH 4 0
BBX 3 5 0 0
BITMAP
60
20
60
A0
60
ENDCHAR
STARTCHAR 018C
ENCODING 396
SWIDTH 576 0
DWIDTH 4 0
BBX 4 5 0 0
BITMAP
70
70
90
90
70
ENDCHAR
STARTCHAR 018D
ENCODING 397
SWIDTH 576 0
DWIDTH 4 0
BBX 4 5 0 0
BITMAP
60
90
A0
60
70
ENDCHAR
STARTCHAR 018E
ENCODING 398
SWIDTH 576 0
DWIDTH 4 0
BBX 3 5 0 0
BITMAP
E0
20
60
20
E0
ENDCHAR
STARTCHAR 018F
ENCODING 399
SWIDTH 720 0
DWIDTH 5 0
BBX 4 5 0 0
BITMAP
F0
10
F0
90
70
ENDCHAR
STARTCHAR 0190
ENCODING 400
SWIDTH 576 0
DWIDTH 4 0
BBX 3 5 0 0
BITMAP
60
80
60
80
60
ENDCHAR
STARTCHAR 0191
ENCODING 401
SWIDTH 576 0
DWIDTH 4 0
BBX 3 6 0 -1
BITMAP
60
80
60
80
80
80
ENDCHAR
STARTCHAR 0192
ENCODING 402
SWIDTH 432 0
DWIDTH 3 0
BBX 3 6 0 -1
BITMAP
60
E0
40
40
40
C0
ENDCHAR
STARTCHAR 0193
ENCODING 403
SWIDTH 720 0
DWIDTH 5 0
BBX 6 7 0 0
BITMAP
0C
10
70
80
80
90
70
ENDCHAR
STARTCHAR 0194
ENCODING 404
SWIDTH 720 0
DWIDTH 5 0
BBX 4 6 0 -1
BITMAP
90
50
60
20
20
60
ENDCHAR
STARTCHAR 0195
ENCODING 405
SWIDTH 864 0
DWIDTH 6 0
BBX 5 5 1 0
BITMAP
80
E8
A8
A8
B0
ENDCHAR
STARTCHAR 0196
ENCODING 406
SWIDTH 432 0
DWIDTH 3 0
BBX 2 5 1 0
BITMAP
80
80
80
80
C0
ENDCHAR
STARTCHAR 0197
ENCODING 407
SWIDTH 432 0
DWIDTH 3 0
BBX 2 5 0 0
BITMAP
40
40
C0
40
40
ENDCHAR
STARTCHAR 0198
ENCODING 408
SWIDTH 720 0
DWIDTH 5 0
BBX 4 5 1 0
BITMAP
B0
C0
80
C0
A0
ENDCHAR
STARTCHAR 0199
ENCODING 409
SWIDTH 576 0
DWIDTH 4 0
BBX 3 5 1 0
BITMAP
C0
C0
80
C0
A0
ENDCHAR
STARTCHAR 019A
ENCODING 410
SWIDTH 432 0
DWIDTH 3 0
BBX 2 5 0 0
BITMAP
40
40
C0
40
40
ENDCHAR
STARTCHAR 019B
ENCODING 411
SWIDTH 576 0
DWIDTH 4 0
BBX 4 5 0 0
BITMAP
E0
40
60
A0
90
ENDCHAR
STARTCHAR 019C
ENCODING 412
SWIDTH 1008 0
DWIDTH 7 0
BBX 6 5 1 0
BITMAP
A4
A4
A4
A4
DC
ENDCHAR
STARTCHAR 019D
ENCODING 413
SWIDTH 720 0
DWIDTH 5 0
BBX 5 6 0 -1
BITMAP
48
48
A8
98
98
80
ENDCHAR
STARTCHAR 019E
ENCODING 414
SWIDTH 576 0
DWIDTH 4 0
BBX 3 4 1 0
BITMAP
E0
A0
A0
A0
ENDCHAR
STARTCHAR 019F
ENCODING 415
SWIDTH 720 0
DWIDTH 5 0
BBX 5 5 0 0
BITMAP
70
88
F8
88
70
ENDCHAR
STARTCHAR 01A0
ENCODING 416
SWIDTH 720 0
DWIDTH 5 0
BBX 5 6 0 0
BITMAP
08
70
88
88
88
70
ENDCHAR
STARTCHAR 01A1
ENCODING 417
SWIDTH 576 0
DWIDTH 4 0
BBX 4 4 0 1
BITMAP
70
90
90
60
ENDCHAR
STARTCHAR 01A2
ENCODING 418
SWIDTH 1008 0
DWIDTH 7 0
BBX 7 6 0 -1
BITMAP
7E
8A
8A
8A
72
02
ENDCHAR
STARTCHAR 01A3
ENCODING 419
SWIDTH 864 0
DWIDTH 6 0
BBX 6 5 0 -1
BITMAP
78
94
94
64
04
ENDCHAR
STARTCHAR 01A4
ENCODING 420
SWIDTH 720 0
DWIDTH 5 0
BBX 5 5 0 0
BITMAP
F0
C8
30
40
40
ENDCHAR
STARTCHAR 01A5
ENCODING 421
SWIDTH 576 0
DWIDTH 4 0
BBX 3 6 1 -1
BITMAP
C0
E0
A0
A0
E0
80
ENDCHAR
STARTCHAR 01A6
ENCODING 422
SWIDTH 576 0
DWIDTH 4 0
BBX 3 7 1 -1
BITMAP
80
C0
A0
C0
C0
A0
20
ENDCHAR
STARTCHAR 01A7
ENCODING 423
SWIDTH 576 0
DWIDTH 4 0
BBX 3 5 0 0
BITMAP
60
20
40
80
60
ENDCHAR
STARTCHAR 01A8
ENCODING 424
SWIDTH 576 0
DWIDTH 4 0
BBX 2 4 1 0
BITMAP
C0
40
80
C0
ENDCHAR
STARTCHAR 01A9
ENCODING 425
SWIDTH 576 0
DWIDTH 4 0
BBX 4 5 0 0
BITMAP
F0
40
20
40
F0
ENDCHAR
STARTCHAR 01AA
ENCODING 426
SWIDTH 576 0
DWIDTH 4 0
BBX 4 6 0 -1
BITMAP
C0
E0
20
20
20
30
ENDCHAR
STARTCHAR 01AB
ENCODING 427
SWIDTH 432 0
DWIDTH 3 0
BBX 2 6 0 -1
BITMAP
80
C0
80
80
40
40
ENDCHAR
STARTCHAR 01AC
ENCODING 428
SWIDTH 720 0
DWIDTH 5 0
BBX 5 5 0 0
BITMAP
F8
A0
20
20
20
ENDCHAR
STARTCHAR 01AD
ENCODING 429
SWIDTH 432 0
DWIDTH 3 0
BBX 2 5 0 0
BITMAP
40
C0
80
80
40
ENDCHAR
STARTCHAR 01AE
ENCODING 430
SWIDTH 576 0
DWIDTH 4 0
BBX 4 6 0 -1
BITMAP
F0
20
20
20
20
30
ENDCHAR
STARTCHAR 01AF
ENCODING 431
SWIDTH 864 0
DWIDTH 6 0
BBX 5 6 1 0
BITMAP
08
B0
A0
A0
A0
E0
ENDCHAR
STARTCHAR 01B0
ENCODING 432
SWIDTH 720 0
DWIDTH 5 0
BBX 4 4 1 1
BITMAP
B0
A0
A0
E0
ENDCHAR
STARTCHAR 01B1
ENCODING 433
SWIDTH 720 0
DWIDTH 5 0
BBX 5 5 0 0
BITMAP
D8
50
88
88
70
ENDCHAR
STARTCHAR 01B2
ENCODING 434
SWIDTH 720 0
DWIDTH 5 0
BBX 3 5 1 0
BITMAP
A0
A0
A0
A0
E0
ENDCHAR
STARTCHAR 01B3
ENCODING 435
SWIDTH 576 0
DWIDTH 4 0
BBX 4 5 0 0
BITMAP
D0
50
20
20
20
ENDCHAR
STARTCHAR 01B4
ENCODING 436
SWIDTH 720 0
DWIDTH 5 0
BBX 5 6 0 -1
BITMAP
18
90
A0
60
40
40
ENDCHAR
STARTCHAR 01B5
ENCODING 437
SWIDTH 576 0
DWIDTH 4 0
BBX 4 5 0 0
BITMAP
F0
20
70
40
F0
ENDCHAR
STARTCHAR 01B6
ENCODING 438
SWIDTH 576 0
DWIDTH 4 0
BBX 4 4 0 0
BITMAP
70
20
60
F0
ENDCHAR
STARTCHAR 01B7
ENCODING 439
SWIDTH 576 0
DWIDTH 4 0
BBX 3 5 0 0
BITMAP
E0
40
60
20
E0
ENDCHAR
STARTCHAR 01B8
ENCODING 440
SWIDTH 576 0
DWIDTH 4 0
BBX 4 5 0 0
BITMAP
70
40
60
80
70
ENDCHAR
STARTCHAR 01B9
ENCODING 441
SWIDTH 576 0
DWIDTH 4 0
BBX 3 5 0 -1
BITMAP
E0
40
60
80
60
ENDCHAR
STARTCHAR 01BA
ENCODING 442
SWIDTH 576 0
DWIDTH 4 0
BBX 3 5 0 -1
BITMAP
E0
40
60
60
E0
ENDCHAR
STARTCHAR 01BB
ENCODING 443
SWIDTH 576 0
DWIDTH 4 0
BBX 3 5 1 0
BITMAP
C0
20
40
E0
E0
ENDCHAR
STARTCHAR 01BC
ENCODING 444
SWIDTH 576 0
DWIDTH 4 0
BBX 3 5 1 0
BITMAP
E0
80
C0
20
C0
ENDCHAR
STARTCHAR 01BD
ENCODING 445
SWIDTH 432 0
DWIDTH 3 0
BBX 2 4 1 0
BITMAP
C0
80
40
C0
ENDCHAR
STARTCHAR 01BE
ENCODING 446
SWIDTH 432 0
DWIDTH 3 0
BBX 3 5 0 0
BITMAP
40
E0
40
20
E0
ENDCHAR
STARTCHAR 01BF
ENCODING 447
SWIDTH 576 0
DWIDTH 4 0
BBX 3 5 1 -1
BITMAP
E0
A0
C0
80
80
ENDCHAR
STARTCHAR 01C0
ENCODING 448
SWIDTH 288 0
DWIDTH 2 0
BBX 1 3 0 1
BITMAP
80
80
80
ENDCHAR
STARTCHAR 01C1
ENCODING 449
SWIDTH 432 0
DWIDTH 3 0
BBX 1 3 1 1
BITMAP
80
80
80
ENDCHAR
STARTCHAR 01C2
ENCODING 450
SWIDTH 720 0
DWIDTH 5 0
BBX 4 3 0 1
BITMAP
F0
40
F0
ENDCHAR
STARTCHAR 01C3
ENCODING 451
SWIDTH 288 0
DWIDTH 2 0
BBX 1 5 1 0
BITMAP
80
80
80
00
80
ENDCHAR
STARTCHAR 01C4
ENCODING 452
SWIDTH 1296 0
DWIDTH 9 0
BBX 8 8 1 0
BITMAP
0A
04
00
EF
92
94
98
EF
ENDCHAR
STARTCHAR 01C5
ENCODING 453
SWIDTH 1296 0
DWIDTH 9 0
BBX 8 7 1 0
BITMAP
06
02
E0
97
92
94
EF
ENDCHAR
STARTCHAR 01C6
ENCODING 454
SWIDTH 1152 0
DWIDTH 8 0
BBX 8 7 0 0
BITMAP
06
02
10
77
92
94
7F
ENDCHAR
STARTCHAR 01C7
ENCODING 455
SWIDTH 864 0
DWIDTH 6 0
BBX 4 6 1 -1
BITMAP
90
90
90
90
F0
30
ENDCHAR
STARTCHAR 01C8
ENCODING 456
SWIDTH 864 0
DWIDTH 6 0
BBX 4 6 1 -1
BITMAP
90
90
90
90
F0
30
ENDCHAR
STARTCHAR 01C9
ENCODING 457
SWIDTH 576 0
DWIDTH 4 0
BBX 2 6 1 -1
BITMAP
C0
C0
C0
C0
C0
C0
ENDCHAR
STARTCHAR 01CA
ENCODING 458
SWIDTH 1008 0
DWIDTH 7 0
BBX 5 6 1 -1
BITMAP
98
98
D8
B8
B8
18
ENDCHAR
STARTCHAR 01CB
ENCODING 459
SWIDTH 1008 0
DWIDTH 7 0
BBX 5 6 1 -1
BITMAP
98
98
D8
B8
B8
18
ENDCHAR
STARTCHAR 01CC
ENCODING 460
SWIDTH 864 0
DWIDTH 6 0
BBX 4 6 1 -1
BITMAP
10
F0
B0
B0
B0
30
ENDCHAR
STARTCHAR 01CD
ENCODING 461
SWIDTH 720 0
DWIDTH 5 0
BBX 5 8 0 0
BITMAP
60
20
00
20
60
50
70
88
ENDCHAR
STARTCHAR 01CE
ENCODING 462
SWIDTH 576 0
DWIDTH 4 0
BBX 4 7 0 0
BITMAP
60
60
00
60
20
60
F0
ENDCHAR
STARTCHAR 01CF
ENCODING 463
SWIDTH 288 0
DWIDTH 2 0
BBX 2 6 0 0
BITMAP
C0
C0
80
80
80
80
ENDCHAR
STARTCHAR 01D0
ENCODING 464
SWIDTH 288 0
DWIDTH 2 0
BBX 2 7 0 0
BITMAP
C0
C0
00
80
80
80
80
ENDCHAR
STARTCHAR 01D1
ENCODING 465
SWIDTH 720 0
DWIDTH 5 0
BBX 5 8 0 0
BITMAP
50
20
00
70
88
88
88
70
ENDCHAR
STARTCHAR 01D2
ENCODING 466
SWIDTH 576 0
DWIDTH 4 0
BBX 4 7 0 0
BITMAP
60
20
00
60
90
90
60
ENDCHAR
STARTCHAR 01D3
ENCODING 467
SWIDTH 720 0
DWIDTH 5 0
BBX 3 8 1 0
BITMAP
C0
40
00
A0
A0
A0
A0
E0
ENDCHAR
STARTCHAR 01D4
ENCODING 468
SWIDTH 576 0
DWIDTH 4 0
BBX 3 7 1 0
BITMAP
C0
40
00
A0
A0
A0
E0
ENDCHAR
STARTCHAR 01D5
ENCODING 469
SWIDTH 720 0
DWIDTH 5 0
BBX 3 9 1 0
BITMAP
E0
00
C0
00
A0
A0
A0
A0
E0
ENDCHAR
STARTCHAR 01D6
ENCODING 470
SWIDTH 576 0
DWIDTH 4 0
BBX 3 8 1 0
BITMAP
C0
00
C0
00
A0
A0
A0
E0
ENDCHAR
STARTCHAR 01D7
ENCODING 471
SWIDTH 720 0
DWIDTH 5 0
BBX 3 10 1 0
BITMAP
40
40
00
C0
00
A0
A0
A0
A0
E0
ENDCHAR
STARTCHAR 01D8
ENCODING 472
SWIDTH 576 0
DWIDTH 4 0
BBX 3 9 1 0
BITMAP
40
80
00
C0
00
A0
A0
A0
E0
ENDCHAR
STARTCHAR 01D9
ENCODING 473
SWIDTH 720 0
DWIDTH 5 0
BBX 3 8 1 0
BITMAP
C0
C0
00
A0
A0
A0
A0
E0
ENDCHAR
STARTCHAR 01DA
ENCODING 474
SWIDTH 576 0
DWIDTH 4 0
BBX 3 7 1 0
BITMAP
C0
C0
00
A0
A0
A0
E0
ENDCHAR
STARTCHAR 01DB
ENCODING 475
SWIDTH 720 0
DWIDTH 5 0
BBX 3 10 1 0
BITMAP
80
40
00
C0
00
A0
A0
A0
A0
E0
ENDCHAR
STARTCHAR 01DC
ENCODING 476
SWIDTH 576 0
DWIDTH 4 0
BBX 3 9 1 0
BITMAP
80
80
00
C0
00
A0
A0
A0
E0
ENDCHAR
STARTCHAR 01DD
ENCODING 477
SWIDTH 576 0
DWIDTH 4 0
BBX 3 4 0 0
BITMAP
60
60
A0
60
ENDCHAR
STARTCHAR 01DE
ENCODING 478
SWIDTH 720 0
DWIDTH 5 0
BBX 5 9 0 0
BITMAP
70
00
60
00
20
60
50
70
88
ENDCHAR
STARTCHAR 01DF
ENCODING 479
SWIDTH 576 0
DWIDTH 4 0
BBX 4 8 0 0
BITMAP
60
00
60
00
60
20
60
F0
ENDCHAR
STARTCHAR 01E0
ENCODING 480
SWIDTH 720 0
DWIDTH 5 0
BBX 5 9 0 0
BITMAP
70
00
20
00
20
60
50
70
88
ENDCHAR
STARTCHAR 01E1
ENCODING 481
SWIDTH 576 0
DWIDTH 4 0
BBX 4 8 0 0
BITMAP
60
00
40
00
60
20
60
F0
ENDCHAR
STARTCHAR 01E2
ENCODING 482
SWIDTH 864 0
DWIDTH 6 0
BBX 6 7 0 0
BITMAP
18
00
1C
30
5C
70
9C
ENDCHAR
STARTCHAR 01E3
ENCODING 483
SWIDTH 864 0
DWIDTH 6 0
BBX 5 6 0 0
BITMAP
30
00
78
28
78
F8
ENDCHAR
STARTCHAR 01E4
ENCODING 484
SWIDTH 864 0
DWIDTH 6 0
BBX 5 5 0 0
BITMAP
70
80
80
90
78
ENDCHAR
STARTCHAR 01E5
ENCODING 485
SWIDTH 720 0
DWIDTH 5 0
BBX 5 5 0 -1
BITMAP
70
90
B8
70
70
ENDCHAR
STARTCHAR 01E6
ENCODING 486
SWIDTH 720 0
DWIDTH 5 0
BBX 4 8 0 0
BITMAP
50
20
00
70
80
80
90
70
ENDCHAR
STARTCHAR 01E7
ENCODING 487
SWIDTH 576 0
DWIDTH 4 0
BBX 4 8 0 -1
BITMAP
60
60
00
70
90
90
70
60
ENDCHAR
STARTCHAR 01E8
ENCODING 488
SWIDTH 720 0
DWIDTH 5 0
BBX 3 8 1 0
BITMAP
C0
40
00
A0
C0
80
C0
A0
ENDCHAR
STARTCHAR 01E9
ENCODING 489
SWIDTH 576 0
DWIDTH 4 0
BBX 3 8 1 0
BITMAP
C0
40
00
80
C0
80
C0
A0
ENDCHAR
STARTCHAR 01EA
ENCODING 490
SWIDTH 720 0
DWIDTH 5 0
BBX 5 8 0 -3
BITMAP
70
88
88
88
70
00
20
30
ENDCHAR
STARTCHAR 01EB
ENCODING 491
SWIDTH 576 0
DWIDTH 4 0
BBX 4 7 0 -3
BITMAP
60
90
90
60
00
40
20
ENDCHAR
STARTCHAR 01EC
ENCODING 492
SWIDTH 720 0
DWIDTH 5 0
BBX 5 10 0 -3
BITMAP
30
00
70
88
88
88
70
00
20
30
ENDCHAR
STARTCHAR 01ED
ENCODING 493
SWIDTH 576 0
DWIDTH 4 0
BBX 4 9 0 -3
BITMAP
60
00
60
90
90
60
00
40
20
ENDCHAR
STARTCHAR 01EE
ENCODING 494
SWIDTH 576 0
DWIDTH 4 0
BBX 3 8 0 0
BITMAP
A0
40
00
E0
40
60
20
E0
ENDCHAR
STARTCHAR 01EF
ENCODING 495
SWIDTH 576 0
DWIDTH 4 0
BBX 3 8 0 -1
BITMAP
A0
40
00
E0
40
60
20
E0
ENDCHAR
STARTCHAR 01F0
ENCODING 496
SWIDTH 288 0
DWIDTH 2 0
BBX 3 7 -1 -1
BITMAP
60
20
40
40
40
40
C0
ENDCHAR
STARTCHAR 01FA
ENCODING 506
SWIDTH 720 0
DWIDTH 5 0
BBX 5 9 0 0
BITMAP
20
20
60
20
20
60
50
70
88
ENDCHAR
STARTCHAR 01FB
ENCODING 507
SWIDTH 576 0
DWIDTH 4 0
BBX 4 8 0 0
BITMAP
20
60
A0
60
60
20
60
F0
ENDCHAR
STARTCHAR 01FC
ENCODING 508
SWIDTH 864 0
DWIDTH 6 0
BBX 6 7 0 0
BITMAP
08
10
1C
30
5C
70
9C
ENDCHAR
STARTCHAR 01FD
ENCODING 509
SWIDTH 864 0
DWIDTH 6 0
BBX 5 6 0 0
BITMAP
10
20
78
28
78
F8
ENDCHAR
STARTCHAR 01FE
ENCODING 510
SWIDTH 720 0
DWIDTH 5 0
BBX 5 7 0 0
BITMAP
10
20
78
98
A8
48
70
ENDCHAR
STARTCHAR 01FF
ENCODING 511
SWIDTH 576 0
DWIDTH 4 0
BBX 4 6 0 0
BITMAP
20
40
70
B0
D0
60
ENDCHAR
STARTCHAR 0218
ENCODING 536
SWIDTH 576 0
DWIDTH 4 0
BBX 3 7 0 -2
BITMAP
60
80
60
20
E0
40
40
ENDCHAR
STARTCHAR 0219
ENCODING 537
SWIDTH 576 0
DWIDTH 4 0
BBX 2 6 1 -2
BITMAP
C0
80
40
C0
80
80
ENDCHAR
STARTCHAR 021A
ENCODING 538
SWIDTH 576 0
DWIDTH 4 0
BBX 4 7 0 -2
BITMAP
F0
20
20
20
20
20
40
ENDCHAR
STARTCHAR 021B
ENCODING 539
SWIDTH 432 0
DWIDTH 3 0
BBX 2 7 0 -2
BITMAP
80
C0
80
80
40
40
40
ENDCHAR
STARTCHAR 0250
ENCODING 592
SWIDTH 576 0
DWIDTH 4 0
BBX 3 4 0 0
BITMAP
E0
60
80
60
ENDCHAR
STARTCHAR 0251
ENCODING 593
SWIDTH 576 0
DWIDTH 4 0
BBX 4 4 0 0
BITMAP
70
90
90
70
ENDCHAR
STARTCHAR 0252
ENCODING 594
SWIDTH 576 0
DWIDTH 4 0
BBX 3 4 1 0
BITMAP
E0
A0
A0
C0
ENDCHAR
STARTCHAR 0253
ENCODING 595
SWIDTH 576 0
DWIDTH 4 0
BBX 3 5 1 0
BITMAP
C0
E0
A0
A0
E0
ENDCHAR
STARTCHAR 0254
ENCODING 596
SWIDTH 576 0
DWIDTH 4 0
BBX 3 4 0 0
BITMAP
E0
20
20
E0
ENDCHAR
STARTCHAR 0255
ENCODING 597
SWIDTH 576 0
DWIDTH 4 0
BBX 4 5 0 -1
BITMAP
60
80
B0
60
80
ENDCHAR
STARTCHAR 0256
ENCODING 598
SWIDTH 576 0
DWIDTH 4 0
BBX 5 6 0 -1
BITMAP
10
70
90
90
70
18
ENDCHAR
STARTCHAR 0257
ENCODING 599
SWIDTH 576 0
DWIDTH 4 0
BBX 5 5 0 0
BITMAP
18
70
90
90
70
ENDCHAR
STARTCHAR 0258
ENCODING 600
SWIDTH 576 0
DWIDTH 4 0
BBX 3 4 0 0
BITMAP
60
A0
60
60
ENDCHAR
STARTCHAR 0259
ENCODING 601
SWIDTH 576 0
DWIDTH 4 0
BBX 3 4 0 0
BITMAP
60
60
A0
60
ENDCHAR
STARTCHAR 025A
ENCODING 602
SWIDTH 864 0
DWIDTH 6 0
BBX 5 4 0 0
BITMAP
E8
38
68
60
ENDCHAR
STARTCHAR 025B
ENCODING 603
SWIDTH 432 0
DWIDTH 3 0
BBX 3 4 0 0
BITMAP
60
80
60
60
ENDCHAR
STARTCHAR 025C
ENCODING 604
SWIDTH 432 0
DWIDTH 3 0
BBX 3 4 0 0
BITMAP
60
A0
C0
60
ENDCHAR
STARTCHAR 025D
ENCODING 605
SWIDTH 720 0
DWIDTH 5 0
BBX 5 4 0 0
BITMAP
70
B8
40
E0
ENDCHAR
STARTCHAR 025E
ENCODING 606
SWIDTH 576 0
DWIDTH 4 0
BBX 4 4 0 0
BITMAP
60
90
A0
70
ENDCHAR
STARTCHAR 025F
ENCODING 607
SWIDTH 432 0
DWIDTH 3 0
BBX 3 5 0 -1
BITMAP
40
E0
40
40
C0
ENDCHAR
STARTCHAR 0260
ENCODING 608
SWIDTH 576 0
DWIDTH 4 0
BBX 5 6 0 -1
BITMAP
18
70
90
90
70
60
ENDCHAR
STARTCHAR 0261
ENCODING 609
SWIDTH 576 0
DWIDTH 4 0
BBX 4 5 0 -1
BITMAP
70
90
90
70
60
ENDCHAR
STARTCHAR 0262
ENCODING 610
SWIDTH 576 0
DWIDTH 4 0
BBX 4 4 0 0
BITMAP
70
80
90
70
ENDCHAR
STARTCHAR 0263
ENCODING 611
SWIDTH 576 0
DWIDTH 4 0
BBX 4 5 0 -1
BITMAP
90
60
40
A0
60
ENDCHAR
STARTCHAR 0264
ENCODING 612
SWIDTH 576 0
DWIDTH 4 0
BBX 4 4 0 0
BITMAP
90
60
A0
60
ENDCHAR
STARTCHAR 0265
ENCODING 613
SWIDTH 576 0
DWIDTH 4 0
BBX 3 5 1 -1
BITMAP
A0
A0
A0
E0
20
ENDCHAR
STARTCHAR 0266
ENCODING 614
SWIDTH 576 0
DWIDTH 4 0
BBX 3 5 1 0
BITMAP
C0
E0
A0
A0
A0
ENDCHAR
STARTCHAR 0267
ENCODING 615
SWIDTH 576 0
DWIDTH 4 0
BBX 3 6 1 -1
BITMAP
C0
E0
A0
A0
A0
60
ENDCHAR
STARTCHAR 0268
ENCODING 616
SWIDTH 432 0
DWIDTH 3 0
BBX 3 5 0 0
BITMAP
40
40
E0
40
40
ENDCHAR
STARTCHAR 0269
ENCODING 617
SWIDTH 432 0
DWIDTH 3 0
BBX 1 4 1 0
BITMAP
80
80
80
80
ENDCHAR
STARTCHAR 026A
ENCODING 618
SWIDTH 432 0
DWIDTH 3 0
BBX 2 4 0 0
BITMAP
C0
40
40
C0
ENDCHAR
STARTCHAR 026B
ENCODING 619
SWIDTH 576 0
DWIDTH 4 0
BBX 3 5 0 0
BITMAP
40
E0
E0
40
40
ENDCHAR
STARTCHAR 026C
ENCODING 620
SWIDTH 576 0
DWIDTH 4 0
BBX 4 5 0 0
BITMAP
20
E0
F0
20
20
ENDCHAR
STARTCHAR 026D
ENCODING 621
SWIDTH 288 0
DWIDTH 2 0
BBX 1 6 1 -1
BITMAP
80
80
80
80
80
80
ENDCHAR
STARTCHAR 026E
ENCODING 622
SWIDTH 720 0
DWIDTH 5 0
BBX 3 6 1 -1
BITMAP
80
E0
C0
E0
A0
60
ENDCHAR
STARTCHAR 026F
ENCODING 623
SWIDTH 1008 0
DWIDTH 7 0
BBX 5 4 1 0
BITMAP
28
A8
A8
F8
ENDCHAR
STARTCHAR 0270
ENCODING 624
SWIDTH 1008 0
DWIDTH 7 0
BBX 5 5 1 -1
BITMAP
A8
A8
A8
F8
08
ENDCHAR
STARTCHAR 0271
ENCODING 625
SWIDTH 1008 0
DWIDTH 7 0
BBX 5 5 1 -1
BITMAP
D8
A8
A8
A8
18
ENDCHAR
STARTCHAR 0272
ENCODING 626
SWIDTH 576 0
DWIDTH 4 0
BBX 4 5 0 -1
BITMAP
B0
50
90
90
80
ENDCHAR
STARTCHAR 0273
ENCODING 627
SWIDTH 576 0
DWIDTH 4 0
BBX 4 5 1 -1
BITMAP
E0
A0
A0
A0
30
ENDCHAR
STARTCHAR 0274
ENCODING 628
SWIDTH 576 0
DWIDTH 4 0
BBX 3 4 1 0
BITMAP
A0
A0
E0
A0
ENDCHAR
STARTCHAR 0275
ENCODING 629
SWIDTH 576 0
DWIDTH 4 0
BBX 4 4 0 0
BITMAP
60
90
F0
60
ENDCHAR
STARTCHAR 0276
ENCODING 630
SWIDTH 864 0
DWIDTH 6 0
BBX 5 4 0 0
BITMAP
78
90
98
78
ENDCHAR
STARTCHAR 0277
ENCODING 631
SWIDTH 864 0
DWIDTH 6 0
BBX 5 4 0 0
BITMAP
70
A8
A8
78
ENDCHAR
STARTCHAR 0278
ENCODING 632
SWIDTH 720 0
DWIDTH 5 0
BBX 5 6 0 -1
BITMAP
20
20
78
A8
78
20
ENDCHAR
STARTCHAR 0279
ENCODING 633
SWIDTH 432 0
DWIDTH 3 0
BBX 2 4 0 0
BITMAP
40
40
40
C0
ENDCHAR
STARTCHAR 027A
ENCODING 634
SWIDTH 432 0
DWIDTH 3 0
BBX 2 5 0 0
BITMAP
40
40
40
40
C0
ENDCHAR
STARTCHAR 027B
ENCODING 635
SWIDTH 432 0
DWIDTH 3 0
BBX 3 5 0 -1
BITMAP
40
40
40
C0
20
ENDCHAR
STARTCHAR 027C
ENCODING 636
SWIDTH 432 0
DWIDTH 3 0
BBX 2 5 1 -1
BITMAP
C0
80
80
80
80
ENDCHAR
STARTCHAR 027D
ENCODING 637
SWIDTH 432 0
DWIDTH 3 0
BBX 2 5 1 -1
BITMAP
C0
80
80
80
80
ENDCHAR
STARTCHAR 027E
ENCODING 638
SWIDTH 432 0
DWIDTH 3 0
BBX 2 4 1 0
BITMAP
C0
80
80
80
ENDCHAR
STARTCHAR 027F
ENCODING 639
SWIDTH 432 0
DWIDTH 3 0
BBX 2 4 0 0
BITMAP
C0
40
40
40
ENDCHAR
STARTCHAR 0280
ENCODING 640
SWIDTH 576 0
DWIDTH 4 0
BBX 2 4 1 0
BITMAP
C0
C0
C0
C0
ENDCHAR
STARTCHAR 0281
ENCODING 641
SWIDTH 576 0
DWIDTH 4 0
BBX 2 4 1 0
BITMAP
C0
C0
C0
C0
ENDCHAR
STARTCHAR 0282
ENCODING 642
SWIDTH 576 0
DWIDTH 4 0
BBX 2 5 1 -1
BITMAP
C0
80
40
C0
80
ENDCHAR
STARTCHAR 0283
ENCODING 643
SWIDTH 432 0
DWIDTH 3 0
BBX 3 6 0 -1
BITMAP
60
40
40
40
40
C0
ENDCHAR
STARTCHAR 0284
ENCODING 644
SWIDTH 432 0
DWIDTH 3 0
BBX 3 6 0 -1
BITMAP
60
40
E0
40
E0
C0
ENDCHAR
STARTCHAR 0285
ENCODING 645
SWIDTH 432 0
DWIDTH 3 0
BBX 3 5 0 0
BITMAP
C0
40
40
40
60
ENDCHAR
STARTCHAR 0286
ENCODING 646
SWIDTH 576 0
DWIDTH 4 0
BBX 4 6 0 -1
BITMAP
30
40
40
40
E0
C0
ENDCHAR
STARTCHAR 0287
ENCODING 647
SWIDTH 432 0
DWIDTH 3 0
BBX 2 5 0 -1
BITMAP
C0
40
40
C0
40
ENDCHAR
STARTCHAR 0288
ENCODING 648
SWIDTH 432 0
DWIDTH 3 0
BBX 2 6 0 -1
BITMAP
80
C0
80
80
80
40
ENDCHAR
STARTCHAR 0289
ENCODING 649
SWIDTH 720 0
DWIDTH 5 0
BBX 5 4 0 0
BITMAP
90
F8
90
70
ENDCHAR
STARTCHAR 028A
ENCODING 650
SWIDTH 720 0
DWIDTH 5 0
BBX 4 4 0 0
BITMAP
D0
90
90
70
ENDCHAR
STARTCHAR 028B
ENCODING 651
SWIDTH 576 0
DWIDTH 4 0
BBX 4 4 0 0
BITMAP
90
90
60
60
ENDCHAR
STARTCHAR 028C
ENCODING 652
SWIDTH 576 0
DWIDTH 4 0
BBX 3 4 0 0
BITMAP
40
60
A0
A0
ENDCHAR
STARTCHAR 028D
ENCODING 653
SWIDTH 720 0
DWIDTH 5 0
BBX 5 4 0 0
BITMAP
50
58
B8
A8
ENDCHAR
STARTCHAR 028E
ENCODING 654
SWIDTH 576 0
DWIDTH 4 0
BBX 3 5 0 0
BITMAP
20
40
60
A0
A0
ENDCHAR
STARTCHAR 028F
ENCODING 655
SWIDTH 432 0
DWIDTH 3 0
BBX 3 4 0 0
BITMAP
A0
40
40
40
ENDCHAR
STARTCHAR 0290
ENCODING 656
SWIDTH 576 0
DWIDTH 4 0
BBX 5 5 0 -1
BITMAP
70
20
40
F0
18
ENDCHAR
STARTCHAR 0291
ENCODING 657
SWIDTH 720 0
DWIDTH 5 0
BBX 5 5 0 -1
BITMAP
F0
20
58
F8
40
ENDCHAR
STARTCHAR 0292
ENCODING 658
SWIDTH 576 0
DWIDTH 4 0
BBX 3 5 0 -1
BITMAP
E0
40
60
20
E0
ENDCHAR
STARTCHAR 0293
ENCODING 659
SWIDTH 576 0
DWIDTH 4 0
BBX 3 5 0 -2
BITMAP
60
40
60
E0
E0
ENDCHAR
STARTCHAR 0294
ENCODING 660
SWIDTH 432 0
DWIDTH 3 0
BBX 3 5 0 0
BITMAP
E0
20
40
40
40
ENDCHAR
STARTCHAR 0295
ENCODING 661
SWIDTH 432 0
DWIDTH 3 0
BBX 3 5 0 0
BITMAP
E0
80
40
40
40
ENDCHAR
STARTCHAR 0296
ENCODING 662
SWIDTH 432 0
DWIDTH 3 0
BBX 3 5 0 0
BITMAP
80
80
40
20
E0
ENDCHAR
STARTCHAR 0297
ENCODING 663
SWIDTH 432 0
DWIDTH 3 0
BBX 3 6 0 -2
BITMAP
60
80
80
80
80
60
ENDCHAR
STARTCHAR 0298
ENCODING 664
SWIDTH 720 0
DWIDTH 5 0
BBX 4 4 0 0
BITMAP
70
90
B0
70
ENDCHAR
STARTCHAR 0299
ENCODING 665
SWIDTH 576 0
DWIDTH 4 0
BBX 2 4 1 0
BITMAP
C0
C0
C0
C0
ENDCHAR
STARTCHAR 029A
ENCODING 666
SWIDTH 576 0
DWIDTH 4 0
BBX 4 4 0 0
BITMAP
60
90
50
E0
ENDCHAR
STARTCHAR 029B
ENCODING 667
SWIDTH 576 0
DWIDTH 4 0
BBX 5 5 0 0
BITMAP
18
70
80
90
70
ENDCHAR
STARTCHAR 029C
ENCODING 668
SWIDTH 576 0
DWIDTH 4 0
BBX 3 4 1 0
BITMAP
A0
A0
E0
A0
ENDCHAR
STARTCHAR 029D
ENCODING 669
SWIDTH 432 0
DWIDTH 3 0
BBX 3 6 0 -1
BITMAP
40
40
40
40
E0
C0
ENDCHAR
STARTCHAR 029E
ENCODING 670
SWIDTH 576 0
DWIDTH 4 0
BBX 3 5 0 -1
BITMAP
A0
60
60
60
20
ENDCHAR
STARTCHAR 029F
ENCODING 671
SWIDTH 432 0
DWIDTH 3 0
BBX 2 4 1 0
BITMAP
80
80
80
C0
ENDCHAR
STARTCHAR 02A0
ENCODING 672
SWIDTH 576 0
DWIDTH 4 0
BBX 5 6 0 -1
BITMAP
18
70
90
90
70
10
ENDCHAR
STARTCHAR 02A1
ENCODING 673
SWIDTH 432 0
DWIDTH 3 0
BBX 3 5 0 0
BITMAP
E0
20
40
E0
40
ENDCHAR
STARTCHAR 02A2
ENCODING 674
SWIDTH 432 0
DWIDTH 3 0
BBX 3 5 0 0
BITMAP
E0
80
40
E0
40
ENDCHAR
STARTCHAR 02A3
ENCODING 675
SWIDTH 1008 0
DWIDTH 7 0
BBX 7 5 0 0
BITMAP
10
7E
94
98
7E
ENDCHAR
STARTCHAR 02A4
ENCODING 676
SWIDTH 1008 0
DWIDTH 7 0
BBX 7 6 0 -1
BITMAP
10
7E
94
9C
72
0C
ENDCHAR
STARTCHAR 02A5
ENCODING 677
SWIDTH 1152 0
DWIDTH 8 0
BBX 8 6 0 -1
BITMAP
10
7E
94
9B
7F
04
ENDCHAR
STARTCHAR 02A6
ENCODING 678
SWIDTH 864 0
DWIDTH 6 0
BBX 5 5 0 0
BITMAP
80
F8
90
88
58
ENDCHAR
STARTCHAR 02A7
ENCODING 679
SWIDTH 720 0
DWIDTH 5 0
BBX 5 6 0 -1
BITMAP
98
F0
90
90
50
30
ENDCHAR
STARTCHAR 02A8
ENCODING 680
SWIDTH 864 0
DWIDTH 6 0
BBX 6 6 0 -1
BITMAP
80
F8
A0
9C
5C
10
ENDCHAR
STARTCHAR 02B0
ENCODING 688
SWIDTH 432 0
DWIDTH 3 0
BBX 2 3 0 3
BITMAP
80
C0
C0
ENDCHAR
STARTCHAR 02B1
ENCODING 689
SWIDTH 432 0
DWIDTH 3 0
BBX 2 3 0 3
BITMAP
40
C0
C0
ENDCHAR
STARTCHAR 02B2
ENCODING 690
SWIDTH 288 0
DWIDTH 2 0
BBX 1 4 0 2
BITMAP
80
80
80
80
ENDCHAR
STARTCHAR 02B3
ENCODING 691
SWIDTH 288 0
DWIDTH 2 0
BBX 2 2 0 3
BITMAP
C0
80
ENDCHAR
STARTCHAR 02B4
ENCODING 692
SWIDTH 288 0
DWIDTH 2 0
BBX 1 2 0 3
BITMAP
80
80
ENDCHAR
STARTCHAR 02B5
ENCODING 693
SWIDTH 288 0
DWIDTH 2 0
BBX 2 3 0 2
BITMAP
80
80
40
ENDCHAR
STARTCHAR 02B6
ENCODING 694
SWIDTH 288 0
DWIDTH 2 0
BBX 2 2 0 3
BITMAP
C0
C0
ENDCHAR
STARTCHAR 02B7
ENCODING 695
SWIDTH 432 0
DWIDTH 3 0
BBX 3 2 0 3
BITMAP
C0
A0
ENDCHAR
STARTCHAR 02B8
ENCODING 696
SWIDTH 288 0
DWIDTH 2 0
BBX 2 2 0 2
BITMAP
80
40
ENDCHAR
STARTCHAR 02B9
ENCODING 697
SWIDTH 288 0
DWIDTH 2 0
BBX 2 2 0 3
BITMAP
40
80
ENDCHAR
STARTCHAR 02BA
ENCODING 698
SWIDTH 576 0
DWIDTH 4 0
BBX 3 2 0 3
BITMAP
60
A0
ENDCHAR
STARTCHAR 02BB
ENCODING 699
SWIDTH 288 0
DWIDTH 2 0
BBX 1 2 1 3
BITMAP
80
80
ENDCHAR
STARTCHAR 02BC
ENCODING 700
SWIDTH 288 0
DWIDTH 2 0
BBX 1 2 1 3
BITMAP
80
80
ENDCHAR
STARTCHAR 02BD
ENCODING 701
SWIDTH 288 0
DWIDTH 2 0
BBX 1 2 1 3
BITMAP
80
80
ENDCHAR
STARTCHAR 02BE
ENCODING 702
SWIDTH 288 0
DWIDTH 2 0
BBX 1 2 1 3
BITMAP
80
80
ENDCHAR
STARTCHAR 02BF
ENCODING 703
SWIDTH 288 0
DWIDTH 2 0
BBX 1 2 1 3
BITMAP
80
80
ENDCHAR
STARTCHAR 02C0
ENCODING 704
SWIDTH 288 0
DWIDTH 2 0
BBX 2 1 0 3
BITMAP
C0
ENDCHAR
STARTCHAR 02C1
ENCODING 705
SWIDTH 288 0
DWIDTH 2 0
BBX 2 1 0 3
BITMAP
C0
ENDCHAR
STARTCHAR 02C2
ENCODING 706
SWIDTH 432 0
DWIDTH 3 0
BBX 2 3 0 2
BITMAP
40
80
40
ENDCHAR
STARTCHAR 02C3
ENCODING 707
SWIDTH 432 0
DWIDTH 3 0
BBX 3 3 0 2
BITMAP
80
60
C0
ENDCHAR
STARTCHAR 02C4
ENCODING 708
SWIDTH 432 0
DWIDTH 3 0
BBX 2 2 0 3
BITMAP
40
C0
ENDCHAR
STARTCHAR 02C5
ENCODING 709
SWIDTH 432 0
DWIDTH 3 0
BBX 2 2 0 3
BITMAP
C0
40
ENDCHAR
STARTCHAR 02C6
ENCODING 710
SWIDTH 576 0
DWIDTH 4 0
BBX 2 2 1 4
BITMAP
40
C0
ENDCHAR
STARTCHAR 02C7
ENCODING 711
SWIDTH 576 0
DWIDTH 4 0
BBX 2 2 1 3
BITMAP
C0
40
ENDCHAR
STARTCHAR 02C8
ENCODING 712
SWIDTH 288 0
DWIDTH 2 0
BBX 1 2 0 3
BITMAP
80
80
ENDCHAR
STARTCHAR 02C9
ENCODING 713
SWIDTH 576 0
DWIDTH 4 0
BBX 2 1 1 4
BITMAP
C0
ENDCHAR
STARTCHAR 02CA
ENCODING 714
SWIDTH 576 0
DWIDTH 4 0
BBX 2 2 1 4
BITMAP
40
80
ENDCHAR
STARTCHAR 02CB
ENCODING 715
SWIDTH 576 0
DWIDTH 4 0
BBX 2 2 1 4
BITMAP
80
40
ENDCHAR
STARTCHAR 02CC
ENCODING 716
SWIDTH 288 0
DWIDTH 2 0
BBX 1 2 0 -1
BITMAP
80
80
ENDCHAR
STARTCHAR 02CD
ENCODING 717
SWIDTH 576 0
DWIDTH 4 0
BBX 2 1 1 -1
BITMAP
C0
ENDCHAR
STARTCHAR 02CE
ENCODING 718
SWIDTH 576 0
DWIDTH 4 0
BBX 2 2 1 -2
BITMAP
80
40
ENDCHAR
STARTCHAR 02CF
ENCODING 719
SWIDTH 576 0
DWIDTH 4 0
BBX 2 2 1 -2
BITMAP
40
80
ENDCHAR
STARTCHAR 02D0
ENCODING 720
SWIDTH 432 0
DWIDTH 3 0
BBX 1 4 1 0
BITMAP
80
80
80
80
ENDCHAR
STARTCHAR 02D1
ENCODING 721
SWIDTH 432 0
DWIDTH 3 0
BBX 1 2 1 2
BITMAP
80
80
ENDCHAR
STARTCHAR 02D2
ENCODING 722
SWIDTH 288 0
DWIDTH 2 0
BBX 1 2 0 1
BITMAP
80
80
ENDCHAR
STARTCHAR 02D3
ENCODING 723
SWIDTH 288 0
DWIDTH 2 0
BBX 1 2 1 1
BITMAP
80
80
ENDCHAR
STARTCHAR 02D4
ENCODING 724
SWIDTH 432 0
DWIDTH 3 0
BBX 3 1 0 2
BITMAP
E0
ENDCHAR
STARTCHAR 02D5
ENCODING 725
SWIDTH 432 0
DWIDTH 3 0
BBX 3 1 0 2
BITMAP
E0
ENDCHAR
STARTCHAR 02D6
ENCODING 726
SWIDTH 432 0
DWIDTH 3 0
BBX 3 3 0 1
BITMAP
40
E0
40
ENDCHAR
STARTCHAR 02D7
ENCODING 727
SWIDTH 432 0
DWIDTH 3 0
BBX 3 2 0 2
BITMAP
A0
E0
ENDCHAR
STARTCHAR 02D8
ENCODING 728
SWIDTH 576 0
DWIDTH 4 0
BBX 2 2 1 4
BITMAP
80
C0
ENDCHAR
STARTCHAR 02D9
ENCODING 729
SWIDTH 576 0
DWIDTH 4 0
BBX 1 1 2 4
BITMAP
80
ENDCHAR
STARTCHAR 02DA
ENCODING 730
SWIDTH 576 0
DWIDTH 4 0
BBX 2 3 1 4
BITMAP
40
C0
40
ENDCHAR
STARTCHAR 02DB
ENCODING 731
SWIDTH 576 0
DWIDTH 4 0
BBX 1 2 2 -2
BITMAP
80
80
ENDCHAR
STARTCHAR 02DC
ENCODING 732
SWIDTH 576 0
DWIDTH 4 0
BBX 2 2 1 4
BITMAP
80
40
ENDCHAR
STARTCHAR 02DD
ENCODING 733
SWIDTH 576 0
DWIDTH 4 0
BBX 2 2 1 4
BITMAP
C0
40
ENDCHAR
STARTCHAR 02DE
ENCODING 734
SWIDTH 288 0
DWIDTH 2 0
BBX 2 2 0 1
BITMAP
80
40
ENDCHAR
STARTCHAR 02E0
ENCODING 736
SWIDTH 432 0
DWIDTH 3 0
BBX 2 3 0 2
BITMAP
80
40
40
ENDCHAR
STARTCHAR 02E1
ENCODING 737
SWIDTH 144 0
DWIDTH 1 0
BBX 1 3 0 3
BITMAP
80
80
80
ENDCHAR
STARTCHAR 02E2
ENCODING 738
SWIDTH 288 0
DWIDTH 2 0
BBX 2 2 0 3
BITMAP
C0
C0
ENDCHAR
STARTCHAR 02E3
ENCODING 739
SWIDTH 432 0
DWIDTH 3 0
BBX 2 2 0 3
BITMAP
80
40
ENDCHAR
STARTCHAR 02E4
ENCODING 740
SWIDTH 288 0
DWIDTH 2 0
BBX 2 3 0 3
BITMAP
C0
80
80
ENDCHAR
STARTCHAR 02E5
ENCODING 741
SWIDTH 432 0
DWIDTH 3 0
BBX 2 4 0 0
BITMAP
C0
40
40
40
ENDCHAR
STARTCHAR 02E6
ENCODING 742
SWIDTH 432 0
DWIDTH 3 0
BBX 2 3 0 1
BITMAP
C0
40
40
ENDCHAR
STARTCHAR 02E7
ENCODING 743
SWIDTH 432 0
DWIDTH 3 0
BBX 2 3 0 1
BITMAP
40
C0
40
ENDCHAR
STARTCHAR 02E8
ENCODING 744
SWIDTH 432 0
DWIDTH 3 0
BBX 2 3 0 1
BITMAP
40
40
C0
ENDCHAR
STARTCHAR 02E9
ENCODING 745
SWIDTH 432 0
DWIDTH 3 0
BBX 2 4 0 1
BITMAP
40
40
40
C0
ENDCHAR
STARTCHAR 0300
ENCODING 768
SWIDTH 0 0
DWIDTH 0 0
BBX 1 2 -3 4
BITMAP
80
80
ENDCHAR
STARTCHAR 0301
ENCODING 769
SWIDTH 0 0
DWIDTH 0 0
BBX 2 2 -3 4
BITMAP
40
80
ENDCHAR
STARTCHAR 0302
ENCODING 770
SWIDTH 0 0
DWIDTH 0 0
BBX 2 2 -3 4
BITMAP
80
C0
ENDCHAR
STARTCHAR 0303
ENCODING 771
SWIDTH 0 0
DWIDTH 0 0
BBX 2 2 -3 4
BITMAP
80
40
ENDCHAR
STARTCHAR 0304
ENCODING 772
SWIDTH 0 0
DWIDTH 0 0
BBX 2 1 -3 4
BITMAP
C0
ENDCHAR
STARTCHAR 0305
ENCODING 773
SWIDTH 0 0
DWIDTH 0 0
BBX 4 1 -4 5
BITMAP
F0
ENDCHAR
STARTCHAR 0306
ENCODING 774
SWIDTH 0 0
DWIDTH 0 0
BBX 2 2 -3 4
BITMAP
40
C0
ENDCHAR
STARTCHAR 0307
ENCODING 775
SWIDTH 0 0
DWIDTH 0 0
BBX 1 1 -3 4
BITMAP
80
ENDCHAR
STARTCHAR 0308
ENCODING 776
SWIDTH 0 0
DWIDTH 0 0
BBX 2 1 -3 4
BITMAP
C0
ENDCHAR
STARTCHAR 0309
ENCODING 777
SWIDTH 0 0
DWIDTH 0 0
BBX 1 1 -3 4
BITMAP
80
ENDCHAR
STARTCHAR 030A
ENCODING 778
SWIDTH 0 0
DWIDTH 0 0
BBX 2 3 -3 4
BITMAP
80
C0
80
ENDCHAR
STARTCHAR 030B
ENCODING 779
SWIDTH 0 0
DWIDTH 0 0
BBX 2 2 -3 4
BITMAP
C0
C0
ENDCHAR
STARTCHAR 030C
ENCODING 780
SWIDTH 0 0
DWIDTH 0 0
BBX 2 2 -3 3
BITMAP
C0
80
ENDCHAR
STARTCHAR 030D
ENCODING 781
SWIDTH 0 0
DWIDTH 0 0
BBX 1 1 -3 4
BITMAP
80
ENDCHAR
STARTCHAR 030E
ENCODING 782
SWIDTH 0 0
DWIDTH 0 0
BBX 2 1 -3 4
BITMAP
C0
ENDCHAR
STARTCHAR 030F
ENCODING 783
SWIDTH 0 0
DWIDTH 0 0
BBX 3 2 -4 4
BITMAP
C0
20
ENDCHAR
STARTCHAR 0310
ENCODING 784
SWIDTH 0 0
DWIDTH 0 0
BBX 2 4 -3 3
BITMAP
80
00
C0
80
ENDCHAR
STARTCHAR 0311
ENCODING 785
SWIDTH 0 0
DWIDTH 0 0
BBX 2 2 -3 4
BITMAP
C0
40
ENDCHAR
STARTCHAR 0312
ENCODING 786
SWIDTH 0 0
DWIDTH 0 0
BBX 1 2 -3 4
BITMAP
80
80
ENDCHAR
STARTCHAR 0313
ENCODING 787
SWIDTH 0 0
DWIDTH 0 0
BBX 1 2 -3 4
BITMAP
80
80
ENDCHAR
STARTCHAR 0314
ENCODING 788
SWIDTH 0 0
DWIDTH 0 0
BBX 1 2 -3 3
BITMAP
80
80
ENDCHAR
STARTCHAR 0315
ENCODING 789
SWIDTH 0 0
DWIDTH 0 0
BBX 1 2 -1 4
BITMAP
80
80
ENDCHAR
STARTCHAR 0316
ENCODING 790
SWIDTH 0 0
DWIDTH 0 0
BBX 1 2 -3 -2
BITMAP
80
80
ENDCHAR
STARTCHAR 0317
ENCODING 791
SWIDTH 0 0
DWIDTH 0 0
BBX 1 2 -3 -2
BITMAP
80
80
ENDCHAR
STARTCHAR 0318
ENCODING 792
SWIDTH 0 0
DWIDTH 0 0
BBX 1 1 -3 -1
BITMAP
80
ENDCHAR
STARTCHAR 0319
ENCODING 793
SWIDTH 0 0
DWIDTH 0 0
BBX 1 1 -2 -1
BITMAP
80
ENDCHAR
STARTCHAR 031A
ENCODING 794
SWIDTH 0 0
DWIDTH 0 0
BBX 2 1 -2 4
BITMAP
C0
ENDCHAR
STARTCHAR 031B
ENCODING 795
SWIDTH 0 0
DWIDTH 0 0
BBX 1 1 -1 4
BITMAP
80
ENDCHAR
STARTCHAR 031C
ENCODING 796
SWIDTH 0 0
DWIDTH 0 0
BBX 1 2 -3 -2
BITMAP
80
80
ENDCHAR
STARTCHAR 031D
ENCODING 797
SWIDTH 0 0
DWIDTH 0 0
BBX 2 1 -3 -2
BITMAP
C0
ENDCHAR
STARTCHAR 031E
ENCODING 798
SWIDTH 0 0
DWIDTH 0 0
BBX 2 1 -3 -2
BITMAP
C0
ENDCHAR
STARTCHAR 031F
ENCODING 799
SWIDTH 0 0
DWIDTH 0 0
BBX 2 1 -3 -2
BITMAP
C0
ENDCHAR
STARTCHAR 0320
ENCODING 800
SWIDTH 0 0
DWIDTH 0 0
BBX 2 2 -3 -1
BITMAP
40
C0
ENDCHAR
STARTCHAR 0321
ENCODING 801
SWIDTH 0 0
DWIDTH 0 0
BBX 2 1 -2 -1
BITMAP
C0
ENDCHAR
STARTCHAR 0322
ENCODING 802
SWIDTH 0 0
DWIDTH 0 0
BBX 2 1 -2 -1
BITMAP
C0
ENDCHAR
STARTCHAR 0323
ENCODING 803
SWIDTH 0 0
DWIDTH 0 0
BBX 1 1 -3 -1
BITMAP
80
ENDCHAR
STARTCHAR 0324
ENCODING 804
SWIDTH 0 0
DWIDTH 0 0
BBX 2 1 -3 -1
BITMAP
C0
ENDCHAR
STARTCHAR 0325
ENCODING 805
SWIDTH 0 0
DWIDTH 0 0
BBX 2 3 -3 -2
BITMAP
80
C0
80
ENDCHAR
STARTCHAR 0326
ENCODING 806
SWIDTH 0 0
DWIDTH 0 0
BBX 1 2 -3 -2
BITMAP
80
80
ENDCHAR
STARTCHAR 0327
ENCODING 807
SWIDTH 0 0
DWIDTH 0 0
BBX 1 3 -2 -3
BITMAP
80
80
80
ENDCHAR
STARTCHAR 0328
ENCODING 808
SWIDTH 0 0
DWIDTH 0 0
BBX 2 2 -3 -2
BITMAP
80
40
ENDCHAR
STARTCHAR 0329
ENCODING 809
SWIDTH 0 0
DWIDTH 0 0
BBX 1 1 -3 -2
BITMAP
80
ENDCHAR
STARTCHAR 032A
ENCODING 810
SWIDTH 0 0
DWIDTH 0 0
BBX 2 1 -3 -2
BITMAP
C0
ENDCHAR
STARTCHAR 032B
ENCODING 811
SWIDTH 0 0
DWIDTH 0 0
BBX 3 2 -4 -2
BITMAP
C0
60
ENDCHAR
STARTCHAR 032C
ENCODING 812
SWIDTH 0 0
DWIDTH 0 0
BBX 2 2 -3 -3
BITMAP
C0
80
ENDCHAR
STARTCHAR 032D
ENCODING 813
SWIDTH 0 0
DWIDTH 0 0
BBX 2 2 -3 -2
BITMAP
80
C0
ENDCHAR
STARTCHAR 032E
ENCODING 814
SWIDTH 0 0
DWIDTH 0 0
BBX 2 2 -3 -2
BITMAP
40
C0
ENDCHAR
STARTCHAR 032F
ENCODING 815
SWIDTH 0 0
DWIDTH 0 0
BBX 2 2 -3 -2
BITMAP
C0
40
ENDCHAR
STARTCHAR 0330
ENCODING 816
SWIDTH 0 0
DWIDTH 0 0
BBX 2 2 -3 -1
BITMAP
80
40
ENDCHAR
STARTCHAR 0331
ENCODING 817
SWIDTH 0 0
DWIDTH 0 0
BBX 2 1 -3 -1
BITMAP
C0
ENDCHAR
STARTCHAR 0332
ENCODING 818
SWIDTH 0 0
DWIDTH 0 0
BBX 4 1 -4 -2
BITMAP
F0
ENDCHAR
STARTCHAR 0333
ENCODING 819
SWIDTH 0 0
DWIDTH 0 0
BBX 4 2 -4 -3
BITMAP
F0
F0
ENDCHAR
STARTCHAR 0334
ENCODING 820
SWIDTH 0 0
DWIDTH 0 0
BBX 4 1 -4 1
BITMAP
F0
ENDCHAR
STARTCHAR 0335
ENCODING 821
SWIDTH 0 0
DWIDTH 0 0
BBX 4 1 -4 2
BITMAP
F0
ENDCHAR
STARTCHAR 0336
ENCODING 822
SWIDTH 0 0
DWIDTH 0 0
BBX 4 1 -4 2
BITMAP
F0
ENDCHAR
STARTCHAR 0337
ENCODING 823
SWIDTH 0 0
DWIDTH 0 0
BBX 4 4 -4 0
BITMAP
10
20
40
80
ENDCHAR
STARTCHAR 0338
ENCODING 824
SWIDTH 0 0
DWIDTH 0 0
BBX 3 6 -4 0
BITMAP
20
20
40
40
80
80
ENDCHAR
STARTCHAR 0339
ENCODING 825
SWIDTH 0 0
DWIDTH 0 0
BBX 1 1 -3 -2
BITMAP
80
ENDCHAR
STARTCHAR 033A
ENCODING 826
SWIDTH 0 0
DWIDTH 0 0
BBX 2 1 -3 -2
BITMAP
C0
ENDCHAR
STARTCHAR 033B
ENCODING 827
SWIDTH 0 0
DWIDTH 0 0
BBX 2 1 -3 -2
BITMAP
C0
ENDCHAR
STARTCHAR 033C
ENCODING 828
SWIDTH 0 0
DWIDTH 0 0
BBX 3 2 -4 -3
BITMAP
60
C0
ENDCHAR
STARTCHAR 033D
ENCODING 829
SWIDTH 0 0
DWIDTH 0 0
BBX 1 2 -3 4
BITMAP
80
80
ENDCHAR
STARTCHAR 033E
ENCODING 830
SWIDTH 0 0
DWIDTH 0 0
BBX 0 0 -3 5
BITMAP
ENDCHAR
STARTCHAR 033F
ENCODING 831
SWIDTH 0 0
DWIDTH 0 0
BBX 4 2 -4 5
BITMAP
F0
F0
ENDCHAR
STARTCHAR 0340
ENCODING 832
SWIDTH 0 0
DWIDTH 0 0
BBX 1 2 -4 6
BITMAP
80
80
ENDCHAR
STARTCHAR 0341
ENCODING 833
SWIDTH 0 0
DWIDTH 0 0
BBX 2 2 -2 6
BITMAP
40
80
ENDCHAR
STARTCHAR 0344
ENCODING 836
SWIDTH 0 0
DWIDTH 0 0
BBX 3 1 -4 4
BITMAP
E0
ENDCHAR
STARTCHAR 0345
ENCODING 837
SWIDTH 0 0
DWIDTH 0 0
BBX 1 2 -2 -1
BITMAP
80
80
ENDCHAR
STARTCHAR 0374
ENCODING 884
SWIDTH 288 0
DWIDTH 2 0
BBX 2 2 0 3
BITMAP
40
80
ENDCHAR
STARTCHAR 0375
ENCODING 885
SWIDTH 288 0
DWIDTH 2 0
BBX 2 2 0 0
BITMAP
40
80
ENDCHAR
STARTCHAR 037A
ENCODING 890
SWIDTH 576 0
DWIDTH 4 0
BBX 1 2 2 -1
BITMAP
80
80
ENDCHAR
STARTCHAR 037E
ENCODING 894
SWIDTH 288 0
DWIDTH 2 0
BBX 1 5 1 -1
BITMAP
80
00
00
80
80
ENDCHAR
STARTCHAR 0384
ENCODING 900
SWIDTH 576 0
DWIDTH 4 0
BBX 1 1 2 4
BITMAP
80
ENDCHAR
STARTCHAR 0385
ENCODING 901
SWIDTH 576 0
DWIDTH 4 0
BBX 3 1 1 4
BITMAP
A0
ENDCHAR
STARTCHAR 0386
ENCODING 902
SWIDTH 720 0
DWIDTH 5 0
BBX 5 5 0 0
BITMAP
A0
60
50
70
88
ENDCHAR
STARTCHAR 0388
ENCODING 904
SWIDTH 720 0
DWIDTH 5 0
BBX 4 5 0 0
BITMAP
F0
40
70
40
70
ENDCHAR
STARTCHAR 0389
ENCODING 905
SWIDTH 864 0
DWIDTH 6 0
BBX 5 5 0 0
BITMAP
C8
48
78
48
48
ENDCHAR
STARTCHAR 038A
ENCODING 906
SWIDTH 432 0
DWIDTH 3 0
BBX 2 5 0 0
BITMAP
C0
40
40
40
40
ENDCHAR
STARTCHAR 038C
ENCODING 908
SWIDTH 864 0
DWIDTH 6 0
BBX 6 5 0 0
BITMAP
B8
44
44
44
38
ENDCHAR
STARTCHAR 038E
ENCODING 910
SWIDTH 864 0
DWIDTH 6 0
BBX 6 5 0 0
BITMAP
E4
28
10
10
10
ENDCHAR
STARTCHAR 038F
ENCODING 911
SWIDTH 864 0
DWIDTH 6 0
BBX 6 5 0 0
BITMAP
B8
44
44
48
6C
ENDCHAR
STARTCHAR 0390
ENCODING 912
SWIDTH 432 0
DWIDTH 3 0
BBX 2 6 0 0
BITMAP
C0
00
80
80
80
40
ENDCHAR
STARTCHAR 0391
ENCODING 913
SWIDTH 720 0
DWIDTH 5 0
BBX 5 5 0 0
BITMAP
20
60
50
70
88
ENDCHAR
STARTCHAR 0392
ENCODING 914
SWIDTH 576 0
DWIDTH 4 0
BBX 3 5 1 0
BITMAP
C0
C0
C0
A0
C0
ENDCHAR
STARTCHAR 0393
ENCODING 915
SWIDTH 576 0
DWIDTH 4 0
BBX 2 5 1 0
BITMAP
C0
80
80
80
80
ENDCHAR
STARTCHAR 0394
ENCODING 916
SWIDTH 720 0
DWIDTH 5 0
BBX 5 5 0 0
BITMAP
20
50
50
90
F8
ENDCHAR
STARTCHAR 0395
ENCODING 917
SWIDTH 576 0
DWIDTH 4 0
BBX 3 5 1 0
BITMAP
C0
80
C0
80
E0
ENDCHAR
STARTCHAR 0396
ENCODING 918
SWIDTH 576 0
DWIDTH 4 0
BBX 4 5 0 0
BITMAP
F0
20
20
40
F0
ENDCHAR
STARTCHAR 0397
ENCODING 919
SWIDTH 720 0
DWIDTH 5 0
BBX 4 5 1 0
BITMAP
90
90
F0
90
90
ENDCHAR
STARTCHAR 0398
ENCODING 920
SWIDTH 720 0
DWIDTH 5 0
BBX 5 5 0 0
BITMAP
70
88
B8
88
70
ENDCHAR
STARTCHAR 0399
ENCODING 921
SWIDTH 288 0
DWIDTH 2 0
BBX 1 5 1 0
BITMAP
80
80
80
80
80
ENDCHAR
STARTCHAR 039A
ENCODING 922
SWIDTH 720 0
DWIDTH 5 0
BBX 3 5 1 0
BITMAP
A0
C0
80
C0
A0
ENDCHAR
STARTCHAR 039B
ENCODING 923
SWIDTH 720 0
DWIDTH 5 0
BBX 4 5 0 0
BITMAP
20
60
50
90
90
ENDCHAR
STARTCHAR 039C
ENCODING 924
SWIDTH 864 0
DWIDTH 6 0
BBX 4 5 1 0
BITMAP
90
90
F0
F0
F0
ENDCHAR
STARTCHAR 039D
ENCODING 925
SWIDTH 720 0
DWIDTH 5 0
BBX 4 5 1 0
BITMAP
90
90
D0
B0
B0
ENDCHAR
STARTCHAR 039E
ENCODING 926
SWIDTH 576 0
DWIDTH 4 0
BBX 4 5 0 0
BITMAP
F0
00
70
00
F0
ENDCHAR
STARTCHAR 039F
ENCODING 927
SWIDTH 720 0
DWIDTH 5 0
BBX 5 5 0 0
BITMAP
70
88
88
88
70
ENDCHAR
STARTCHAR 03A0
ENCODING 928
SWIDTH 720 0
DWIDTH 5 0
BBX 5 5 0 0
BITMAP
F8
88
88
88
88
ENDCHAR
STARTCHAR 03A1
ENCODING 929
SWIDTH 576 0
DWIDTH 4 0
BBX 3 5 1 0
BITMAP
E0
A0
C0
80
80
ENDCHAR
STARTCHAR 03A3
ENCODING 931
SWIDTH 576 0
DWIDTH 4 0
BBX 4 5 0 0
BITMAP
F0
40
20
40
F0
ENDCHAR
STARTCHAR 03A4
ENCODING 932
SWIDTH 576 0
DWIDTH 4 0
BBX 4 5 0 0
BITMAP
F0
20
20
20
20
ENDCHAR
STARTCHAR 03A5
ENCODING 933
SWIDTH 576 0
DWIDTH 4 0
BBX 4 5 0 0
BITMAP
D0
60
20
20
20
ENDCHAR
STARTCHAR 03A6
ENCODING 934
SWIDTH 720 0
DWIDTH 5 0
BBX 5 5 0 0
BITMAP
20
70
A8
70
20
ENDCHAR
STARTCHAR 03A7
ENCODING 935
SWIDTH 576 0
DWIDTH 4 0
BBX 4 5 0 0
BITMAP
90
60
20
60
90
ENDCHAR
STARTCHAR 03A8
ENCODING 936
SWIDTH 720 0
DWIDTH 5 0
BBX 5 5 0 0
BITMAP
A8
B0
70
20
20
ENDCHAR
STARTCHAR 03A9
ENCODING 937
SWIDTH 864 0
DWIDTH 6 0
BBX 5 5 0 0
BITMAP
70
88
88
48
D8
ENDCHAR
STARTCHAR 03AA
ENCODING 938
SWIDTH 288 0
DWIDTH 2 0
BBX 2 6 0 0
BITMAP
C0
80
80
80
80
80
ENDCHAR
STARTCHAR 03AB
ENCODING 939
SWIDTH 576 0
DWIDTH 4 0
BBX 4 7 0 0
BITMAP
60
00
D0
60
20
20
20
ENDCHAR
STARTCHAR 03AC
ENCODING 940
SWIDTH 720 0
DWIDTH 5 0
BBX 4 6 0 0
BITMAP
20
00
70
B0
90
70
ENDCHAR
STARTCHAR 03AD
ENCODING 941
SWIDTH 576 0
DWIDTH 4 0
BBX 3 6 0 0
BITMAP
40
00
60
80
E0
60
ENDCHAR
STARTCHAR 03AE
ENCODING 942
SWIDTH 576 0
DWIDTH 4 0
BBX 4 7 0 -1
BITMAP
20
00
B0
50
90
90
10
ENDCHAR
STARTCHAR 03AF
ENCODING 943
SWIDTH 432 0
DWIDTH 3 0
BBX 1 6 1 0
BITMAP
80
00
80
80
80
80
ENDCHAR
STARTCHAR 03B0
ENCODING 944
SWIDTH 576 0
DWIDTH 4 0
BBX 3 6 1 0
BITMAP
C0
00
A0
A0
A0
C0
ENDCHAR
STARTCHAR 03B1
ENCODING 945
SWIDTH 720 0
DWIDTH 5 0
BBX 4 4 0 0
BITMAP
70
B0
90
70
ENDCHAR
STARTCHAR 03B2
ENCODING 946
SWIDTH 576 0
DWIDTH 4 0
BBX 3 6 1 -1
BITMAP
C0
C0
C0
A0
E0
80
ENDCHAR
STARTCHAR 03B3
ENCODING 947
SWIDTH 576 0
DWIDTH 4 0
BBX 4 5 0 -1
BITMAP
90
60
60
40
40
ENDCHAR
STARTCHAR 03B4
ENCODING 948
SWIDTH 576 0
DWIDTH 4 0
BBX 4 5 0 0
BITMAP
60
40
A0
90
60
ENDCHAR
STARTCHAR 03B5
ENCODING 949
SWIDTH 576 0
DWIDTH 4 0
BBX 3 4 0 0
BITMAP
60
80
E0
60
ENDCHAR
STARTCHAR 03B6
ENCODING 950
SWIDTH 576 0
DWIDTH 4 0
BBX 4 6 0 -1
BITMAP
F0
40
80
80
70
30
ENDCHAR
STARTCHAR 03B7
ENCODING 951
SWIDTH 576 0
DWIDTH 4 0
BBX 4 5 0 -1
BITMAP
B0
50
90
90
10
ENDCHAR
STARTCHAR 03B8
ENCODING 952
SWIDTH 576 0
DWIDTH 4 0
BBX 4 5 0 0
BITMAP
60
90
F0
90
60
ENDCHAR
STARTCHAR 03B9
ENCODING 953
SWIDTH 432 0
DWIDTH 3 0
BBX 1 4 1 0
BITMAP
80
80
80
80
ENDCHAR
STARTCHAR 03BA
ENCODING 954
SWIDTH 576 0
DWIDTH 4 0
BBX 2 4 1 0
BITMAP
C0
80
C0
C0
ENDCHAR
STARTCHAR 03BB
ENCODING 955
SWIDTH 576 0
DWIDTH 4 0
BBX 4 5 0 0
BITMAP
C0
40
60
60
90
ENDCHAR
STARTCHAR 03BC
ENCODING 956
SWIDTH 576 0
DWIDTH 4 0
BBX 3 5 1 -1
BITMAP
A0
A0
A0
E0
80
ENDCHAR
STARTCHAR 03BD
ENCODING 957
SWIDTH 576 0
DWIDTH 4 0
BBX 4 4 0 0
BITMAP
90
A0
60
40
ENDCHAR
STARTCHAR 03BE
ENCODING 958
SWIDTH 576 0
DWIDTH 4 0
BBX 4 7 0 -1
BITMAP
E0
80
60
80
80
70
30
ENDCHAR
STARTCHAR 03BF
ENCODING 959
SWIDTH 576 0
DWIDTH 4 0
BBX 4 4 0 0
BITMAP
60
90
90
60
ENDCHAR
STARTCHAR 03C0
ENCODING 960
SWIDTH 720 0
DWIDTH 5 0
BBX 5 4 0 0
BITMAP
F8
50
50
50
ENDCHAR
STARTCHAR 03C1
ENCODING 961
SWIDTH 576 0
DWIDTH 4 0
BBX 3 5 1 -1
BITMAP
E0
A0
A0
C0
80
ENDCHAR
STARTCHAR 03C2
ENCODING 962
SWIDTH 576 0
DWIDTH 4 0
BBX 4 5 0 -1
BITMAP
70
80
80
70
30
ENDCHAR
STARTCHAR 03C3
ENCODING 963
SWIDTH 720 0
DWIDTH 5 0
BBX 5 4 0 0
BITMAP
78
90
90
60
ENDCHAR
STARTCHAR 03C4
ENCODING 964
SWIDTH 576 0
DWIDTH 4 0
BBX 4 4 0 0
BITMAP
F0
40
40
40
ENDCHAR
STARTCHAR 03C5
ENCODING 965
SWIDTH 576 0
DWIDTH 4 0
BBX 3 4 1 0
BITMAP
A0
A0
A0
C0
ENDCHAR
STARTCHAR 03C6
ENCODING 966
SWIDTH 720 0
DWIDTH 5 0
BBX 5 6 0 -1
BITMAP
20
20
78
A8
78
20
ENDCHAR
STARTCHAR 03C7
ENCODING 967
SWIDTH 576 0
DWIDTH 4 0
BBX 3 5 0 -1
BITMAP
A0
60
40
60
A0
ENDCHAR
STARTCHAR 03C8
ENCODING 968
SWIDTH 864 0
DWIDTH 6 0
BBX 5 6 0 -1
BITMAP
20
A8
A8
A8
78
20
ENDCHAR
STARTCHAR 03C9
ENCODING 969
SWIDTH 864 0
DWIDTH 6 0
BBX 6 4 0 0
BITMAP
94
94
94
68
ENDCHAR
STARTCHAR 03CA
ENCODING 970
SWIDTH 432 0
DWIDTH 3 0
BBX 2 6 0 0
BITMAP
C0
00
80
80
80
40
ENDCHAR
STARTCHAR 03CB
ENCODING 971
SWIDTH 576 0
DWIDTH 4 0
BBX 3 6 1 0
BITMAP
C0
00
A0
A0
A0
C0
ENDCHAR
STARTCHAR 03CC
ENCODING 972
SWIDTH 576 0
DWIDTH 4 0
BBX 4 6 0 0
BITMAP
40
00
60
90
90
60
ENDCHAR
STARTCHAR 03CD
ENCODING 973
SWIDTH 576 0
DWIDTH 4 0
BBX 3 6 1 0
BITMAP
80
00
A0
A0
A0
C0
ENDCHAR
STARTCHAR 03CE
ENCODING 974
SWIDTH 864 0
DWIDTH 6 0
BBX 6 6 0 0
BITMAP
20
00
94
94
94
68
ENDCHAR
STARTCHAR 03D0
ENCODING 976
SWIDTH 576 0
DWIDTH 4 0
BBX 3 5 0 0
BITMAP
60
60
80
E0
60
ENDCHAR
STARTCHAR 03D1
ENCODING 977
SWIDTH 576 0
DWIDTH 4 0
BBX 4 5 0 0
BITMAP
60
A0
70
20
60
ENDCHAR
STARTCHAR 03D2
ENCODING 978
SWIDTH 576 0
DWIDTH 4 0
BBX 4 5 0 0
BITMAP
90
60
20
20
20
ENDCHAR
STARTCHAR 03D3
ENCODING 979
SWIDTH 864 0
DWIDTH 6 0
BBX 6 5 0 0
BITMAP
A4
38
10
10
10
ENDCHAR
STARTCHAR 03D4
ENCODING 980
SWIDTH 576 0
DWIDTH 4 0
BBX 4 7 0 0
BITMAP
60
00
90
60
20
20
20
ENDCHAR
STARTCHAR 03D5
ENCODING 981
SWIDTH 864 0
DWIDTH 6 0
BBX 6 5 0 -1
BITMAP
78
A4
A8
78
20
ENDCHAR
STARTCHAR 03D6
ENCODING 982
SWIDTH 864 0
DWIDTH 6 0
BBX 6 4 0 0
BITMAP
FC
98
A4
78
ENDCHAR
STARTCHAR 03DA
ENCODING 986
SWIDTH 720 0
DWIDTH 5 0
BBX 5 6 0 -1
BITMAP
30
40
80
80
78
30
ENDCHAR
STARTCHAR 03DC
ENCODING 988
SWIDTH 576 0
DWIDTH 4 0
BBX 2 5 1 0
BITMAP
C0
80
C0
80
80
ENDCHAR
STARTCHAR 03DE
ENCODING 990
SWIDTH 576 0
DWIDTH 4 0
BBX 3 5 0 0
BITMAP
40
80
60
20
20
ENDCHAR
STARTCHAR 03E0
ENCODING 992
SWIDTH 576 0
DWIDTH 4 0
BBX 4 5 0 0
BITMAP
C0
20
50
B0
50
ENDCHAR
STARTCHAR 03EE
ENCODING 1006
SWIDTH 576 0
DWIDTH 4 0
BBX 4 5 0 0
BITMAP
20
F0
20
20
20
ENDCHAR
STARTCHAR 03EF
ENCODING 1007
SWIDTH 576 0
DWIDTH 4 0
BBX 4 6 0 -1
BITMAP
40
F0
40
40
40
40
ENDCHAR
STARTCHAR 03F0
ENCODING 1008
SWIDTH 576 0
DWIDTH 4 0
BBX 4 4 0 0
BITMAP
A0
60
60
B0
ENDCHAR
STARTCHAR 03F1
ENCODING 1009
SWIDTH 576 0
DWIDTH 4 0
BBX 3 5 1 -1
BITMAP
C0
A0
C0
80
E0
ENDCHAR
STARTCHAR 03F2
ENCODING 1010
SWIDTH 576 0
DWIDTH 4 0
BBX 3 4 0 0
BITMAP
60
80
80
60
ENDCHAR
STARTCHAR 0401
ENCODING 1025
SWIDTH 576 0
DWIDTH 4 0
BBX 3 7 1 0
BITMAP
C0
00
C0
80
C0
80
E0
ENDCHAR
STARTCHAR 0402
ENCODING 1026
SWIDTH 864 0
DWIDTH 6 0
BBX 5 5 0 0
BITMAP
F0
20
38
28
38
ENDCHAR
STARTCHAR 0403
ENCODING 1027
SWIDTH 576 0
DWIDTH 4 0
BBX 2 8 1 0
BITMAP
40
80
00
C0
80
80
80
80
ENDCHAR
STARTCHAR 0404
ENCODING 1028
SWIDTH 576 0
DWIDTH 4 0
BBX 4 5 0 0
BITMAP
70
80
E0
80
70
ENDCHAR
STARTCHAR 0405
ENCODING 1029
SWIDTH 576 0
DWIDTH 4 0
BBX 3 5 0 0
BITMAP
60
80
60
20
E0
ENDCHAR
STARTCHAR 0406
ENCODING 1030
SWIDTH 288 0
DWIDTH 2 0
BBX 1 5 1 0
BITMAP
80
80
80
80
80
ENDCHAR
STARTCHAR 0407
ENCODING 1031
SWIDTH 288 0
DWIDTH 2 0
BBX 2 7 0 0
BITMAP
C0
00
80
80
80
80
80
ENDCHAR
STARTCHAR 0408
ENCODING 1032
SWIDTH 288 0
DWIDTH 2 0
BBX 3 6 -1 -1
BITMAP
20
20
20
20
20
C0
ENDCHAR
STARTCHAR 0409
ENCODING 1033
SWIDTH 1008 0
DWIDTH 7 0
BBX 7 5 0 0
BITMAP
70
50
4C
52
8C
ENDCHAR
STARTCHAR 040A
ENCODING 1034
SWIDTH 1008 0
DWIDTH 7 0
BBX 6 5 1 0
BITMAP
A0
A0
F8
A4
B8
ENDCHAR
STARTCHAR 040B
ENCODING 1035
SWIDTH 720 0
DWIDTH 5 0
BBX 5 5 0 0
BITMAP
F0
40
38
48
48
ENDCHAR
STARTCHAR 040C
ENCODING 1036
SWIDTH 576 0
DWIDTH 4 0
BBX 3 8 1 0
BITMAP
40
80
00
A0
C0
80
C0
A0
ENDCHAR
STARTCHAR 040E
ENCODING 1038
SWIDTH 576 0
DWIDTH 4 0
BBX 4 8 0 0
BITMAP
40
20
00
90
50
60
20
C0
ENDCHAR
STARTCHAR 040F
ENCODING 1039
SWIDTH 720 0
DWIDTH 5 0
BBX 4 6 1 -1
BITMAP
90
90
90
90
F0
40
ENDCHAR
STARTCHAR 0410
ENCODING 1040
SWIDTH 720 0
DWIDTH 5 0
BBX 5 5 0 0
BITMAP
20
60
50
70
88
ENDCHAR
STARTCHAR 0411
ENCODING 1041
SWIDTH 576 0
DWIDTH 4 0
BBX 3 5 1 0
BITMAP
C0
80
C0
A0
C0
ENDCHAR
STARTCHAR 0412
ENCODING 1042
SWIDTH 576 0
DWIDTH 4 0
BBX 3 5 1 0
BITMAP
C0
C0
C0
A0
C0
ENDCHAR
STARTCHAR 0413
ENCODING 1043
SWIDTH 576 0
DWIDTH 4 0
BBX 2 5 1 0
BITMAP
C0
80
80
80
80
ENDCHAR
STARTCHAR 0414
ENCODING 1044
SWIDTH 720 0
DWIDTH 5 0
BBX 5 6 0 -1
BITMAP
30
50
50
50
F8
88
ENDCHAR
STARTCHAR 0415
ENCODING 1045
SWIDTH 576 0
DWIDTH 4 0
BBX 3 5 1 0
BITMAP
C0
80
C0
80
E0
ENDCHAR
STARTCHAR 0416
ENCODING 1046
SWIDTH 864 0
DWIDTH 6 0
BBX 5 5 0 0
BITMAP
A8
68
30
68
A8
ENDCHAR
STARTCHAR 0417
ENCODING 1047
SWIDTH 576 0
DWIDTH 4 0
BBX 3 5 0 0
BITMAP
60
A0
60
A0
60
ENDCHAR
STARTCHAR 0418
ENCODING 1048
SWIDTH 720 0
DWIDTH 5 0
BBX 4 5 1 0
BITMAP
B0
B0
D0
90
90
ENDCHAR
STARTCHAR 0419
ENCODING 1049
SWIDTH 720 0
DWIDTH 5 0
BBX 4 8 1 0
BITMAP
A0
40
00
B0
B0
D0
90
90
ENDCHAR
STARTCHAR 041A
ENCODING 1050
SWIDTH 576 0
DWIDTH 4 0
BBX 3 5 1 0
BITMAP
A0
C0
80
C0
A0
ENDCHAR
STARTCHAR 041B
ENCODING 1051
SWIDTH 720 0
DWIDTH 5 0
BBX 4 5 0 0
BITMAP
70
50
50
50
90
ENDCHAR
STARTCHAR 041C
ENCODING 1052
SWIDTH 864 0
DWIDTH 6 0
BBX 4 5 1 0
BITMAP
90
90
F0
F0
F0
ENDCHAR
STARTCHAR 041D
ENCODING 1053
SWIDTH 720 0
DWIDTH 5 0
BBX 4 5 1 0
BITMAP
90
90
F0
90
90
ENDCHAR
STARTCHAR 041E
ENCODING 1054
SWIDTH 720 0
DWIDTH 5 0
BBX 5 5 0 0
BITMAP
70
88
88
88
70
ENDCHAR
STARTCHAR 041F
ENCODING 1055
SWIDTH 720 0
DWIDTH 5 0
BBX 4 5 1 0
BITMAP
F0
90
90
90
90
ENDCHAR
STARTCHAR 0420
ENCODING 1056
SWIDTH 576 0
DWIDTH 4 0
BBX 3 5 1 0
BITMAP
E0
A0
C0
80
80
ENDCHAR
STARTCHAR 0421
ENCODING 1057
SWIDTH 720 0
DWIDTH 5 0
BBX 4 5 0 0
BITMAP
70
80
80
80
70
ENDCHAR
STARTCHAR 0422
ENCODING 1058
SWIDTH 576 0
DWIDTH 4 0
BBX 4 5 0 0
BITMAP
F0
20
20
20
20
ENDCHAR
STARTCHAR 0423
ENCODING 1059
SWIDTH 576 0
DWIDTH 4 0
BBX 4 5 0 0
BITMAP
90
50
60
20
C0
ENDCHAR
STARTCHAR 0424
ENCODING 1060
SWIDTH 720 0
DWIDTH 5 0
BBX 5 5 0 0
BITMAP
20
70
A8
70
20
ENDCHAR
STARTCHAR 0425
ENCODING 1061
SWIDTH 576 0
DWIDTH 4 0
BBX 4 5 0 0
BITMAP
90
60
20
60
90
ENDCHAR
STARTCHAR 0426
ENCODING 1062
SWIDTH 720 0
DWIDTH 5 0
BBX 4 6 1 -1
BITMAP
90
90
90
90
F0
10
ENDCHAR
STARTCHAR 0427
ENCODING 1063
SWIDTH 576 0
DWIDTH 4 0
BBX 4 5 0 0
BITMAP
90
90
70
10
10
ENDCHAR
STARTCHAR 0428
ENCODING 1064
SWIDTH 1008 0
DWIDTH 7 0
BBX 5 5 1 0
BITMAP
A8
A8
A8
A8
F8
ENDCHAR
STARTCHAR 0429
ENCODING 1065
SWIDTH 1008 0
DWIDTH 7 0
BBX 6 6 1 -1
BITMAP
A8
A8
A8
A8
FC
04
ENDCHAR
STARTCHAR 042A
ENCODING 1066
SWIDTH 720 0
DWIDTH 5 0
BBX 4 5 0 0
BITMAP
C0
40
70
50
70
ENDCHAR
STARTCHAR 042B
ENCODING 1067
SWIDTH 864 0
DWIDTH 6 0
BBX 4 5 1 0
BITMAP
90
90
D0
B0
D0
ENDCHAR
STARTCHAR 042C
ENCODING 1068
SWIDTH 576 0
DWIDTH 4 0
BBX 3 5 1 0
BITMAP
80
80
C0
A0
C0
ENDCHAR
STARTCHAR 042D
ENCODING 1069
SWIDTH 576 0
DWIDTH 4 0
BBX 4 5 0 0
BITMAP
E0
10
70
10
E0
ENDCHAR
STARTCHAR 042E
ENCODING 1070
SWIDTH 1008 0
DWIDTH 7 0
BBX 5 5 1 0
BITMAP
B8
C8
C8
C8
B8
ENDCHAR
STARTCHAR 042F
ENCODING 1071
SWIDTH 576 0
DWIDTH 4 0
BBX 4 5 0 0
BITMAP
70
90
70
50
90
ENDCHAR
STARTCHAR 0430
ENCODING 1072
SWIDTH 576 0
DWIDTH 4 0
BBX 4 4 0 0
BITMAP
60
20
60
F0
ENDCHAR
STARTCHAR 0431
ENCODING 1073
SWIDTH 576 0
DWIDTH 4 0
BBX 4 5 0 0
BITMAP
60
E0
90
90
60
ENDCHAR
STARTCHAR 0432
ENCODING 1074
SWIDTH 576 0
DWIDTH 4 0
BBX 2 4 1 0
BITMAP
C0
C0
C0
C0
ENDCHAR
STARTCHAR 0433
ENCODING 1075
SWIDTH 432 0
DWIDTH 3 0
BBX 2 4 1 0
BITMAP
C0
80
80
80
ENDCHAR
STARTCHAR 0434
ENCODING 1076
SWIDTH 720 0
DWIDTH 5 0
BBX 4 5 0 -1
BITMAP
70
50
50
F0
90
ENDCHAR
STARTCHAR 0435
ENCODING 1077
SWIDTH 576 0
DWIDTH 4 0
BBX 3 4 0 0
BITMAP
60
A0
E0
60
ENDCHAR
STARTCHAR 0436
ENCODING 1078
SWIDTH 720 0
DWIDTH 5 0
BBX 5 4 0 0
BITMAP
A8
70
70
A8
ENDCHAR
STARTCHAR 0437
ENCODING 1079
SWIDTH 432 0
DWIDTH 3 0
BBX 3 4 0 0
BITMAP
60
A0
C0
60
ENDCHAR
STARTCHAR 0438
ENCODING 1080
SWIDTH 576 0
DWIDTH 4 0
BBX 3 4 1 0
BITMAP
A0
E0
A0
A0
ENDCHAR
STARTCHAR 0439
ENCODING 1081
SWIDTH 576 0
DWIDTH 4 0
BBX 3 7 1 0
BITMAP
80
40
00
A0
E0
A0
A0
ENDCHAR
STARTCHAR 043A
ENCODING 1082
SWIDTH 576 0
DWIDTH 4 0
BBX 2 4 1 0
BITMAP
C0
C0
80
C0
ENDCHAR
STARTCHAR 043B
ENCODING 1083
SWIDTH 576 0
DWIDTH 4 0
BBX 3 4 0 0
BITMAP
60
60
60
A0
ENDCHAR
STARTCHAR 043C
ENCODING 1084
SWIDTH 720 0
DWIDTH 5 0
BBX 3 4 1 0
BITMAP
A0
A0
E0
E0
ENDCHAR
STARTCHAR 043D
ENCODING 1085
SWIDTH 576 0
DWIDTH 4 0
BBX 3 4 1 0
BITMAP
A0
A0
E0
A0
ENDCHAR
STARTCHAR 043E
ENCODING 1086
SWIDTH 576 0
DWIDTH 4 0
BBX 4 4 0 0
BITMAP
60
90
90
60
ENDCHAR
STARTCHAR 043F
ENCODING 1087
SWIDTH 576 0
DWIDTH 4 0
BBX 3 4 1 0
BITMAP
E0
A0
A0
A0
ENDCHAR
STARTCHAR 0440
ENCODING 1088
SWIDTH 576 0
DWIDTH 4 0
BBX 3 5 1 -1
BITMAP
E0
A0
A0
E0
80
ENDCHAR
STARTCHAR 0441
ENCODING 1089
SWIDTH 576 0
DWIDTH 4 0
BBX 3 4 0 0
BITMAP
60
80
80
60
ENDCHAR
STARTCHAR 0442
ENCODING 1090
SWIDTH 432 0
DWIDTH 3 0
BBX 3 4 0 0
BITMAP
E0
40
40
40
ENDCHAR
STARTCHAR 0443
ENCODING 1091
SWIDTH 576 0
DWIDTH 4 0
BBX 3 5 0 -1
BITMAP
A0
A0
60
40
C0
ENDCHAR
STARTCHAR 0444
ENCODING 1092
SWIDTH 864 0
DWIDTH 6 0
BBX 5 6 0 -1
BITMAP
20
78
A8
A8
78
20
ENDCHAR
STARTCHAR 0445
ENCODING 1093
SWIDTH 576 0
DWIDTH 4 0
BBX 4 4 0 0
BITMAP
90
60
60
90
ENDCHAR
STARTCHAR 0446
ENCODING 1094
SWIDTH 720 0
DWIDTH 5 0
BBX 3 5 1 -1
BITMAP
A0
A0
A0
E0
20
ENDCHAR
STARTCHAR 0447
ENCODING 1095
SWIDTH 576 0
DWIDTH 4 0
BBX 3 4 0 0
BITMAP
A0
A0
60
20
ENDCHAR
STARTCHAR 0448
ENCODING 1096
SWIDTH 864 0
DWIDTH 6 0
BBX 4 4 1 0
BITMAP
D0
D0
D0
F0
ENDCHAR
STARTCHAR 0449
ENCODING 1097
SWIDTH 864 0
DWIDTH 6 0
BBX 5 5 1 -1
BITMAP
D0
D0
D0
F8
08
ENDCHAR
STARTCHAR 044A
ENCODING 1098
SWIDTH 576 0
DWIDTH 4 0
BBX 3 4 0 0
BITMAP
C0
40
60
60
ENDCHAR
STARTCHAR 044B
ENCODING 1099
SWIDTH 720 0
DWIDTH 5 0
BBX 3 4 1 0
BITMAP
A0
A0
E0
E0
ENDCHAR
STARTCHAR 044C
ENCODING 1100
SWIDTH 576 0
DWIDTH 4 0
BBX 2 4 1 0
BITMAP
80
80
C0
C0
ENDCHAR
STARTCHAR 044D
ENCODING 1101
SWIDTH 576 0
DWIDTH 4 0
BBX 3 4 0 0
BITMAP
E0
20
60
E0
ENDCHAR
STARTCHAR 044E
ENCODING 1102
SWIDTH 864 0
DWIDTH 6 0
BBX 4 4 1 0
BITMAP
B0
D0
D0
F0
ENDCHAR
STARTCHAR 044F
ENCODING 1103
SWIDTH 576 0
DWIDTH 4 0
BBX 3 4 0 0
BITMAP
60
A0
60
A0
ENDCHAR
STARTCHAR 0451
ENCODING 1105
SWIDTH 576 0
DWIDTH 4 0
BBX 3 6 0 0
BITMAP
60
00
60
A0
E0
60
ENDCHAR
STARTCHAR 0452
ENCODING 1106
SWIDTH 576 0
DWIDTH 4 0
BBX 4 6 0 -1
BITMAP
80
E0
B0
D0
90
30
ENDCHAR
STARTCHAR 0453
ENCODING 1107
SWIDTH 432 0
DWIDTH 3 0
BBX 2 7 1 0
BITMAP
40
80
00
C0
80
80
80
ENDCHAR
STARTCHAR 0454
ENCODING 1108
SWIDTH 576 0
DWIDTH 4 0
BBX 3 4 0 0
BITMAP
60
80
C0
60
ENDCHAR
STARTCHAR 0455
ENCODING 1109
SWIDTH 576 0
DWIDTH 4 0
BBX 2 4 1 0
BITMAP
C0
80
40
C0
ENDCHAR
STARTCHAR 0456
ENCODING 1110
SWIDTH 288 0
DWIDTH 2 0
BBX 1 5 1 0
BITMAP
80
80
80
80
80
ENDCHAR
STARTCHAR 0457
ENCODING 1111
SWIDTH 288 0
DWIDTH 2 0
BBX 2 6 0 0
BITMAP
C0
00
80
80
80
80
ENDCHAR
STARTCHAR 0458
ENCODING 1112
SWIDTH 288 0
DWIDTH 2 0
BBX 2 6 -1 -1
BITMAP
40
40
40
40
40
C0
ENDCHAR
STARTCHAR 0459
ENCODING 1113
SWIDTH 864 0
DWIDTH 6 0
BBX 5 4 0 0
BITMAP
60
60
58
98
ENDCHAR
STARTCHAR 045A
ENCODING 1114
SWIDTH 864 0
DWIDTH 6 0
BBX 4 4 1 0
BITMAP
A0
A0
F0
B0
ENDCHAR
STARTCHAR 045B
ENCODING 1115
SWIDTH 576 0
DWIDTH 4 0
BBX 4 5 0 0
BITMAP
80
E0
B0
D0
90
ENDCHAR
STARTCHAR 045C
ENCODING 1116
SWIDTH 576 0
DWIDTH 4 0
BBX 2 7 1 0
BITMAP
40
80
00
C0
C0
80
C0
ENDCHAR
STARTCHAR 045E
ENCODING 1118
SWIDTH 576 0
DWIDTH 4 0
BBX 3 8 0 -1
BITMAP
20
60
00
A0
A0
60
40
C0
ENDCHAR
STARTCHAR 045F
ENCODING 1119
SWIDTH 576 0
DWIDTH 4 0
BBX 3 5 1 -1
BITMAP
A0
A0
A0
E0
40
ENDCHAR
STARTCHAR 0462
ENCODING 1122
SWIDTH 720 0
DWIDTH 5 0
BBX 4 5 0 0
BITMAP
40
E0
70
50
70
ENDCHAR
STARTCHAR 0463
ENCODING 1123
SWIDTH 576 0
DWIDTH 4 0
BBX 3 5 0 0
BITMAP
40
E0
40
60
60
ENDCHAR
STARTCHAR 046A
ENCODING 1130
SWIDTH 864 0
DWIDTH 6 0
BBX 5 5 0 0
BITMAP
F8
50
70
68
A8
ENDCHAR
STARTCHAR 046B
ENCODING 1131
SWIDTH 720 0
DWIDTH 5 0
BBX 4 4 0 0
BITMAP
F0
50
70
B0
ENDCHAR
STARTCHAR 0490
ENCODING 1168
SWIDTH 576 0
DWIDTH 4 0
BBX 2 6 1 0
BITMAP
40
C0
80
80
80
80
ENDCHAR
STARTCHAR 0491
ENCODING 1169
SWIDTH 432 0
DWIDTH 3 0
BBX 2 5 1 0
BITMAP
40
C0
80
80
80
ENDCHAR
STARTCHAR 0492
ENCODING 1170
SWIDTH 576 0
DWIDTH 4 0
BBX 4 5 0 0
BITMAP
70
40
E0
40
40
ENDCHAR
STARTCHAR 0493
ENCODING 1171
SWIDTH 432 0
DWIDTH 3 0
BBX 3 4 0 0
BITMAP
60
80
E0
80
ENDCHAR
STARTCHAR 0494
ENCODING 1172
SWIDTH 576 0
DWIDTH 4 0
BBX 3 6 1 -1
BITMAP
C0
80
E0
A0
A0
40
ENDCHAR
STARTCHAR 0495
ENCODING 1173
SWIDTH 576 0
DWIDTH 4 0
BBX 2 5 1 -1
BITMAP
C0
80
C0
C0
40
ENDCHAR
STARTCHAR 0496
ENCODING 1174
SWIDTH 864 0
DWIDTH 6 0
BBX 6 6 0 -1
BITMAP
A8
68
30
68
A4
04
ENDCHAR
STARTCHAR 0497
ENCODING 1175
SWIDTH 720 0
DWIDTH 5 0
BBX 5 5 0 -1
BITMAP
A8
70
70
A8
08
ENDCHAR
STARTCHAR 0498
ENCODING 1176
SWIDTH 576 0
DWIDTH 4 0
BBX 3 8 0 -3
BITMAP
60
A0
60
A0
60
40
40
40
ENDCHAR
STARTCHAR 0499
ENCODING 1177
SWIDTH 432 0
DWIDTH 3 0
BBX 3 7 0 -3
BITMAP
60
A0
C0
60
40
40
40
ENDCHAR
STARTCHAR 049A
ENCODING 1178
SWIDTH 576 0
DWIDTH 4 0
BBX 3 6 1 -1
BITMAP
A0
C0
80
C0
A0
20
ENDCHAR
STARTCHAR 049B
ENCODING 1179
SWIDTH 576 0
DWIDTH 4 0
BBX 3 5 1 -1
BITMAP
C0
C0
80
E0
20
ENDCHAR
STARTCHAR 049C
ENCODING 1180
SWIDTH 720 0
DWIDTH 5 0
BBX 4 5 1 0
BITMAP
90
A0
C0
A0
90
ENDCHAR
STARTCHAR 049D
ENCODING 1181
SWIDTH 720 0
DWIDTH 5 0
BBX 3 4 1 0
BITMAP
A0
A0
C0
A0
ENDCHAR
STARTCHAR 049E
ENCODING 1182
SWIDTH 576 0
DWIDTH 4 0
BBX 4 5 0 0
BITMAP
90
E0
40
A0
90
ENDCHAR
STARTCHAR 049F
ENCODING 1183
SWIDTH 576 0
DWIDTH 4 0
BBX 3 5 0 0
BITMAP
80
E0
A0
40
A0
ENDCHAR
STARTCHAR 04A0
ENCODING 1184
SWIDTH 720 0
DWIDTH 5 0
BBX 4 5 0 0
BITMAP
D0
50
60
50
50
ENDCHAR
STARTCHAR 04A1
ENCODING 1185
SWIDTH 576 0
DWIDTH 4 0
BBX 4 4 0 0
BITMAP
D0
60
60
60
ENDCHAR
STARTCHAR 04A2
ENCODING 1186
SWIDTH 720 0
DWIDTH 5 0
BBX 4 6 1 -1
BITMAP
90
90
F0
90
90
10
ENDCHAR
STARTCHAR 04A3
ENCODING 1187
SWIDTH 720 0
DWIDTH 5 0
BBX 3 5 1 -1
BITMAP
A0
A0
E0
A0
20
ENDCHAR
STARTCHAR 04A4
ENCODING 1188
SWIDTH 864 0
DWIDTH 6 0
BBX 5 5 1 0
BITMAP
98
90
F0
90
90
ENDCHAR
STARTCHAR 04A5
ENCODING 1189
SWIDTH 720 0
DWIDTH 5 0
BBX 4 4 1 0
BITMAP
B0
A0
E0
A0
ENDCHAR
STARTCHAR 04A6
ENCODING 1190
SWIDTH 1008 0
DWIDTH 7 0
BBX 6 6 1 -1
BITMAP
E0
A0
B8
A4
A4
08
ENDCHAR
STARTCHAR 04A7
ENCODING 1191
SWIDTH 864 0
DWIDTH 6 0
BBX 5 5 1 -1
BITMAP
E0
A0
B8
A8
10
ENDCHAR
STARTCHAR 04A8
ENCODING 1192
SWIDTH 720 0
DWIDTH 5 0
BBX 5 5 0 0
BITMAP
70
98
A8
A8
78
ENDCHAR
STARTCHAR 04A9
ENCODING 1193
SWIDTH 576 0
DWIDTH 4 0
BBX 4 4 0 0
BITMAP
60
B0
B0
70
ENDCHAR
STARTCHAR 04AA
ENCODING 1194
SWIDTH 720 0
DWIDTH 5 0
BBX 4 8 0 -3
BITMAP
70
80
80
80
70
20
20
20
ENDCHAR
STARTCHAR 04AB
ENCODING 1195
SWIDTH 576 0
DWIDTH 4 0
BBX 3 7 0 -3
BITMAP
60
80
80
60
20
20
20
ENDCHAR
STARTCHAR 04AC
ENCODING 1196
SWIDTH 576 0
DWIDTH 4 0
BBX 4 6 0 -1
BITMAP
F0
20
20
20
20
20
ENDCHAR
STARTCHAR 04AD
ENCODING 1197
SWIDTH 432 0
DWIDTH 3 0
BBX 3 6 0 -1
BITMAP
E0
40
40
40
60
20
ENDCHAR
STARTCHAR 04AE
ENCODING 1198
SWIDTH 576 0
DWIDTH 4 0
BBX 4 5 0 0
BITMAP
90
60
20
40
40
ENDCHAR
STARTCHAR 04AF
ENCODING 1199
SWIDTH 432 0
DWIDTH 3 0
BBX 3 5 0 0
BITMAP
A0
A0
40
40
40
ENDCHAR
STARTCHAR 04B0
ENCODING 1200
SWIDTH 576 0
DWIDTH 4 0
BBX 4 5 0 0
BITMAP
90
60
20
F0
40
ENDCHAR
STARTCHAR 04B1
ENCODING 1201
SWIDTH 432 0
DWIDTH 3 0
BBX 3 4 0 0
BITMAP
A0
40
40
E0
ENDCHAR
STARTCHAR 04B2
ENCODING 1202
SWIDTH 720 0
DWIDTH 5 0
BBX 4 6 0 -1
BITMAP
90
60
20
60
90
10
ENDCHAR
STARTCHAR 04B3
ENCODING 1203
SWIDTH 576 0
DWIDTH 4 0
BBX 4 5 0 -1
BITMAP
90
60
60
90
10
ENDCHAR
STARTCHAR 04B4
ENCODING 1204
SWIDTH 864 0
DWIDTH 6 0
BBX 6 6 0 -1
BITMAP
E8
48
48
48
7C
04
ENDCHAR
STARTCHAR 04B5
ENCODING 1205
SWIDTH 720 0
DWIDTH 5 0
BBX 5 5 0 -1
BITMAP
D0
50
50
78
08
ENDCHAR
STARTCHAR 04B6
ENCODING 1206
SWIDTH 720 0
DWIDTH 5 0
BBX 4 6 0 -1
BITMAP
90
90
70
10
10
10
ENDCHAR
STARTCHAR 04B7
ENCODING 1207
SWIDTH 576 0
DWIDTH 4 0
BBX 4 5 0 0
BITMAP
A0
A0
60
20
30
ENDCHAR
STARTCHAR 04B8
ENCODING 1208
SWIDTH 576 0
DWIDTH 4 0
BBX 4 5 0 0
BITMAP
90
90
70
10
10
ENDCHAR
STARTCHAR 04B9
ENCODING 1209
SWIDTH 576 0
DWIDTH 4 0
BBX 3 4 0 0
BITMAP
A0
E0
60
20
ENDCHAR
STARTCHAR 04BA
ENCODING 1210
SWIDTH 576 0
DWIDTH 4 0
BBX 3 5 1 0
BITMAP
80
80
E0
A0
A0
ENDCHAR
STARTCHAR 04BB
ENCODING 1211
SWIDTH 576 0
DWIDTH 4 0
BBX 2 4 1 0
BITMAP
80
C0
C0
C0
ENDCHAR
STARTCHAR 04BC
ENCODING 1212
SWIDTH 864 0
DWIDTH 6 0
BBX 6 5 0 0
BITMAP
38
A8
FC
40
3C
ENDCHAR
STARTCHAR 04BD
ENCODING 1213
SWIDTH 720 0
DWIDTH 5 0
BBX 5 4 0 0
BITMAP
B0
D0
F8
38
ENDCHAR
STARTCHAR 04BE
ENCODING 1214
SWIDTH 864 0
DWIDTH 6 0
BBX 6 8 0 -3
BITMAP
38
A8
FC
40
3C
00
10
10
ENDCHAR
STARTCHAR 04BF
ENCODING 1215
SWIDTH 720 0
DWIDTH 5 0
BBX 5 7 0 -3
BITMAP
B0
D0
F8
38
00
20
10
ENDCHAR
STARTCHAR 04C0
ENCODING 1216
SWIDTH 288 0
DWIDTH 2 0
BBX 1 5 1 0
BITMAP
80
80
80
80
80
ENDCHAR
STARTCHAR 04C1
ENCODING 1217
SWIDTH 864 0
DWIDTH 6 0
BBX 5 8 0 0
BITMAP
10
30
00
A8
68
30
68
A8
ENDCHAR
STARTCHAR 04C2
ENCODING 1218
SWIDTH 720 0
DWIDTH 5 0
BBX 5 7 0 0
BITMAP
50
20
00
A8
70
70
A8
ENDCHAR
STARTCHAR 04C3
ENCODING 1219
SWIDTH 576 0
DWIDTH 4 0
BBX 3 6 1 -1
BITMAP
A0
C0
C0
A0
A0
40
ENDCHAR
STARTCHAR 04C4
ENCODING 1220
SWIDTH 576 0
DWIDTH 4 0
BBX 2 5 1 -1
BITMAP
C0
C0
80
C0
40
ENDCHAR
STARTCHAR 04C7
ENCODING 1223
SWIDTH 720 0
DWIDTH 5 0
BBX 4 6 1 -1
BITMAP
90
90
F0
90
90
20
ENDCHAR
STARTCHAR 04C8
ENCODING 1224
SWIDTH 576 0
DWIDTH 4 0
BBX 3 5 1 -1
BITMAP
A0
A0
E0
A0
60
ENDCHAR
STARTCHAR 04CB
ENCODING 1227
SWIDTH 576 0
DWIDTH 4 0
BBX 4 6 0 -1
BITMAP
90
90
70
10
30
20
ENDCHAR
STARTCHAR 04CC
ENCODING 1228
SWIDTH 576 0
DWIDTH 4 0
BBX 3 5 0 -1
BITMAP
A0
A0
60
20
40
ENDCHAR
STARTCHAR 05B0
ENCODING 1456
SWIDTH 0 0
DWIDTH 0 0
BBX 1 3 2 -3
BITMAP
80
00
80
ENDCHAR
STARTCHAR 05B1
ENCODING 1457
SWIDTH 0 0
DWIDTH 0 0
BBX 3 3 1 -3
BITMAP
E0
00
A0
ENDCHAR
STARTCHAR 05B2
ENCODING 1458
SWIDTH 0 0
DWIDTH 0 0
BBX 3 3 1 -3
BITMAP
E0
00
20
ENDCHAR
STARTCHAR 05B3
ENCODING 1459
SWIDTH 0 0
DWIDTH 0 0
BBX 3 3 1 -3
BITMAP
E0
00
20
ENDCHAR
STARTCHAR 05B4
ENCODING 1460
SWIDTH 0 0
DWIDTH 0 0
BBX 1 1 2 -1
BITMAP
80
ENDCHAR
STARTCHAR 05B5
ENCODING 1461
SWIDTH 0 0
DWIDTH 0 0
BBX 2 1 1 -1
BITMAP
C0
ENDCHAR
STARTCHAR 05B6
ENCODING 1462
SWIDTH 0 0
DWIDTH 0 0
BBX 2 3 1 -3
BITMAP
C0
00
40
ENDCHAR
STARTCHAR 05B7
ENCODING 1463
SWIDTH 0 0
DWIDTH 0 0
BBX 1 1 2 -1
BITMAP
80
ENDCHAR
STARTCHAR 05B8
ENCODING 1464
SWIDTH 0 0
DWIDTH 0 0
BBX 1 2 2 -2
BITMAP
80
80
ENDCHAR
STARTCHAR 05B9
ENCODING 1465
SWIDTH 0 0
DWIDTH 0 0
BBX 1 1 0 4
BITMAP
80
ENDCHAR
STARTCHAR 05BB
ENCODING 1467
SWIDTH 0 0
DWIDTH 0 0
BBX 3 3 1 -3
BITMAP
80
40
20
ENDCHAR
STARTCHAR 05BC
ENCODING 1468
SWIDTH 0 0
DWIDTH 0 0
BBX 1 1 1 1
BITMAP
80
ENDCHAR
STARTCHAR 05BD
ENCODING 1469
SWIDTH 0 0
DWIDTH 0 0
BBX 1 1 2 -1
BITMAP
80
ENDCHAR
STARTCHAR 05BE
ENCODING 1470
SWIDTH 432 0
DWIDTH 3 0
BBX 3 1 0 5
BITMAP
E0
ENDCHAR
STARTCHAR 05BF
ENCODING 1471
SWIDTH 0 0
DWIDTH 0 0
BBX 1 1 2 4
BITMAP
80
ENDCHAR
STARTCHAR 05C0
ENCODING 1472
SWIDTH 288 0
DWIDTH 2 0
BBX 1 2 0 1
BITMAP
80
80
ENDCHAR
STARTCHAR 05C1
ENCODING 1473
SWIDTH 0 0
DWIDTH 0 0
BBX 1 1 4 4
BITMAP
80
ENDCHAR
STARTCHAR 05C2
ENCODING 1474
SWIDTH 0 0
DWIDTH 0 0
BBX 1 1 0 4
BITMAP
80
ENDCHAR
STARTCHAR 05C3
ENCODING 1475
SWIDTH 288 0
DWIDTH 2 0
BBX 1 4 0 0
BITMAP
80
00
00
80
ENDCHAR
STARTCHAR 05D0
ENCODING 1488
SWIDTH 720 0
DWIDTH 5 0
BBX 4 6 0 0
BITMAP
90
50
B0
A0
90
90
ENDCHAR
STARTCHAR 05D1
ENCODING 1489
SWIDTH 576 0
DWIDTH 4 0
BBX 4 6 0 0
BITMAP
60
20
20
20
20
F0
ENDCHAR
STARTCHAR 05D2
ENCODING 1490
SWIDTH 432 0
DWIDTH 3 0
BBX 2 4 0 0
BITMAP
40
40
40
C0
ENDCHAR
STARTCHAR 05D3
ENCODING 1491
SWIDTH 576 0
DWIDTH 4 0
BBX 3 6 0 0
BITMAP
E0
20
20
20
20
20
ENDCHAR
STARTCHAR 05D4
ENCODING 1492
SWIDTH 720 0
DWIDTH 5 0
BBX 4 6 0 0
BITMAP
F0
10
10
90
90
90
ENDCHAR
STARTCHAR 05D5
ENCODING 1493
SWIDTH 288 0
DWIDTH 2 0
BBX 2 6 0 0
BITMAP
80
40
40
40
40
40
ENDCHAR
STARTCHAR 05D6
ENCODING 1494
SWIDTH 288 0
DWIDTH 2 0
BBX 2 6 0 0
BITMAP
80
40
80
80
80
80
ENDCHAR
STARTCHAR 05D7
ENCODING 1495
SWIDTH 720 0
DWIDTH 5 0
BBX 4 6 0 0
BITMAP
F0
90
90
90
90
90
ENDCHAR
STARTCHAR 05D8
ENCODING 1496
SWIDTH 576 0
DWIDTH 4 0
BBX 4 4 0 0
BITMAP
B0
90
90
60
ENDCHAR
STARTCHAR 05D9
ENCODING 1497
SWIDTH 288 0
DWIDTH 2 0
BBX 2 2 0 4
BITMAP
C0
40
ENDCHAR
STARTCHAR 05DA
ENCODING 1498
SWIDTH 576 0
DWIDTH 4 0
BBX 3 7 0 -1
BITMAP
E0
20
20
20
20
20
20
ENDCHAR
STARTCHAR 05DB
ENCODING 1499
SWIDTH 576 0
DWIDTH 4 0
BBX 3 6 0 0
BITMAP
60
20
20
20
20
E0
ENDCHAR
STARTCHAR 05DC
ENCODING 1500
SWIDTH 576 0
DWIDTH 4 0
BBX 3 8 0 -1
BITMAP
80
E0
20
20
20
20
40
80
ENDCHAR
STARTCHAR 05DD
ENCODING 1501
SWIDTH 720 0
DWIDTH 5 0
BBX 4 6 0 0
BITMAP
F0
90
90
90
90
70
ENDCHAR
STARTCHAR 05DE
ENCODING 1502
SWIDTH 720 0
DWIDTH 5 0
BBX 4 4 0 0
BITMAP
B0
50
90
B0
ENDCHAR
STARTCHAR 05DF
ENCODING 1503
SWIDTH 288 0
DWIDTH 2 0
BBX 2 7 0 -1
BITMAP
80
40
40
40
40
40
40
ENDCHAR
STARTCHAR 05E0
ENCODING 1504
SWIDTH 432 0
DWIDTH 3 0
BBX 2 6 0 0
BITMAP
40
40
40
40
40
C0
ENDCHAR
STARTCHAR 05E1
ENCODING 1505
SWIDTH 720 0
DWIDTH 5 0
BBX 4 6 0 0
BITMAP
F0
90
90
90
A0
60
ENDCHAR
STARTCHAR 05E2
ENCODING 1506
SWIDTH 576 0
DWIDTH 4 0
BBX 4 6 0 0
BITMAP
90
90
50
60
60
C0
ENDCHAR
STARTCHAR 05E3
ENCODING 1507
SWIDTH 576 0
DWIDTH 4 0
BBX 3 5 0 -1
BITMAP
C0
A0
20
20
20
ENDCHAR
STARTCHAR 05E4
ENCODING 1508
SWIDTH 576 0
DWIDTH 4 0
BBX 3 4 0 0
BITMAP
60
E0
20
E0
ENDCHAR
STARTCHAR 05E5
ENCODING 1509
SWIDTH 432 0
DWIDTH 3 0
BBX 3 7 0 -1
BITMAP
A0
A0
A0
40
40
40
40
ENDCHAR
STARTCHAR 05E6
ENCODING 1510
SWIDTH 576 0
DWIDTH 4 0
BBX 4 6 0 0
BITMAP
90
A0
60
20
20
E0
ENDCHAR
STARTCHAR 05E7
ENCODING 1511
SWIDTH 720 0
DWIDTH 5 0
BBX 4 5 0 1
BITMAP
F0
90
90
A0
80
ENDCHAR
STARTCHAR 05E8
ENCODING 1512
SWIDTH 576 0
DWIDTH 4 0
BBX 3 6 0 0
BITMAP
E0
20
20
20
20
20
ENDCHAR
STARTCHAR 05E9
ENCODING 1513
SWIDTH 720 0
DWIDTH 5 0
BBX 5 6 0 0
BITMAP
28
A8
A8
50
90
60
ENDCHAR
STARTCHAR 05EA
ENCODING 1514
SWIDTH 720 0
DWIDTH 5 0
BBX 4 6 0 0
BITMAP
70
50
90
90
90
90
ENDCHAR
STARTCHAR 05F0
ENCODING 1520
SWIDTH 576 0
DWIDTH 4 0
BBX 4 4 0 0
BITMAP
A0
50
50
50
ENDCHAR
STARTCHAR 05F1
ENCODING 1521
SWIDTH 576 0
DWIDTH 4 0
BBX 4 6 0 0
BITMAP
E0
50
10
10
10
10
ENDCHAR
STARTCHAR 05F2
ENCODING 1522
SWIDTH 576 0
DWIDTH 4 0
BBX 4 2 0 4
BITMAP
F0
50
ENDCHAR
STARTCHAR 05F3
ENCODING 1523
SWIDTH 288 0
DWIDTH 2 0
BBX 1 1 0 3
BITMAP
80
ENDCHAR
STARTCHAR 05F4
ENCODING 1524
SWIDTH 432 0
DWIDTH 3 0
BBX 3 1 0 3
BITMAP
A0
ENDCHAR
STARTCHAR 1E80
ENCODING 7808
SWIDTH 864 0
DWIDTH 6 0
BBX 6 7 0 0
BITMAP
20
20
94
B4
B8
78
48
ENDCHAR
STARTCHAR 1E81
ENCODING 7809
SWIDTH 720 0
DWIDTH 5 0
BBX 5 6 0 0
BITMAP
40
20
A8
B8
58
50
ENDCHAR
STARTCHAR 1E82
ENCODING 7810
SWIDTH 864 0
DWIDTH 6 0
BBX 6 7 0 0
BITMAP
10
20
94
B4
B8
78
48
ENDCHAR
STARTCHAR 1E83
ENCODING 7811
SWIDTH 720 0
DWIDTH 5 0
BBX 5 6 0 0
BITMAP
10
20
A8
B8
58
50
ENDCHAR
STARTCHAR 1E84
ENCODING 7812
SWIDTH 864 0
DWIDTH 6 0
BBX 6 6 0 0
BITMAP
30
94
B4
B8
78
48
ENDCHAR
STARTCHAR 1E85
ENCODING 7813
SWIDTH 720 0
DWIDTH 5 0
BBX 5 5 0 0
BITMAP
50
A8
B8
58
50
ENDCHAR
STARTCHAR 1EF2
ENCODING 7922
SWIDTH 576 0
DWIDTH 4 0
BBX 4 7 0 0
BITMAP
40
40
90
60
20
40
40
ENDCHAR
STARTCHAR 1EF3
ENCODING 7923
SWIDTH 576 0
DWIDTH 4 0
BBX 3 7 0 -1
BITMAP
40
40
A0
A0
60
40
40
ENDCHAR
STARTCHAR 2000
ENCODING 8192
SWIDTH 576 0
DWIDTH 4 0
BBX 0 0 0 0
BITMAP
ENDCHAR
STARTCHAR 2001
ENCODING 8193
SWIDTH 1008 0
DWIDTH 7 0
BBX 0 0 0 0
BITMAP
ENDCHAR
STARTCHAR 2002
ENCODING 8194
SWIDTH 576 0
DWIDTH 4 0
BBX 0 0 0 0
BITMAP
ENDCHAR
STARTCHAR 2003
ENCODING 8195
SWIDTH 1008 0
DWIDTH 7 0
BBX 0 0 0 0
BITMAP
ENDCHAR
STARTCHAR 2004
ENCODING 8196
SWIDTH 288 0
DWIDTH 2 0
BBX 0 0 0 0
BITMAP
ENDCHAR
STARTCHAR 2005
ENCODING 8197
SWIDTH 288 0
DWIDTH 2 0
BBX 0 0 0 0
BITMAP
ENDCHAR
STARTCHAR 2006
ENCODING 8198
SWIDTH 144 0
DWIDTH 1 0
BBX 0 0 0 0
BITMAP
ENDCHAR
STARTCHAR 2007
ENCODING 8199
SWIDTH 576 0
DWIDTH 4 0
BBX 0 0 0 0
BITMAP
ENDCHAR
STARTCHAR 2008
ENCODING 8200
SWIDTH 288 0
DWIDTH 2 0
BBX 0 0 0 0
BITMAP
ENDCHAR
STARTCHAR 2009
ENCODING 8201
SWIDTH 144 0
DWIDTH 1 0
BBX 0 0 0 0
BITMAP
ENDCHAR
STARTCHAR 200A
ENCODING 8202
SWIDTH 0 0
DWIDTH 0 0
BBX 0 0 0 0
BITMAP
ENDCHAR
STARTCHAR 200B
ENCODING 8203
SWIDTH 0 0
DWIDTH 0 0
BBX 0 0 0 0
BITMAP
ENDCHAR
STARTCHAR 200C
ENCODING 8204
SWIDTH 0 0
DWIDTH 0 0
BBX 0 0 0 0
BITMAP
ENDCHAR
STARTCHAR 200D
ENCODING 8205
SWIDTH 0 0
DWIDTH 0 0
BBX 0 0 0 0
BITMAP
ENDCHAR
STARTCHAR 200E
ENCODING 8206
SWIDTH 0 0
DWIDTH 0 0
BBX 0 0 0 0
BITMAP
ENDCHAR
STARTCHAR 200F
ENCODING 8207
SWIDTH 0 0
DWIDTH 0 0
BBX 0 0 0 0
BITMAP
ENDCHAR
STARTCHAR 2010
ENCODING 8208
SWIDTH 288 0
DWIDTH 2 0
BBX 2 1 0 2
BITMAP
C0
ENDCHAR
STARTCHAR 2011
ENCODING 8209
SWIDTH 288 0
DWIDTH 2 0
BBX 2 1 0 2
BITMAP
C0
ENDCHAR
STARTCHAR 2012
ENCODING 8210
SWIDTH 576 0
DWIDTH 4 0
BBX 3 1 1 1
BITMAP
E0
ENDCHAR
STARTCHAR 2013
ENCODING 8211
SWIDTH 576 0
DWIDTH 4 0
BBX 3 1 0 2
BITMAP
E0
ENDCHAR
STARTCHAR 2014
ENCODING 8212
SWIDTH 1008 0
DWIDTH 7 0
BBX 7 1 0 2
BITMAP
FE
ENDCHAR
STARTCHAR 2015
ENCODING 8213
SWIDTH 1008 0
DWIDTH 7 0
BBX 7 1 0 2
BITMAP
FE
ENDCHAR
STARTCHAR 2016
ENCODING 8214
SWIDTH 576 0
DWIDTH 4 0
BBX 2 4 1 0
BITMAP
C0
C0
C0
C0
ENDCHAR
STARTCHAR 2017
ENCODING 8215
SWIDTH 576 0
DWIDTH 4 0
BBX 3 3 0 -3
BITMAP
E0
00
E0
ENDCHAR
STARTCHAR 2018
ENCODING 8216
SWIDTH 288 0
DWIDTH 2 0
BBX 1 2 1 3
BITMAP
80
80
ENDCHAR
STARTCHAR 2019
ENCODING 8217
SWIDTH 288 0
DWIDTH 2 0
BBX 1 2 1 3
BITMAP
80
80
ENDCHAR
STARTCHAR 201A
ENCODING 8218
SWIDTH 288 0
DWIDTH 2 0
BBX 1 2 1 -1
BITMAP
80
80
ENDCHAR
STARTCHAR 201B
ENCODING 8219
SWIDTH 288 0
DWIDTH 2 0
BBX 1 2 1 3
BITMAP
80
80
ENDCHAR
STARTCHAR 201C
ENCODING 8220
SWIDTH 432 0
DWIDTH 3 0
BBX 2 2 0 3
BITMAP
C0
C0
ENDCHAR
STARTCHAR 201D
ENCODING 8221
SWIDTH 432 0
DWIDTH 3 0
BBX 2 2 0 3
BITMAP
C0
C0
ENDCHAR
STARTCHAR 201E
ENCODING 8222
SWIDTH 432 0
DWIDTH 3 0
BBX 2 2 0 -1
BITMAP
C0
C0
ENDCHAR
STARTCHAR 201F
ENCODING 8223
SWIDTH 432 0
DWIDTH 3 0
BBX 2 2 0 3
BITMAP
C0
C0
ENDCHAR
STARTCHAR 2020
ENCODING 8224
SWIDTH 576 0
DWIDTH 4 0
BBX 3 6 1 -1
BITMAP
40
80
E0
80
40
40
ENDCHAR
STARTCHAR 2021
ENCODING 8225
SWIDTH 576 0
DWIDTH 4 0
BBX 3 6 1 -1
BITMAP
40
80
E0
80
E0
40
ENDCHAR
STARTCHAR 2022
ENCODING 8226
SWIDTH 576 0
DWIDTH 4 0
BBX 1 1 2 2
BITMAP
80
ENDCHAR
STARTCHAR 2023
ENCODING 8227
SWIDTH 288 0
DWIDTH 2 0
BBX 1 1 1 2
BITMAP
80
ENDCHAR
STARTCHAR 2024
ENCODING 8228
SWIDTH 288 0
DWIDTH 2 0
BBX 1 1 1 0
BITMAP
80
ENDCHAR
STARTCHAR 2025
ENCODING 8229
SWIDTH 720 0
DWIDTH 5 0
BBX 3 1 1 0
BITMAP
A0
ENDCHAR
STARTCHAR 2026
ENCODING 8230
SWIDTH 1008 0
DWIDTH 7 0
BBX 5 1 1 0
BITMAP
A8
ENDCHAR
STARTCHAR 2027
ENCODING 8231
SWIDTH 288 0
DWIDTH 2 0
BBX 1 1 1 2
BITMAP
80
ENDCHAR
STARTCHAR 2028
ENCODING 8232
SWIDTH 0 0
DWIDTH 0 0
BBX 0 0 0 0
BITMAP
ENDCHAR
STARTCHAR 2029
ENCODING 8233
SWIDTH 0 0
DWIDTH 0 0
BBX 0 0 0 0
BITMAP
ENDCHAR
STARTCHAR 202A
ENCODING 8234
SWIDTH 0 0
DWIDTH 0 0
BBX 0 0 0 0
BITMAP
ENDCHAR
STARTCHAR 202B
ENCODING 8235
SWIDTH 0 0
DWIDTH 0 0
BBX 0 0 0 0
BITMAP
ENDCHAR
STARTCHAR 202C
ENCODING 8236
SWIDTH 0 0
DWIDTH 0 0
BBX 0 0 0 0
BITMAP
ENDCHAR
STARTCHAR 202D
ENCODING 8237
SWIDTH 0 0
DWIDTH 0 0
BBX 0 0 0 0
BITMAP
ENDCHAR
STARTCHAR 202E
ENCODING 8238
SWIDTH 0 0
DWIDTH 0 0
BBX 0 0 0 0
BITMAP
ENDCHAR
STARTCHAR 2030
ENCODING 8240
SWIDTH 1008 0
DWIDTH 7 0
BBX 7 5 0 0
BITMAP
D0
E0
F6
6A
96
ENDCHAR
STARTCHAR 2031
ENCODING 8241
SWIDTH 1296 0
DWIDTH 9 0
BBX 9 5 0 0
BITMAP
D000
E000
F680
6980
9680
ENDCHAR
STARTCHAR 2032
ENCODING 8242
SWIDTH 288 0
DWIDTH 2 0
BBX 2 2 0 3
BITMAP
40
80
ENDCHAR
STARTCHAR 2033
ENCODING 8243
SWIDTH 576 0
DWIDTH 4 0
BBX 3 2 0 3
BITMAP
60
A0
ENDCHAR
STARTCHAR 2034
ENCODING 8244
SWIDTH 720 0
DWIDTH 5 0
BBX 5 2 0 3
BITMAP
68
B0
ENDCHAR
STARTCHAR 2035
ENCODING 8245
SWIDTH 288 0
DWIDTH 2 0
BBX 2 2 0 3
BITMAP
80
40
ENDCHAR
STARTCHAR 2036
ENCODING 8246
SWIDTH 576 0
DWIDTH 4 0
BBX 3 2 0 3
BITMAP
A0
40
ENDCHAR
STARTCHAR 2037
ENCODING 8247
SWIDTH 720 0
DWIDTH 5 0
BBX 5 2 0 3
BITMAP
B0
48
ENDCHAR
STARTCHAR 2038
ENCODING 8248
SWIDTH 288 0
DWIDTH 2 0
BBX 2 2 0 -1
BITMAP
40
C0
ENDCHAR
STARTCHAR 2039
ENCODING 8249
SWIDTH 288 0
DWIDTH 2 0
BBX 2 3 0 0
BITMAP
40
80
40
ENDCHAR
STARTCHAR 203A
ENCODING 8250
SWIDTH 288 0
DWIDTH 2 0
BBX 2 3 0 0
BITMAP
80
40
80
ENDCHAR
STARTCHAR 203B
ENCODING 8251
SWIDTH 720 0
DWIDTH 5 0
BBX 4 5 1 0
BITMAP
40
A0
D0
A0
40
ENDCHAR
STARTCHAR 203C
ENCODING 8252
SWIDTH 576 0
DWIDTH 4 0
BBX 2 5 1 0
BITMAP
C0
C0
C0
00
C0
ENDCHAR
STARTCHAR 203D
ENCODING 8253
SWIDTH 432 0
DWIDTH 3 0
BBX 3 5 0 0
BITMAP
E0
20
40
00
40
ENDCHAR
STARTCHAR 203E
ENCODING 8254
SWIDTH 576 0
DWIDTH 4 0
BBX 3 1 0 5
BITMAP
E0
ENDCHAR
STARTCHAR 2040
ENCODING 8256
SWIDTH 576 0
DWIDTH 4 0
BBX 4 2 0 5
BITMAP
60
90
ENDCHAR
STARTCHAR 2041
ENCODING 8257
SWIDTH 432 0
DWIDTH 3 0
BBX 3 5 0 -1
BITMAP
20
40
40
40
80
ENDCHAR
STARTCHAR 2042
ENCODING 8258
SWIDTH 864 0
DWIDTH 6 0
BBX 4 4 1 1
BITMAP
40
10
90
10
ENDCHAR
STARTCHAR 2043
ENCODING 8259
SWIDTH 288 0
DWIDTH 2 0
BBX 2 1 0 2
BITMAP
C0
ENDCHAR
STARTCHAR 2044
ENCODING 8260
SWIDTH 0 0
DWIDTH 0 0
BBX 4 5 -2 0
BITMAP
10
20
40
80
80
ENDCHAR
STARTCHAR 2070
ENCODING 8304
SWIDTH 432 0
DWIDTH 3 0
BBX 3 3 0 2
BITMAP
40
A0
40
ENDCHAR
STARTCHAR 2074
ENCODING 8308
SWIDTH 432 0
DWIDTH 3 0
BBX 3 2 0 2
BITMAP
C0
E0
ENDCHAR
STARTCHAR 2075
ENCODING 8309
SWIDTH 432 0
DWIDTH 3 0
BBX 1 3 1 2
BITMAP
80
80
80
ENDCHAR
STARTCHAR 2076
ENCODING 8310
SWIDTH 432 0
DWIDTH 3 0
BBX 2 3 0 2
BITMAP
40
C0
40
ENDCHAR
STARTCHAR 2077
ENCODING 8311
SWIDTH 432 0
DWIDTH 3 0
BBX 2 3 1 2
BITMAP
C0
80
80
ENDCHAR
STARTCHAR 2078
ENCODING 8312
SWIDTH 432 0
DWIDTH 3 0
BBX 2 3 0 2
BITMAP
40
40
C0
ENDCHAR
STARTCHAR 2079
ENCODING 8313
SWIDTH 432 0
DWIDTH 3 0
BBX 3 3 0 2
BITMAP
40
E0
40
ENDCHAR
STARTCHAR 207A
ENCODING 8314
SWIDTH 432 0
DWIDTH 3 0
BBX 3 3 0 2
BITMAP
40
E0
40
ENDCHAR
STARTCHAR 207B
ENCODING 8315
SWIDTH 432 0
DWIDTH 3 0
BBX 3 1 0 3
BITMAP
E0
ENDCHAR
STARTCHAR 207C
ENCODING 8316
SWIDTH 432 0
DWIDTH 3 0
BBX 3 3 0 3
BITMAP
E0
00
E0
ENDCHAR
STARTCHAR 207D
ENCODING 8317
SWIDTH 288 0
DWIDTH 2 0
BBX 1 4 0 1
BITMAP
80
80
80
80
ENDCHAR
STARTCHAR 207E
ENCODING 8318
SWIDTH 288 0
DWIDTH 2 0
BBX 1 4 0 1
BITMAP
80
80
80
80
ENDCHAR
STARTCHAR 207F
ENCODING 8319
SWIDTH 432 0
DWIDTH 3 0
BBX 2 2 0 2
BITMAP
C0
C0
ENDCHAR
STARTCHAR 2080
ENCODING 8320
SWIDTH 432 0
DWIDTH 3 0
BBX 3 3 0 0
BITMAP
40
A0
40
ENDCHAR
STARTCHAR 2081
ENCODING 8321
SWIDTH 432 0
DWIDTH 3 0
BBX 1 3 1 0
BITMAP
80
80
80
ENDCHAR
STARTCHAR 2082
ENCODING 8322
SWIDTH 432 0
DWIDTH 3 0
BBX 1 3 1 0
BITMAP
80
80
80
ENDCHAR
STARTCHAR 2083
ENCODING 8323
SWIDTH 432 0
DWIDTH 3 0
BBX 1 3 1 0
BITMAP
80
80
80
ENDCHAR
STARTCHAR 2084
ENCODING 8324
SWIDTH 432 0
DWIDTH 3 0
BBX 3 2 0 0
BITMAP
C0
E0
ENDCHAR
STARTCHAR 2085
ENCODING 8325
SWIDTH 432 0
DWIDTH 3 0
BBX 1 3 1 0
BITMAP
80
80
80
ENDCHAR
STARTCHAR 2086
ENCODING 8326
SWIDTH 432 0
DWIDTH 3 0
BBX 2 3 0 0
BITMAP
40
C0
40
ENDCHAR
STARTCHAR 2087
ENCODING 8327
SWIDTH 432 0
DWIDTH 3 0
BBX 2 3 1 0
BITMAP
C0
80
80
ENDCHAR
STARTCHAR 2088
ENCODING 8328
SWIDTH 432 0
DWIDTH 3 0
BBX 2 3 0 0
BITMAP
40
40
C0
ENDCHAR
STARTCHAR 2089
ENCODING 8329
SWIDTH 432 0
DWIDTH 3 0
BBX 3 3 0 0
BITMAP
40
E0
40
ENDCHAR
STARTCHAR 208A
ENCODING 8330
SWIDTH 432 0
DWIDTH 3 0
BBX 3 3 0 0
BITMAP
40
E0
40
ENDCHAR
STARTCHAR 208B
ENCODING 8331
SWIDTH 432 0
DWIDTH 3 0
BBX 3 1 0 1
BITMAP
E0
ENDCHAR
STARTCHAR 208C
ENCODING 8332
SWIDTH 432 0
DWIDTH 3 0
BBX 3 3 0 1
BITMAP
E0
00
E0
ENDCHAR
STARTCHAR 208D
ENCODING 8333
SWIDTH 288 0
DWIDTH 2 0
BBX 1 3 0 0
BITMAP
80
80
80
ENDCHAR
STARTCHAR 208E
ENCODING 8334
SWIDTH 288 0
DWIDTH 2 0
BBX 1 5 0 -1
BITMAP
80
80
80
80
80
ENDCHAR
STARTCHAR 20A0
ENCODING 8352
SWIDTH 720 0
DWIDTH 5 0
BBX 4 5 0 0
BITMAP
60
80
B0
70
30
ENDCHAR
STARTCHAR 20A1
ENCODING 8353
SWIDTH 720 0
DWIDTH 5 0
BBX 5 7 0 -1
BITMAP
18
78
70
E0
60
78
C0
ENDCHAR
STARTCHAR 20A2
ENCODING 8354
SWIDTH 720 0
DWIDTH 5 0
BBX 4 5 0 0
BITMAP
70
80
B0
A0
70
ENDCHAR
STARTCHAR 20A3
ENCODING 8355
SWIDTH 576 0
DWIDTH 4 0
BBX 4 5 0 0
BITMAP
70
40
60
40
C0
ENDCHAR
STARTCHAR 20A4
ENCODING 8356
SWIDTH 576 0
DWIDTH 4 0
BBX 3 5 1 0
BITMAP
60
C0
C0
80
E0
ENDCHAR
STARTCHAR 20A5
ENCODING 8357
SWIDTH 1008 0
DWIDTH 7 0
BBX 5 5 1 -1
BITMAP
10
F8
A8
A8
E8
ENDCHAR
STARTCHAR 20A6
ENCODING 8358
SWIDTH 864 0
DWIDTH 6 0
BBX 5 5 0 0
BITMAP
48
48
F8
F8
48
ENDCHAR
STARTCHAR 20A7
ENCODING 8359
SWIDTH 1296 0
DWIDTH 9 0
BBX 8 5 1 0
BITMAP
D0
BE
D6
91
9E
ENDCHAR
STARTCHAR 20A8
ENCODING 8360
SWIDTH 1008 0
DWIDTH 7 0
BBX 5 5 1 0
BITMAP
C0
B8
D0
C8
B8
ENDCHAR
STARTCHAR 20A9
ENCODING 8361
SWIDTH 1008 0
DWIDTH 7 0
BBX 7 5 0 0
BITMAP
FE
FE
6C
2C
28
ENDCHAR
STARTCHAR 20AA
ENCODING 8362
SWIDTH 1008 0
DWIDTH 7 0
BBX 6 5 1 0
BITMAP
F4
94
D4
C4
B8
ENDCHAR
STARTCHAR 20AC
ENCODING 8364
SWIDTH 576 0
DWIDTH 4 0
BBX 4 5 0 0
BITMAP
70
E0
E0
80
70
ENDCHAR
STARTCHAR 2100
ENCODING 8448
SWIDTH 720 0
DWIDTH 5 0
BBX 5 5 0 0
BITMAP
48
D0
20
58
90
ENDCHAR
STARTCHAR 2101
ENCODING 8449
SWIDTH 720 0
DWIDTH 5 0
BBX 5 5 0 0
BITMAP
48
D0
20
58
90
ENDCHAR
STARTCHAR 2102
ENCODING 8450
SWIDTH 720 0
DWIDTH 5 0
BBX 5 5 0 0
BITMAP
78
C0
C0
C0
78
ENDCHAR
STARTCHAR 2103
ENCODING 8451
SWIDTH 864 0
DWIDTH 6 0
BBX 6 5 0 0
BITMAP
5C
A0
60
20
1C
ENDCHAR
STARTCHAR 2104
ENCODING 8452
SWIDTH 720 0
DWIDTH 5 0
BBX 4 5 0 0
BITMAP
60
C0
C0
60
30
ENDCHAR
STARTCHAR 2105
ENCODING 8453
SWIDTH 720 0
DWIDTH 5 0
BBX 5 5 0 0
BITMAP
48
D0
20
58
98
ENDCHAR
STARTCHAR 2106
ENCODING 8454
SWIDTH 720 0
DWIDTH 5 0
BBX 5 5 0 0
BITMAP
48
D0
20
48
98
ENDCHAR
STARTCHAR 2107
ENCODING 8455
SWIDTH 576 0
DWIDTH 4 0
BBX 3 5 1 0
BITMAP
C0
A0
C0
80
C0
ENDCHAR
STARTCHAR 2108
ENCODING 8456
SWIDTH 576 0
DWIDTH 4 0
BBX 4 5 0 0
BITMAP
E0
10
70
10
E0
ENDCHAR
STARTCHAR 2109
ENCODING 8457
SWIDTH 720 0
DWIDTH 5 0
BBX 5 5 0 0
BITMAP
78
A0
78
20
20
ENDCHAR
STARTCHAR 210A
ENCODING 8458
SWIDTH 720 0
DWIDTH 5 0
BBX 5 6 0 -2
BITMAP
70
50
90
78
70
E0
ENDCHAR
STARTCHAR 210B
ENCODING 8459
SWIDTH 1152 0
DWIDTH 8 0
BBX 8 5 0 0
BITMAP
73
55
3E
E8
C4
ENDCHAR
STARTCHAR 210C
ENCODING 8460
SWIDTH 720 0
DWIDTH 5 0
BBX 4 6 0 -1
BITMAP
30
60
50
50
D0
30
ENDCHAR
STARTCHAR 210D
ENCODING 8461
SWIDTH 864 0
DWIDTH 6 0
BBX 4 5 1 0
BITMAP
90
B0
F0
B0
90
ENDCHAR
STARTCHAR 210E
ENCODING 8462
SWIDTH 720 0
DWIDTH 5 0
BBX 5 5 0 0
BITMAP
40
50
70
50
98
ENDCHAR
STARTCHAR 210F
ENCODING 8463
SWIDTH 720 0
DWIDTH 5 0
BBX 5 5 0 0
BITMAP
40
F0
50
50
98
ENDCHAR
STARTCHAR 2110
ENCODING 8464
SWIDTH 720 0
DWIDTH 5 0
BBX 4 6 0 -1
BITMAP
10
60
70
20
20
C0
ENDCHAR
STARTCHAR 2111
ENCODING 8465
SWIDTH 720 0
DWIDTH 5 0
BBX 3 5 1 0
BITMAP
80
E0
20
A0
C0
ENDCHAR
STARTCHAR 2112
ENCODING 8466
SWIDTH 864 0
DWIDTH 6 0
BBX 5 5 0 0
BITMAP
18
70
20
20
F8
ENDCHAR
STARTCHAR 2113
ENCODING 8467
SWIDTH 576 0
DWIDTH 4 0
BBX 4 5 0 0
BITMAP
30
50
60
C0
60
ENDCHAR
STARTCHAR 2114
ENCODING 8468
SWIDTH 1008 0
DWIDTH 7 0
BBX 6 5 0 0
BITMAP
F8
9C
94
94
9C
ENDCHAR
STARTCHAR 2115
ENCODING 8469
SWIDTH 864 0
DWIDTH 6 0
BBX 4 5 1 0
BITMAP
80
D0
F0
F0
10
ENDCHAR
STARTCHAR 2116
ENCODING 8470
SWIDTH 1008 0
DWIDTH 7 0
BBX 6 5 1 0
BITMAP
A0
A8
F4
E8
A8
ENDCHAR
STARTCHAR 2117
ENCODING 8471
SWIDTH 864 0
DWIDTH 6 0
BBX 6 5 0 0
BITMAP
78
B8
B4
A8
78
ENDCHAR
STARTCHAR 2118
ENCODING 8472
SWIDTH 720 0
DWIDTH 5 0
BBX 5 5 0 -1
BITMAP
58
E8
50
F0
C0
ENDCHAR
STARTCHAR 2119
ENCODING 8473
SWIDTH 720 0
DWIDTH 5 0
BBX 4 5 1 0
BITMAP
E0
B0
B0
E0
80
ENDCHAR
STARTCHAR 211A
ENCODING 8474
SWIDTH 864 0
DWIDTH 6 0
BBX 6 6 0 -1
BITMAP
78
CC
C4
DC
78
0C
ENDCHAR
STARTCHAR 211B
ENCODING 8475
SWIDTH 1008 0
DWIDTH 7 0
BBX 6 5 0 0
BITMAP
3C
54
18
E8
CC
ENDCHAR
STARTCHAR 211C
ENCODING 8476
SWIDTH 864 0
DWIDTH 6 0
BBX 6 5 0 0
BITMAP
78
B0
78
48
64
ENDCHAR
STARTCHAR 211D
ENCODING 8477
SWIDTH 720 0
DWIDTH 5 0
BBX 4 5 1 0
BITMAP
E0
E0
E0
E0
B0
ENDCHAR
STARTCHAR 211E
ENCODING 8478
SWIDTH 576 0
DWIDTH 4 0
BBX 3 5 1 0
BITMAP
C0
A0
C0
E0
E0
ENDCHAR
STARTCHAR 211F
ENCODING 8479
SWIDTH 576 0
DWIDTH 4 0
BBX 3 6 1 0
BITMAP
20
E0
A0
C0
C0
A0
ENDCHAR
STARTCHAR 2120
ENCODING 8480
SWIDTH 864 0
DWIDTH 6 0
BBX 5 3 0 2
BITMAP
D8
58
D0
ENDCHAR
STARTCHAR 2121
ENCODING 8481
SWIDTH 1440 0
DWIDTH 10 0
BBX 9 4 1 0
BITMAP
FE00
5200
5A00
5F80
ENDCHAR
STARTCHAR 2122
ENCODING 8482
SWIDTH 864 0
DWIDTH 6 0
BBX 5 3 0 2
BITMAP
F8
68
48
ENDCHAR
STARTCHAR 2123
ENCODING 8483
SWIDTH 720 0
DWIDTH 5 0
BBX 4 7 0 0
BITMAP
30
B0
B0
50
60
A0
80
ENDCHAR
STARTCHAR 2124
ENCODING 8484
SWIDTH 720 0
DWIDTH 5 0
BBX 4 5 0 0
BITMAP
F0
30
60
C0
F0
ENDCHAR
STARTCHAR 2125
ENCODING 8485
SWIDTH 576 0
DWIDTH 4 0
BBX 3 6 0 -1
BITMAP
E0
40
E0
40
60
E0
ENDCHAR
STARTCHAR 2126
ENCODING 8486
SWIDTH 864 0
DWIDTH 6 0
BBX 5 5 1 0
BITMAP
F0
90
90
98
D8
ENDCHAR
STARTCHAR 2127
ENCODING 8487
SWIDTH 864 0
DWIDTH 6 0
BBX 5 5 1 0
BITMAP
D8
98
90
90
F0
ENDCHAR
STARTCHAR 2128
ENCODING 8488
SWIDTH 576 0
DWIDTH 4 0
BBX 4 5 0 0
BITMAP
E0
40
60
10
E0
ENDCHAR
STARTCHAR 2129
ENCODING 8489
SWIDTH 432 0
DWIDTH 3 0
BBX 2 4 0 0
BITMAP
C0
40
40
40
ENDCHAR
STARTCHAR 212A
ENCODING 8490
SWIDTH 720 0
DWIDTH 5 0
BBX 3 5 1 0
BITMAP
A0
C0
80
C0
A0
ENDCHAR
STARTCHAR 212B
ENCODING 8491
SWIDTH 720 0
DWIDTH 5 0
BBX 5 8 0 0
BITMAP
20
60
20
20
60
50
70
88
ENDCHAR
STARTCHAR 212C
ENCODING 8492
SWIDTH 864 0
DWIDTH 6 0
BBX 5 5 0 0
BITMAP
78
68
30
28
F8
ENDCHAR
STARTCHAR 212D
ENCODING 8493
SWIDTH 720 0
DWIDTH 5 0
BBX 4 5 0 0
BITMAP
70
C0
A0
D0
70
ENDCHAR
STARTCHAR 212E
ENCODING 8494
SWIDTH 864 0
DWIDTH 6 0
BBX 6 5 0 0
BITMAP
70
88
FC
80
78
ENDCHAR
STARTCHAR 212F
ENCODING 8495
SWIDTH 432 0
DWIDTH 3 0
BBX 3 4 0 0
BITMAP
60
A0
C0
60
ENDCHAR
STARTCHAR 2130
ENCODING 8496
SWIDTH 576 0
DWIDTH 4 0
BBX 4 6 0 0
BITMAP
40
70
40
60
80
E0
ENDCHAR
STARTCHAR 2131
ENCODING 8497
SWIDTH 864 0
DWIDTH 6 0
BBX 6 5 0 1
BITMAP
7C
50
38
E0
C0
ENDCHAR
STARTCHAR 2132
ENCODING 8498
SWIDTH 720 0
DWIDTH 5 0
BBX 3 5 1 0
BITMAP
20
20
E0
20
E0
ENDCHAR
STARTCHAR 2133
ENCODING 8499
SWIDTH 1008 0
DWIDTH 7 0
BBX 7 5 0 0
BITMAP
54
6C
54
54
96
ENDCHAR
STARTCHAR 2134
ENCODING 8500
SWIDTH 576 0
DWIDTH 4 0
BBX 4 4 0 0
BITMAP
60
90
A0
60
ENDCHAR
STARTCHAR 2135
ENCODING 8501
SWIDTH 720 0
DWIDTH 5 0
BBX 4 6 0 0
BITMAP
90
50
D0
A0
90
50
ENDCHAR
STARTCHAR 2136
ENCODING 8502
SWIDTH 720 0
DWIDTH 5 0
BBX 3 6 1 0
BITMAP
C0
20
20
20
20
E0
ENDCHAR
STARTCHAR 2137
ENCODING 8503
SWIDTH 432 0
DWIDTH 3 0
BBX 3 6 0 0
BITMAP
40
40
40
40
60
A0
ENDCHAR
STARTCHAR 2138
ENCODING 8504
SWIDTH 576 0
DWIDTH 4 0
BBX 4 6 0 0
BITMAP
F0
20
20
20
20
20
ENDCHAR
STARTCHAR 215B
ENCODING 8539
SWIDTH 864 0
DWIDTH 6 0
BBX 5 5 0 0
BITMAP
80
B0
B8
58
18
ENDCHAR
STARTCHAR 215C
ENCODING 8540
SWIDTH 864 0
DWIDTH 6 0
BBX 5 5 0 0
BITMAP
C0
50
F8
48
18
ENDCHAR
STARTCHAR 215D
ENCODING 8541
SWIDTH 864 0
DWIDTH 6 0
BBX 5 5 0 0
BITMAP
C0
D0
F8
48
18
ENDCHAR
STARTCHAR 215E
ENCODING 8542
SWIDTH 864 0
DWIDTH 6 0
BBX 5 5 0 0
BITMAP
C0
70
B8
48
18
ENDCHAR
STARTCHAR 2190
ENCODING 8592
SWIDTH 1008 0
DWIDTH 7 0
BBX 5 1 1 1
BITMAP
F8
ENDCHAR
STARTCHAR 2191
ENCODING 8593
SWIDTH 576 0
DWIDTH 4 0
BBX 1 4 1 0
BITMAP
80
80
80
80
ENDCHAR
STARTCHAR 2192
ENCODING 8594
SWIDTH 1008 0
DWIDTH 7 0
BBX 5 1 1 2
BITMAP
F8
ENDCHAR
STARTCHAR 2193
ENCODING 8595
SWIDTH 576 0
DWIDTH 4 0
BBX 1 4 1 1
BITMAP
80
80
80
80
ENDCHAR
STARTCHAR 2194
ENCODING 8596
SWIDTH 1152 0
DWIDTH 8 0
BBX 7 3 1 0
BITMAP
04
FE
04
ENDCHAR
STARTCHAR 2195
ENCODING 8597
SWIDTH 576 0
DWIDTH 4 0
BBX 1 6 1 -1
BITMAP
80
80
80
80
80
80
ENDCHAR
STARTCHAR 2196
ENCODING 8598
SWIDTH 720 0
DWIDTH 5 0
BBX 3 4 1 0
BITMAP
80
80
40
20
ENDCHAR
STARTCHAR 2197
ENCODING 8599
SWIDTH 720 0
DWIDTH 5 0
BBX 3 3 1 0
BITMAP
20
40
80
ENDCHAR
STARTCHAR 2198
ENCODING 8600
SWIDTH 720 0
DWIDTH 5 0
BBX 3 3 1 2
BITMAP
80
40
20
ENDCHAR
STARTCHAR 2199
ENCODING 8601
SWIDTH 720 0
DWIDTH 5 0
BBX 3 3 1 2
BITMAP
60
80
80
ENDCHAR
STARTCHAR 219A
ENCODING 8602
SWIDTH 1008 0
DWIDTH 7 0
BBX 5 2 1 2
BITMAP
F8
20
ENDCHAR
STARTCHAR 219B
ENCODING 8603
SWIDTH 1008 0
DWIDTH 7 0
BBX 5 2 1 2
BITMAP
F8
40
ENDCHAR
STARTCHAR 219C
ENCODING 8604
SWIDTH 864 0
DWIDTH 6 0
BBX 4 2 1 1
BITMAP
A0
50
ENDCHAR
STARTCHAR 219D
ENCODING 8605
SWIDTH 864 0
DWIDTH 6 0
BBX 4 2 1 1
BITMAP
F0
F0
ENDCHAR
STARTCHAR 219E
ENCODING 8606
SWIDTH 1008 0
DWIDTH 7 0
BBX 5 1 1 1
BITMAP
F8
ENDCHAR
STARTCHAR 219F
ENCODING 8607
SWIDTH 576 0
DWIDTH 4 0
BBX 2 4 1 0
BITMAP
80
80
40
80
ENDCHAR
STARTCHAR 21A0
ENCODING 8608
SWIDTH 1008 0
DWIDTH 7 0
BBX 5 3 1 0
BITMAP
20
F8
20
ENDCHAR
STARTCHAR 21A1
ENCODING 8609
SWIDTH 576 0
DWIDTH 4 0
BBX 1 4 1 1
BITMAP
80
80
80
80
ENDCHAR
STARTCHAR 21A2
ENCODING 8610
SWIDTH 1008 0
DWIDTH 7 0
BBX 5 3 1 0
BITMAP
08
F0
08
ENDCHAR
STARTCHAR 21A3
ENCODING 8611
SWIDTH 1008 0
DWIDTH 7 0
BBX 5 3 1 0
BITMAP
80
78
80
ENDCHAR
STARTCHAR 21A4
ENCODING 8612
SWIDTH 1008 0
DWIDTH 7 0
BBX 5 3 1 0
BITMAP
08
F8
08
ENDCHAR
STARTCHAR 21A5
ENCODING 8613
SWIDTH 576 0
DWIDTH 4 0
BBX 2 5 1 0
BITMAP
80
80
80
80
C0
ENDCHAR
STARTCHAR 21A6
ENCODING 8614
SWIDTH 1008 0
DWIDTH 7 0
BBX 5 1 1 1
BITMAP
F8
ENDCHAR
STARTCHAR 21A7
ENCODING 8615
SWIDTH 576 0
DWIDTH 4 0
BBX 2 5 1 0
BITMAP
C0
80
80
80
80
ENDCHAR
STARTCHAR 21A8
ENCODING 8616
SWIDTH 576 0
DWIDTH 4 0
BBX 3 5 0 0
BITMAP
40
40
40
00
E0
ENDCHAR
STARTCHAR 21A9
ENCODING 8617
SWIDTH 1008 0
DWIDTH 7 0
BBX 5 2 1 0
BITMAP
08
F8
ENDCHAR
STARTCHAR 21AA
ENCODING 8618
SWIDTH 1008 0
DWIDTH 7 0
BBX 5 2 1 0
BITMAP
80
F8
ENDCHAR
STARTCHAR 21AB
ENCODING 8619
SWIDTH 1008 0
DWIDTH 7 0
BBX 5 3 1 0
BITMAP
18
F8
10
ENDCHAR
STARTCHAR 21AC
ENCODING 8620
SWIDTH 1008 0
DWIDTH 7 0
BBX 5 2 1 0
BITMAP
80
F8
ENDCHAR
STARTCHAR 21AD
ENCODING 8621
SWIDTH 1296 0
DWIDTH 9 0
BBX 7 3 1 0
BITMAP
14
FE
2C
ENDCHAR
STARTCHAR 21AE
ENCODING 8622
SWIDTH 1152 0
DWIDTH 8 0
BBX 7 3 1 0
BITMAP
14
FE
04
ENDCHAR
STARTCHAR 21AF
ENCODING 8623
SWIDTH 720 0
DWIDTH 5 0
BBX 3 4 1 1
BITMAP
E0
40
80
80
ENDCHAR
STARTCHAR 21B0
ENCODING 8624
SWIDTH 720 0
DWIDTH 5 0
BBX 3 7 1 1
BITMAP
E0
20
20
20
20
20
20
ENDCHAR
STARTCHAR 21B1
ENCODING 8625
SWIDTH 720 0
DWIDTH 5 0
BBX 3 6 1 1
BITMAP
E0
80
80
80
80
80
ENDCHAR
STARTCHAR 21B2
ENCODING 8626
SWIDTH 720 0
DWIDTH 5 0
BBX 3 4 1 0
BITMAP
20
20
20
E0
ENDCHAR
STARTCHAR 21B3
ENCODING 8627
SWIDTH 720 0
DWIDTH 5 0
BBX 3 3 1 1
BITMAP
80
80
E0
ENDCHAR
STARTCHAR 21B4
ENCODING 8628
SWIDTH 720 0
DWIDTH 5 0
BBX 2 5 1 0
BITMAP
C0
40
40
40
40
ENDCHAR
STARTCHAR 21B5
ENCODING 8629
SWIDTH 1008 0
DWIDTH 7 0
BBX 5 4 1 0
BITMAP
08
08
08
F8
ENDCHAR
STARTCHAR 21B6
ENCODING 8630
SWIDTH 1008 0
DWIDTH 7 0
BBX 5 3 1 1
BITMAP
70
88
80
ENDCHAR
STARTCHAR 21B7
ENCODING 8631
SWIDTH 1008 0
DWIDTH 7 0
BBX 5 3 1 1
BITMAP
70
90
08
ENDCHAR
STARTCHAR 21B8
ENCODING 8632
SWIDTH 1008 0
DWIDTH 7 0
BBX 5 5 1 0
BITMAP
F8
40
40
20
10
ENDCHAR
STARTCHAR 21B9
ENCODING 8633
SWIDTH 1008 0
DWIDTH 7 0
BBX 5 5 1 0
BITMAP
80
C0
F8
48
F8
ENDCHAR
STARTCHAR 21BA
ENCODING 8634
SWIDTH 1008 0
DWIDTH 7 0
BBX 5 6 1 0
BITMAP
10
98
88
88
90
70
ENDCHAR
STARTCHAR 21BB
ENCODING 8635
SWIDTH 1008 0
DWIDTH 7 0
BBX 5 6 1 0
BITMAP
80
80
88
88
88
70
ENDCHAR
STARTCHAR 21BC
ENCODING 8636
SWIDTH 1008 0
DWIDTH 7 0
BBX 4 1 2 1
BITMAP
F0
ENDCHAR
STARTCHAR 21BD
ENCODING 8637
SWIDTH 1008 0
DWIDTH 7 0
BBX 4 1 2 1
BITMAP
F0
ENDCHAR
STARTCHAR 21BE
ENCODING 8638
SWIDTH 432 0
DWIDTH 3 0
BBX 1 3 1 1
BITMAP
80
80
80
ENDCHAR
STARTCHAR 21BF
ENCODING 8639
SWIDTH 432 0
DWIDTH 3 0
BBX 1 3 1 1
BITMAP
80
80
80
ENDCHAR
STARTCHAR 21C0
ENCODING 8640
SWIDTH 1008 0
DWIDTH 7 0
BBX 4 1 1 1
BITMAP
F0
ENDCHAR
STARTCHAR 21C1
ENCODING 8641
SWIDTH 1008 0
DWIDTH 7 0
BBX 4 1 1 1
BITMAP
F0
ENDCHAR
STARTCHAR 21C2
ENCODING 8642
SWIDTH 432 0
DWIDTH 3 0
BBX 1 3 1 1
BITMAP
80
80
80
ENDCHAR
STARTCHAR 21C3
ENCODING 8643
SWIDTH 432 0
DWIDTH 3 0
BBX 1 3 1 1
BITMAP
80
80
80
ENDCHAR
STARTCHAR 21C4
ENCODING 8644
SWIDTH 1008 0
DWIDTH 7 0
BBX 5 3 1 0
BITMAP
F8
00
F8
ENDCHAR
STARTCHAR 21C5
ENCODING 8645
SWIDTH 720 0
DWIDTH 5 0
BBX 3 5 1 0
BITMAP
A0
A0
A0
A0
20
ENDCHAR
STARTCHAR 21C6
ENCODING 8646
SWIDTH 1008 0
DWIDTH 7 0
BBX 5 3 1 0
BITMAP
F8
00
F8
ENDCHAR
STARTCHAR 21C7
ENCODING 8647
SWIDTH 1008 0
DWIDTH 7 0
BBX 5 3 1 0
BITMAP
F8
80
F8
ENDCHAR
STARTCHAR 21C8
ENCODING 8648
SWIDTH 720 0
DWIDTH 5 0
BBX 3 5 1 0
BITMAP
A0
A0
A0
A0
20
ENDCHAR
STARTCHAR 21C9
ENCODING 8649
SWIDTH 1008 0
DWIDTH 7 0
BBX 5 3 1 0
BITMAP
F8
10
F8
ENDCHAR
STARTCHAR 21CA
ENCODING 8650
SWIDTH 720 0
DWIDTH 5 0
BBX 3 5 1 0
BITMAP
20
A0
A0
A0
A0
ENDCHAR
STARTCHAR 21CB
ENCODING 8651
SWIDTH 1008 0
DWIDTH 7 0
BBX 5 2 1 2
BITMAP
F8
10
ENDCHAR
STARTCHAR 21CC
ENCODING 8652
SWIDTH 1008 0
DWIDTH 7 0
BBX 5 4 1 -1
BITMAP
10
F0
00
F8
ENDCHAR
STARTCHAR 21CD
ENCODING 8653
SWIDTH 1008 0
DWIDTH 7 0
BBX 5 4 1 0
BITMAP
40
F8
F8
40
ENDCHAR
STARTCHAR 21CE
ENCODING 8654
SWIDTH 1152 0
DWIDTH 8 0
BBX 6 4 1 0
BITMAP
48
FC
FC
48
ENDCHAR
STARTCHAR 21CF
ENCODING 8655
SWIDTH 1008 0
DWIDTH 7 0
BBX 4 4 1 0
BITMAP
20
F0
F0
20
ENDCHAR
STARTCHAR 21D0
ENCODING 8656
SWIDTH 1008 0
DWIDTH 7 0
BBX 5 4 1 0
BITMAP
40
F8
F8
40
ENDCHAR
STARTCHAR 21D1
ENCODING 8657
SWIDTH 720 0
DWIDTH 5 0
BBX 3 5 1 0
BITMAP
40
A0
A0
A0
20
ENDCHAR
STARTCHAR 21D2
ENCODING 8658
SWIDTH 1008 0
DWIDTH 7 0
BBX 4 4 1 0
BITMAP
20
F0
F0
20
ENDCHAR
STARTCHAR 21D3
ENCODING 8659
SWIDTH 720 0
DWIDTH 5 0
BBX 3 5 1 0
BITMAP
20
A0
A0
A0
40
ENDCHAR
STARTCHAR 21D4
ENCODING 8660
SWIDTH 1152 0
DWIDTH 8 0
BBX 6 4 1 0
BITMAP
48
FC
FC
48
ENDCHAR
STARTCHAR 21D5
ENCODING 8661
SWIDTH 720 0
DWIDTH 5 0
BBX 3 7 1 -2
BITMAP
40
A0
A0
A0
A0
A0
40
ENDCHAR
STARTCHAR 21D6
ENCODING 8662
SWIDTH 864 0
DWIDTH 6 0
BBX 4 4 1 0
BITMAP
C0
C0
60
30
ENDCHAR
STARTCHAR 21D7
ENCODING 8663
SWIDTH 864 0
DWIDTH 6 0
BBX 4 3 1 0
BITMAP
70
50
B0
ENDCHAR
STARTCHAR 21D8
ENCODING 8664
SWIDTH 864 0
DWIDTH 6 0
BBX 4 3 1 1
BITMAP
B0
50
70
ENDCHAR
STARTCHAR 21D9
ENCODING 8665
SWIDTH 864 0
DWIDTH 6 0
BBX 4 4 1 0
BITMAP
30
60
C0
C0
ENDCHAR
STARTCHAR 21DA
ENCODING 8666
SWIDTH 1008 0
DWIDTH 7 0
BBX 5 3 1 0
BITMAP
78
F8
78
ENDCHAR
STARTCHAR 21DB
ENCODING 8667
SWIDTH 1008 0
DWIDTH 7 0
BBX 5 4 1 -1
BITMAP
20
F0
F8
F0
ENDCHAR
STARTCHAR 21DC
ENCODING 8668
SWIDTH 1152 0
DWIDTH 8 0
BBX 7 2 1 0
BITMAP
14
EA
ENDCHAR
STARTCHAR 21DD
ENCODING 8669
SWIDTH 1152 0
DWIDTH 8 0
BBX 7 3 1 0
BITMAP
54
AE
04
ENDCHAR
STARTCHAR 21DE
ENCODING 8670
SWIDTH 576 0
DWIDTH 4 0
BBX 2 6 1 -1
BITMAP
80
80
80
C0
80
C0
ENDCHAR
STARTCHAR 21DF
ENCODING 8671
SWIDTH 576 0
DWIDTH 4 0
BBX 2 6 1 0
BITMAP
C0
80
C0
80
80
80
ENDCHAR
STARTCHAR 21E0
ENCODING 8672
SWIDTH 1008 0
DWIDTH 7 0
BBX 5 1 1 1
BITMAP
88
ENDCHAR
STARTCHAR 21E1
ENCODING 8673
SWIDTH 576 0
DWIDTH 4 0
BBX 1 1 1 0
BITMAP
80
ENDCHAR
STARTCHAR 21E2
ENCODING 8674
SWIDTH 1008 0
DWIDTH 7 0
BBX 4 1 2 1
BITMAP
F0
ENDCHAR
STARTCHAR 21E3
ENCODING 8675
SWIDTH 576 0
DWIDTH 4 0
BBX 1 1 1 4
BITMAP
80
ENDCHAR
STARTCHAR 21E4
ENCODING 8676
SWIDTH 1008 0
DWIDTH 7 0
BBX 5 3 1 0
BITMAP
40
F8
40
ENDCHAR
STARTCHAR 21E5
ENCODING 8677
SWIDTH 1008 0
DWIDTH 7 0
BBX 5 2 1 0
BITMAP
08
F8
ENDCHAR
STARTCHAR 21E6
ENCODING 8678
SWIDTH 1008 0
DWIDTH 7 0
BBX 5 4 1 1
BITMAP
40
F8
F8
40
ENDCHAR
STARTCHAR 21E7
ENCODING 8679
SWIDTH 720 0
DWIDTH 5 0
BBX 3 5 1 0
BITMAP
C0
A0
A0
A0
60
ENDCHAR
STARTCHAR 21E8
ENCODING 8680
SWIDTH 1008 0
DWIDTH 7 0
BBX 4 4 1 1
BITMAP
20
F0
F0
20
ENDCHAR
STARTCHAR 21E9
ENCODING 8681
SWIDTH 720 0
DWIDTH 5 0
BBX 3 5 1 0
BITMAP
60
A0
A0
A0
C0
ENDCHAR
STARTCHAR 21EA
ENCODING 8682
SWIDTH 720 0
DWIDTH 5 0
BBX 3 6 1 -1
BITMAP
C0
A0
A0
A0
60
60
ENDCHAR
STARTCHAR 2200
ENCODING 8704
SWIDTH 864 0
DWIDTH 6 0
BBX 4 5 1 0
BITMAP
90
F0
60
60
20
ENDCHAR
STARTCHAR 2201
ENCODING 8705
SWIDTH 720 0
DWIDTH 5 0
BBX 3 7 1 -1
BITMAP
E0
A0
80
80
80
A0
E0
ENDCHAR
STARTCHAR 2202
ENCODING 8706
SWIDTH 720 0
DWIDTH 5 0
BBX 3 5 1 0
BITMAP
C0
20
E0
A0
C0
ENDCHAR
STARTCHAR 2203
ENCODING 8707
SWIDTH 720 0
DWIDTH 5 0
BBX 3 5 1 0
BITMAP
E0
20
E0
20
E0
ENDCHAR
STARTCHAR 2204
ENCODING 8708
SWIDTH 720 0
DWIDTH 5 0
BBX 3 5 1 0
BITMAP
E0
60
E0
A0
E0
ENDCHAR
STARTCHAR 2205
ENCODING 8709
SWIDTH 1008 0
DWIDTH 7 0
BBX 5 5 1 0
BITMAP
78
98
A8
C8
F0
ENDCHAR
STARTCHAR 2206
ENCODING 8710
SWIDTH 864 0
DWIDTH 6 0
BBX 4 5 1 0
BITMAP
20
60
90
90
F0
ENDCHAR
STARTCHAR 2207
ENCODING 8711
SWIDTH 864 0
DWIDTH 6 0
BBX 4 5 1 0
BITMAP
F0
90
A0
60
40
ENDCHAR
STARTCHAR 2208
ENCODING 8712
SWIDTH 864 0
DWIDTH 6 0
BBX 4 4 1 0
BITMAP
F0
80
F0
F0
ENDCHAR
STARTCHAR 2209
ENCODING 8713
SWIDTH 864 0
DWIDTH 6 0
BBX 4 5 1 0
BITMAP
F0
A0
F0
F0
40
ENDCHAR
STARTCHAR 220A
ENCODING 8714
SWIDTH 720 0
DWIDTH 5 0
BBX 3 4 1 0
BITMAP
60
80
C0
E0
ENDCHAR
STARTCHAR 220B
ENCODING 8715
SWIDTH 864 0
DWIDTH 6 0
BBX 4 4 1 0
BITMAP
E0
10
F0
E0
ENDCHAR
STARTCHAR 220C
ENCODING 8716
SWIDTH 864 0
DWIDTH 6 0
BBX 4 5 1 0
BITMAP
E0
50
F0
E0
80
ENDCHAR
STARTCHAR 220D
ENCODING 8717
SWIDTH 720 0
DWIDTH 5 0
BBX 3 4 1 0
BITMAP
E0
20
E0
C0
ENDCHAR
STARTCHAR 220E
ENCODING 8718
SWIDTH 864 0
DWIDTH 6 0
BBX 4 4 1 0
BITMAP
F0
F0
F0
F0
ENDCHAR
STARTCHAR 220F
ENCODING 8719
SWIDTH 1008 0
DWIDTH 7 0
BBX 5 5 1 0
BITMAP
F8
90
90
90
D8
ENDCHAR
STARTCHAR 2210
ENCODING 8720
SWIDTH 1008 0
DWIDTH 7 0
BBX 5 5 1 0
BITMAP
D8
90
90
90
F8
ENDCHAR
STARTCHAR 2211
ENCODING 8721
SWIDTH 864 0
DWIDTH 6 0
BBX 4 5 1 0
BITMAP
F0
90
60
C0
F0
ENDCHAR
STARTCHAR 2212
ENCODING 8722
SWIDTH 864 0
DWIDTH 6 0
BBX 4 1 1 2
BITMAP
F0
ENDCHAR
STARTCHAR 2213
ENCODING 8723
SWIDTH 864 0
DWIDTH 6 0
BBX 4 4 1 0
BITMAP
F0
00
00
F0
ENDCHAR
STARTCHAR 2214
ENCODING 8724
SWIDTH 864 0
DWIDTH 6 0
BBX 4 4 1 0
BITMAP
40
00
00
F0
ENDCHAR
STARTCHAR 2215
ENCODING 8725
SWIDTH 576 0
DWIDTH 4 0
BBX 2 5 1 -1
BITMAP
40
80
80
80
80
ENDCHAR
STARTCHAR 2216
ENCODING 8726
SWIDTH 576 0
DWIDTH 4 0
BBX 2 5 1 0
BITMAP
80
80
80
80
40
ENDCHAR
STARTCHAR 2217
ENCODING 8727
SWIDTH 864 0
DWIDTH 6 0
BBX 3 2 1 1
BITMAP
E0
E0
ENDCHAR
STARTCHAR 2218
ENCODING 8728
SWIDTH 576 0
DWIDTH 4 0
BBX 2 2 1 1
BITMAP
C0
C0
ENDCHAR
STARTCHAR 2219
ENCODING 8729
SWIDTH 576 0
DWIDTH 4 0
BBX 2 2 1 1
BITMAP
C0
C0
ENDCHAR
STARTCHAR 221A
ENCODING 8730
SWIDTH 864 0
DWIDTH 6 0
BBX 5 7 1 -1
BITMAP
08
10
10
20
A0
A0
40
ENDCHAR
STARTCHAR 221B
ENCODING 8731
SWIDTH 864 0
DWIDTH 6 0
BBX 5 7 1 -1
BITMAP
68
50
70
20
A0
A0
40
ENDCHAR
STARTCHAR 221C
ENCODING 8732
SWIDTH 864 0
DWIDTH 6 0
BBX 5 7 1 -1
BITMAP
48
70
10
20
A0
A0
40
ENDCHAR
STARTCHAR 221D
ENCODING 8733
SWIDTH 1008 0
DWIDTH 7 0
BBX 5 3 1 0
BITMAP
D8
A0
D8
ENDCHAR
STARTCHAR 221E
ENCODING 8734
SWIDTH 1008 0
DWIDTH 7 0
BBX 5 3 1 0
BITMAP
D8
A8
D8
ENDCHAR
STARTCHAR 221F
ENCODING 8735
SWIDTH 864 0
DWIDTH 6 0
BBX 4 3 1 1
BITMAP
80
80
F0
ENDCHAR
STARTCHAR 2220
ENCODING 8736
SWIDTH 864 0
DWIDTH 6 0
BBX 4 4 1 0
BITMAP
10
20
C0
F0
ENDCHAR
STARTCHAR 2221
ENCODING 8737
SWIDTH 864 0
DWIDTH 6 0
BBX 4 5 1 -1
BITMAP
10
30
40
F0
20
ENDCHAR
STARTCHAR 2222
ENCODING 8738
SWIDTH 864 0
DWIDTH 6 0
BBX 4 3 1 0
BITMAP
30
E0
70
ENDCHAR
STARTCHAR 2223
ENCODING 8739
SWIDTH 432 0
DWIDTH 3 0
BBX 1 4 1 0
BITMAP
80
80
80
80
ENDCHAR
STARTCHAR 2224
ENCODING 8740
SWIDTH 576 0
DWIDTH 4 0
BBX 2 4 1 0
BITMAP
80
C0
80
80
ENDCHAR
STARTCHAR 2225
ENCODING 8741
SWIDTH 576 0
DWIDTH 4 0
BBX 2 4 1 0
BITMAP
C0
C0
C0
C0
ENDCHAR
STARTCHAR 2226
ENCODING 8742
SWIDTH 720 0
DWIDTH 5 0
BBX 3 4 1 0
BITMAP
C0
60
C0
C0
ENDCHAR
STARTCHAR 2227
ENCODING 8743
SWIDTH 864 0
DWIDTH 6 0
BBX 4 4 1 0
BITMAP
40
60
A0
10
ENDCHAR
STARTCHAR 2228
ENCODING 8744
SWIDTH 864 0
DWIDTH 6 0
BBX 4 4 1 0
BITMAP
10
A0
A0
40
ENDCHAR
STARTCHAR 2229
ENCODING 8745
SWIDTH 864 0
DWIDTH 6 0
BBX 4 4 1 0
BITMAP
E0
90
90
10
ENDCHAR
STARTCHAR 222A
ENCODING 8746
SWIDTH 864 0
DWIDTH 6 0
BBX 4 4 1 0
BITMAP
10
90
90
E0
ENDCHAR
STARTCHAR 222B
ENCODING 8747
SWIDTH 576 0
DWIDTH 4 0
BBX 2 6 1 -1
BITMAP
40
80
80
80
80
80
ENDCHAR
STARTCHAR 222C
ENCODING 8748
SWIDTH 864 0
DWIDTH 6 0
BBX 4 6 1 -1
BITMAP
50
A0
A0
A0
A0
A0
ENDCHAR
STARTCHAR 222D
ENCODING 8749
SWIDTH 1152 0
DWIDTH 8 0
BBX 6 6 1 -1
BITMAP
54
A8
A8
A8
A8
A8
ENDCHAR
STARTCHAR 222E
ENCODING 8750
SWIDTH 576 0
DWIDTH 4 0
BBX 3 6 1 -1
BITMAP
40
80
C0
A0
C0
80
ENDCHAR
STARTCHAR 222F
ENCODING 8751
SWIDTH 864 0
DWIDTH 6 0
BBX 4 6 1 -1
BITMAP
50
F0
B0
F0
A0
A0
ENDCHAR
STARTCHAR 2230
ENCODING 8752
SWIDTH 1152 0
DWIDTH 8 0
BBX 6 6 1 -1
BITMAP
54
A8
7C
AC
7C
A8
ENDCHAR
STARTCHAR 2231
ENCODING 8753
SWIDTH 576 0
DWIDTH 4 0
BBX 3 6 1 -1
BITMAP
40
80
C0
A0
80
80
ENDCHAR
STARTCHAR 2232
ENCODING 8754
SWIDTH 576 0
DWIDTH 4 0
BBX 3 6 1 -1
BITMAP
40
80
C0
A0
C0
80
ENDCHAR
STARTCHAR 2233
ENCODING 8755
SWIDTH 576 0
DWIDTH 4 0
BBX 3 6 1 -1
BITMAP
40
80
C0
A0
C0
80
ENDCHAR
STARTCHAR 2234
ENCODING 8756
SWIDTH 864 0
DWIDTH 6 0
BBX 4 4 1 0
BITMAP
40
00
00
90
ENDCHAR
STARTCHAR 2235
ENCODING 8757
SWIDTH 864 0
DWIDTH 6 0
BBX 4 4 1 0
BITMAP
90
00
00
40
ENDCHAR
STARTCHAR 2236
ENCODING 8758
SWIDTH 432 0
DWIDTH 3 0
BBX 1 4 1 0
BITMAP
80
00
80
80
ENDCHAR
STARTCHAR 2237
ENCODING 8759
SWIDTH 864 0
DWIDTH 6 0
BBX 4 4 1 0
BITMAP
90
00
00
90
ENDCHAR
STARTCHAR 2238
ENCODING 8760
SWIDTH 864 0
DWIDTH 6 0
BBX 4 3 1 1
BITMAP
40
00
F0
ENDCHAR
STARTCHAR 2239
ENCODING 8761
SWIDTH 864 0
DWIDTH 6 0
BBX 4 5 1 -1
BITMAP
10
00
E0
00
10
ENDCHAR
STARTCHAR 223A
ENCODING 8762
SWIDTH 864 0
DWIDTH 6 0
BBX 4 5 1 -1
BITMAP
90
00
F0
00
90
ENDCHAR
STARTCHAR 223B
ENCODING 8763
SWIDTH 864 0
DWIDTH 6 0
BBX 4 3 1 1
BITMAP
40
F0
40
ENDCHAR
STARTCHAR 223C
ENCODING 8764
SWIDTH 864 0
DWIDTH 6 0
BBX 4 1 1 1
BITMAP
F0
ENDCHAR
STARTCHAR 223D
ENCODING 8765
SWIDTH 864 0
DWIDTH 6 0
BBX 4 1 1 1
BITMAP
F0
ENDCHAR
STARTCHAR 223E
ENCODING 8766
SWIDTH 864 0
DWIDTH 6 0
BBX 4 2 1 1
BITMAP
F0
B0
ENDCHAR
STARTCHAR 223F
ENCODING 8767
SWIDTH 864 0
DWIDTH 6 0
BBX 4 4 1 0
BITMAP
80
40
50
20
ENDCHAR
STARTCHAR 2240
ENCODING 8768
SWIDTH 432 0
DWIDTH 3 0
BBX 1 6 1 -1
BITMAP
80
80
80
80
80
80
ENDCHAR
STARTCHAR 2241
ENCODING 8769
SWIDTH 864 0
DWIDTH 6 0
BBX 4 2 1 1
BITMAP
F0
40
ENDCHAR
STARTCHAR 2242
ENCODING 8770
SWIDTH 864 0
DWIDTH 6 0
BBX 4 2 1 1
BITMAP
F0
F0
ENDCHAR
STARTCHAR 2243
ENCODING 8771
SWIDTH 864 0
DWIDTH 6 0
BBX 4 2 1 1
BITMAP
F0
F0
ENDCHAR
STARTCHAR 2244
ENCODING 8772
SWIDTH 864 0
DWIDTH 6 0
BBX 4 2 1 1
BITMAP
F0
F0
ENDCHAR
STARTCHAR 2245
ENCODING 8773
SWIDTH 864 0
DWIDTH 6 0
BBX 4 3 1 0
BITMAP
F0
F0
F0
ENDCHAR
STARTCHAR 2246
ENCODING 8774
SWIDTH 864 0
DWIDTH 6 0
BBX 4 4 1 -1
BITMAP
F0
F0
F0
40
ENDCHAR
STARTCHAR 2247
ENCODING 8775
SWIDTH 864 0
DWIDTH 6 0
BBX 4 4 1 -1
BITMAP
20
F0
F0
F0
ENDCHAR
STARTCHAR 2248
ENCODING 8776
SWIDTH 864 0
DWIDTH 6 0
BBX 4 3 1 1
BITMAP
F0
00
F0
ENDCHAR
STARTCHAR 2249
ENCODING 8777
SWIDTH 864 0
DWIDTH 6 0
BBX 4 3 1 1
BITMAP
F0
40
F0
ENDCHAR
STARTCHAR 224A
ENCODING 8778
SWIDTH 864 0
DWIDTH 6 0
BBX 4 4 1 0
BITMAP
F0
00
F0
F0
ENDCHAR
STARTCHAR 224B
ENCODING 8779
SWIDTH 864 0
DWIDTH 6 0
BBX 4 5 1 0
BITMAP
F0
00
F0
00
F0
ENDCHAR
STARTCHAR 224C
ENCODING 8780
SWIDTH 864 0
DWIDTH 6 0
BBX 4 4 1 0
BITMAP
B0
D0
F0
F0
ENDCHAR
STARTCHAR 224D
ENCODING 8781
SWIDTH 864 0
DWIDTH 6 0
BBX 3 3 1 1
BITMAP
E0
00
E0
ENDCHAR
STARTCHAR 224E
ENCODING 8782
SWIDTH 864 0
DWIDTH 6 0
BBX 4 4 1 0
BITMAP
F0
00
00
F0
ENDCHAR
STARTCHAR 224F
ENCODING 8783
SWIDTH 864 0
DWIDTH 6 0
BBX 4 3 1 1
BITMAP
F0
00
F0
ENDCHAR
STARTCHAR 2250
ENCODING 8784
SWIDTH 864 0
DWIDTH 6 0
BBX 4 3 1 1
BITMAP
40
F0
F0
ENDCHAR
STARTCHAR 2251
ENCODING 8785
SWIDTH 864 0
DWIDTH 6 0
BBX 4 4 1 0
BITMAP
40
F0
F0
40
ENDCHAR
STARTCHAR 2252
ENCODING 8786
SWIDTH 864 0
DWIDTH 6 0
BBX 4 4 1 0
BITMAP
80
F0
F0
10
ENDCHAR
STARTCHAR 2253
ENCODING 8787
SWIDTH 864 0
DWIDTH 6 0
BBX 4 4 1 0
BITMAP
10
F0
F0
80
ENDCHAR
STARTCHAR 2254
ENCODING 8788
SWIDTH 864 0
DWIDTH 6 0
BBX 4 2 1 1
BITMAP
F0
F0
ENDCHAR
STARTCHAR 2255
ENCODING 8789
SWIDTH 864 0
DWIDTH 6 0
BBX 4 2 1 1
BITMAP
D0
D0
ENDCHAR
STARTCHAR 2256
ENCODING 8790
SWIDTH 864 0
DWIDTH 6 0
BBX 4 2 1 1
BITMAP
F0
F0
ENDCHAR
STARTCHAR 2257
ENCODING 8791
SWIDTH 864 0
DWIDTH 6 0
BBX 4 4 1 0
BITMAP
60
60
F0
F0
ENDCHAR
STARTCHAR 2258
ENCODING 8792
SWIDTH 864 0
DWIDTH 6 0
BBX 4 4 1 0
BITMAP
E0
00
F0
F0
ENDCHAR
STARTCHAR 2259
ENCODING 8793
SWIDTH 864 0
DWIDTH 6 0
BBX 4 4 1 1
BITMAP
40
20
F0
F0
ENDCHAR
STARTCHAR 225A
ENCODING 8794
SWIDTH 864 0
DWIDTH 6 0
BBX 4 4 1 1
BITMAP
A0
40
F0
F0
ENDCHAR
STARTCHAR 225B
ENCODING 8795
SWIDTH 864 0
DWIDTH 6 0
BBX 4 4 1 1
BITMAP
60
40
F0
F0
ENDCHAR
STARTCHAR 225C
ENCODING 8796
SWIDTH 864 0
DWIDTH 6 0
BBX 4 4 1 1
BITMAP
E0
60
F0
F0
ENDCHAR
STARTCHAR 225D
ENCODING 8797
SWIDTH 864 0
DWIDTH 6 0
BBX 4 4 1 0
BITMAP
10
F0
F0
F0
ENDCHAR
STARTCHAR 225E
ENCODING 8798
SWIDTH 864 0
DWIDTH 6 0
BBX 4 4 1 0
BITMAP
E0
80
F0
F0
ENDCHAR
STARTCHAR 225F
ENCODING 8799
SWIDTH 864 0
DWIDTH 6 0
BBX 4 5 1 0
BITMAP
60
00
00
F0
F0
ENDCHAR
STARTCHAR 2260
ENCODING 8800
SWIDTH 864 0
DWIDTH 6 0
BBX 4 4 1 0
BITMAP
F0
40
F0
40
ENDCHAR
STARTCHAR 2261
ENCODING 8801
SWIDTH 864 0
DWIDTH 6 0
BBX 4 5 1 1
BITMAP
F0
00
F0
00
F0
ENDCHAR
STARTCHAR 2262
ENCODING 8802
SWIDTH 864 0
DWIDTH 6 0
BBX 4 4 1 0
BITMAP
20
F0
F0
F0
ENDCHAR
STARTCHAR 2263
ENCODING 8803
SWIDTH 864 0
DWIDTH 6 0
BBX 4 4 1 0
BITMAP
F0
F0
F0
F0
ENDCHAR
STARTCHAR 2264
ENCODING 8804
SWIDTH 864 0
DWIDTH 6 0
BBX 4 4 1 0
BITMAP
20
C0
60
F0
ENDCHAR
STARTCHAR 2265
ENCODING 8805
SWIDTH 864 0
DWIDTH 6 0
BBX 4 4 1 0
BITMAP
80
70
E0
F0
ENDCHAR
STARTCHAR 2266
ENCODING 8806
SWIDTH 864 0
DWIDTH 6 0
BBX 4 5 1 0
BITMAP
20
C0
60
F0
F0
ENDCHAR
STARTCHAR 2267
ENCODING 8807
SWIDTH 864 0
DWIDTH 6 0
BBX 4 5 1 0
BITMAP
80
70
E0
F0
F0
ENDCHAR
STARTCHAR 2268
ENCODING 8808
SWIDTH 864 0
DWIDTH 6 0
BBX 4 5 1 -1
BITMAP
20
C0
60
F0
F0
ENDCHAR
STARTCHAR 2269
ENCODING 8809
SWIDTH 864 0
DWIDTH 6 0
BBX 4 6 1 -1
BITMAP
80
70
E0
F0
F0
40
ENDCHAR
STARTCHAR 226A
ENCODING 8810
SWIDTH 1152 0
DWIDTH 8 0
BBX 6 5 1 0
BITMAP
14
78
A0
50
3C
ENDCHAR
STARTCHAR 226B
ENCODING 8811
SWIDTH 1152 0
DWIDTH 8 0
BBX 6 5 1 0
BITMAP
A0
50
3C
78
A0
ENDCHAR
STARTCHAR 226C
ENCODING 8812
SWIDTH 576 0
DWIDTH 4 0
BBX 2 6 1 -1
BITMAP
C0
80
C0
C0
80
C0
ENDCHAR
STARTCHAR 226D
ENCODING 8813
SWIDTH 864 0
DWIDTH 6 0
BBX 3 3 1 0
BITMAP
E0
40
E0
ENDCHAR
STARTCHAR 226E
ENCODING 8814
SWIDTH 864 0
DWIDTH 6 0
BBX 4 5 1 0
BITMAP
30
40
C0
40
30
ENDCHAR
STARTCHAR 226F
ENCODING 8815
SWIDTH 864 0
DWIDTH 6 0
BBX 4 5 1 0
BITMAP
A0
40
70
60
80
ENDCHAR
STARTCHAR 2270
ENCODING 8816
SWIDTH 864 0
DWIDTH 6 0
BBX 3 4 1 1
BITMAP
20
C0
A0
60
ENDCHAR
STARTCHAR 2271
ENCODING 8817
SWIDTH 864 0
DWIDTH 6 0
BBX 4 4 1 0
BITMAP
C0
70
E0
80
ENDCHAR
STARTCHAR 2272
ENCODING 8818
SWIDTH 864 0
DWIDTH 6 0
BBX 4 4 1 0
BITMAP
20
C0
60
F0
ENDCHAR
STARTCHAR 2273
ENCODING 8819
SWIDTH 864 0
DWIDTH 6 0
BBX 4 4 1 0
BITMAP
80
70
E0
F0
ENDCHAR
STARTCHAR 2274
ENCODING 8820
SWIDTH 864 0
DWIDTH 6 0
BBX 4 5 1 -1
BITMAP
20
20
C0
70
F0
ENDCHAR
STARTCHAR 2275
ENCODING 8821
SWIDTH 864 0
DWIDTH 6 0
BBX 4 4 1 1
BITMAP
C0
70
A0
F0
ENDCHAR
STARTCHAR 2276
ENCODING 8822
SWIDTH 864 0
DWIDTH 6 0
BBX 4 5 1 -1
BITMAP
20
C0
E0
50
E0
ENDCHAR
STARTCHAR 2277
ENCODING 8823
SWIDTH 864 0
DWIDTH 6 0
BBX 4 5 1 -1
BITMAP
80
70
E0
C0
60
ENDCHAR
STARTCHAR 2278
ENCODING 8824
SWIDTH 864 0
DWIDTH 6 0
BBX 4 5 1 0
BITMAP
20
C0
A0
50
A0
ENDCHAR
STARTCHAR 2279
ENCODING 8825
SWIDTH 864 0
DWIDTH 6 0
BBX 4 5 1 0
BITMAP
C0
70
A0
C0
20
ENDCHAR
STARTCHAR 227A
ENCODING 8826
SWIDTH 864 0
DWIDTH 6 0
BBX 4 5 1 0
BITMAP
10
20
C0
60
10
ENDCHAR
STARTCHAR 227B
ENCODING 8827
SWIDTH 864 0
DWIDTH 6 0
BBX 4 4 1 1
BITMAP
C0
30
40
80
ENDCHAR
STARTCHAR 227C
ENCODING 8828
SWIDTH 864 0
DWIDTH 6 0
BBX 4 6 1 -1
BITMAP
10
20
C0
60
D0
20
ENDCHAR
STARTCHAR 227D
ENCODING 8829
SWIDTH 864 0
DWIDTH 6 0
BBX 4 5 1 0
BITMAP
C0
30
40
B0
C0
ENDCHAR
STARTCHAR 227E
ENCODING 8830
SWIDTH 864 0
DWIDTH 6 0
BBX 4 7 1 0
BITMAP
10
20
C0
60
10
00
F0
ENDCHAR
STARTCHAR 227F
ENCODING 8831
SWIDTH 864 0
DWIDTH 6 0
BBX 4 6 1 1
BITMAP
C0
30
40
80
00
F0
ENDCHAR
STARTCHAR 2280
ENCODING 8832
SWIDTH 864 0
DWIDTH 6 0
BBX 4 5 1 0
BITMAP
10
20
E0
60
30
ENDCHAR
STARTCHAR 2281
ENCODING 8833
SWIDTH 864 0
DWIDTH 6 0
BBX 4 3 1 1
BITMAP
80
F0
C0
ENDCHAR
STARTCHAR 2282
ENCODING 8834
SWIDTH 864 0
DWIDTH 6 0
BBX 4 4 1 0
BITMAP
F0
80
80
F0
ENDCHAR
STARTCHAR 2283
ENCODING 8835
SWIDTH 864 0
DWIDTH 6 0
BBX 4 4 1 0
BITMAP
E0
10
10
E0
ENDCHAR
STARTCHAR 2284
ENCODING 8836
SWIDTH 864 0
DWIDTH 6 0
BBX 4 5 1 0
BITMAP
F0
A0
C0
F0
40
ENDCHAR
STARTCHAR 2285
ENCODING 8837
SWIDTH 864 0
DWIDTH 6 0
BBX 4 5 1 0
BITMAP
E0
50
90
E0
80
ENDCHAR
STARTCHAR 2286
ENCODING 8838
SWIDTH 864 0
DWIDTH 6 0
BBX 4 4 1 0
BITMAP
F0
80
F0
F0
ENDCHAR
STARTCHAR 2287
ENCODING 8839
SWIDTH 864 0
DWIDTH 6 0
BBX 4 4 1 0
BITMAP
E0
10
E0
F0
ENDCHAR
STARTCHAR 2288
ENCODING 8840
SWIDTH 864 0
DWIDTH 6 0
BBX 4 5 1 -1
BITMAP
20
F0
C0
F0
F0
ENDCHAR
STARTCHAR 2289
ENCODING 8841
SWIDTH 864 0
DWIDTH 6 0
BBX 4 5 1 0
BITMAP
E0
50
E0
F0
80
ENDCHAR
STARTCHAR 228A
ENCODING 8842
SWIDTH 864 0
DWIDTH 6 0
BBX 4 5 1 -1
BITMAP
F0
80
F0
F0
40
ENDCHAR
STARTCHAR 228B
ENCODING 8843
SWIDTH 864 0
DWIDTH 6 0
BBX 4 5 1 -1
BITMAP
E0
10
E0
F0
40
ENDCHAR
STARTCHAR 228C
ENCODING 8844
SWIDTH 864 0
DWIDTH 6 0
BBX 4 4 1 0
BITMAP
10
90
B0
E0
ENDCHAR
STARTCHAR 228D
ENCODING 8845
SWIDTH 864 0
DWIDTH 6 0
BBX 4 4 1 0
BITMAP
10
D0
90
E0
ENDCHAR
STARTCHAR 228E
ENCODING 8846
SWIDTH 864 0
DWIDTH 6 0
BBX 4 4 1 0
BITMAP
10
90
F0
E0
ENDCHAR
STARTCHAR 228F
ENCODING 8847
SWIDTH 864 0
DWIDTH 6 0
BBX 4 4 1 0
BITMAP
F0
80
80
F0
ENDCHAR
STARTCHAR 2290
ENCODING 8848
SWIDTH 864 0
DWIDTH 6 0
BBX 4 4 1 0
BITMAP
F0
10
10
F0
ENDCHAR
STARTCHAR 2291
ENCODING 8849
SWIDTH 864 0
DWIDTH 6 0
BBX 4 4 1 0
BITMAP
F0
80
F0
F0
ENDCHAR
STARTCHAR 2292
ENCODING 8850
SWIDTH 864 0
DWIDTH 6 0
BBX 4 4 1 0
BITMAP
F0
10
F0
F0
ENDCHAR
STARTCHAR 2293
ENCODING 8851
SWIDTH 864 0
DWIDTH 6 0
BBX 4 4 1 0
BITMAP
F0
90
90
10
ENDCHAR
STARTCHAR 2294
ENCODING 8852
SWIDTH 864 0
DWIDTH 6 0
BBX 4 5 1 0
BITMAP
10
90
90
90
F0
ENDCHAR
STARTCHAR 2295
ENCODING 8853
SWIDTH 864 0
DWIDTH 6 0
BBX 4 4 1 0
BITMAP
E0
D0
F0
E0
ENDCHAR
STARTCHAR 2296
ENCODING 8854
SWIDTH 864 0
DWIDTH 6 0
BBX 4 4 1 0
BITMAP
E0
90
F0
E0
ENDCHAR
STARTCHAR 2297
ENCODING 8855
SWIDTH 864 0
DWIDTH 6 0
BBX 4 4 1 0
BITMAP
E0
B0
F0
E0
ENDCHAR
STARTCHAR 2298
ENCODING 8856
SWIDTH 864 0
DWIDTH 6 0
BBX 4 4 1 0
BITMAP
E0
B0
D0
E0
ENDCHAR
STARTCHAR 2299
ENCODING 8857
SWIDTH 864 0
DWIDTH 6 0
BBX 4 4 1 0
BITMAP
E0
90
D0
E0
ENDCHAR
STARTCHAR 229A
ENCODING 8858
SWIDTH 864 0
DWIDTH 6 0
BBX 4 4 1 0
BITMAP
E0
D0
D0
E0
ENDCHAR
STARTCHAR 229B
ENCODING 8859
SWIDTH 864 0
DWIDTH 6 0
BBX 4 4 1 0
BITMAP
E0
B0
D0
E0
ENDCHAR
STARTCHAR 229C
ENCODING 8860
SWIDTH 864 0
DWIDTH 6 0
BBX 4 4 1 0
BITMAP
E0
F0
F0
E0
ENDCHAR
STARTCHAR 229D
ENCODING 8861
SWIDTH 864 0
DWIDTH 6 0
BBX 4 4 1 0
BITMAP
E0
90
F0
E0
ENDCHAR
STARTCHAR 229E
ENCODING 8862
SWIDTH 864 0
DWIDTH 6 0
BBX 4 4 1 0
BITMAP
F0
D0
F0
F0
ENDCHAR
STARTCHAR 229F
ENCODING 8863
SWIDTH 864 0
DWIDTH 6 0
BBX 4 4 1 0
BITMAP
F0
90
F0
F0
ENDCHAR
STARTCHAR 22A0
ENCODING 8864
SWIDTH 864 0
DWIDTH 6 0
BBX 4 4 1 0
BITMAP
F0
B0
F0
F0
ENDCHAR
STARTCHAR 22A1
ENCODING 8865
SWIDTH 864 0
DWIDTH 6 0
BBX 4 4 1 0
BITMAP
F0
90
D0
F0
ENDCHAR
STARTCHAR 22A2
ENCODING 8866
SWIDTH 864 0
DWIDTH 6 0
BBX 4 2 1 1
BITMAP
80
F0
ENDCHAR
STARTCHAR 22A3
ENCODING 8867
SWIDTH 864 0
DWIDTH 6 0
BBX 4 4 1 0
BITMAP
10
10
F0
10
ENDCHAR
STARTCHAR 22A4
ENCODING 8868
SWIDTH 864 0
DWIDTH 6 0
BBX 4 3 1 0
BITMAP
F0
40
40
ENDCHAR
STARTCHAR 22A5
ENCODING 8869
SWIDTH 864 0
DWIDTH 6 0
BBX 4 3 1 1
BITMAP
40
40
F0
ENDCHAR
STARTCHAR 22A6
ENCODING 8870
SWIDTH 576 0
DWIDTH 4 0
BBX 2 2 1 1
BITMAP
80
C0
ENDCHAR
STARTCHAR 22A7
ENCODING 8871
SWIDTH 576 0
DWIDTH 4 0
BBX 2 2 1 1
BITMAP
C0
C0
ENDCHAR
STARTCHAR 22A8
ENCODING 8872
SWIDTH 864 0
DWIDTH 6 0
BBX 4 2 1 1
BITMAP
F0
F0
ENDCHAR
STARTCHAR 22A9
ENCODING 8873
SWIDTH 864 0
DWIDTH 6 0
BBX 4 2 1 1
BITMAP
80
F0
ENDCHAR
STARTCHAR 22AA
ENCODING 8874
SWIDTH 864 0
DWIDTH 6 0
BBX 4 2 1 1
BITMAP
C0
B0
ENDCHAR
STARTCHAR 22AB
ENCODING 8875
SWIDTH 864 0
DWIDTH 6 0
BBX 4 2 1 1
BITMAP
F0
F0
ENDCHAR
STARTCHAR 22AC
ENCODING 8876
SWIDTH 864 0
DWIDTH 6 0
BBX 4 2 1 1
BITMAP
C0
F0
ENDCHAR
STARTCHAR 22AD
ENCODING 8877
SWIDTH 864 0
DWIDTH 6 0
BBX 4 2 1 1
BITMAP
F0
F0
ENDCHAR
STARTCHAR 22AE
ENCODING 8878
SWIDTH 864 0
DWIDTH 6 0
BBX 4 2 1 1
BITMAP
A0
F0
ENDCHAR
STARTCHAR 22AF
ENCODING 8879
SWIDTH 864 0
DWIDTH 6 0
BBX 4 2 1 1
BITMAP
F0
F0
ENDCHAR
STARTCHAR 22B0
ENCODING 8880
SWIDTH 864 0
DWIDTH 6 0
BBX 4 5 1 0
BITMAP
10
20
C0
60
10
ENDCHAR
STARTCHAR 22B1
ENCODING 8881
SWIDTH 864 0
DWIDTH 6 0
BBX 4 5 1 0
BITMAP
80
80
70
E0
80
ENDCHAR
STARTCHAR 22B2
ENCODING 8882
SWIDTH 864 0
DWIDTH 6 0
BBX 3 4 1 0
BITMAP
80
E0
A0
C0
ENDCHAR
STARTCHAR 22B3
ENCODING 8883
SWIDTH 864 0
DWIDTH 6 0
BBX 4 4 1 0
BITMAP
10
70
D0
30
ENDCHAR
STARTCHAR 22B4
ENCODING 8884
SWIDTH 864 0
DWIDTH 6 0
BBX 4 4 1 0
BITMAP
30
D0
70
F0
ENDCHAR
STARTCHAR 22B5
ENCODING 8885
SWIDTH 864 0
DWIDTH 6 0
BBX 4 4 1 0
BITMAP
80
F0
E0
F0
ENDCHAR
STARTCHAR 22B6
ENCODING 8886
SWIDTH 1008 0
DWIDTH 7 0
BBX 5 2 1 1
BITMAP
98
F8
ENDCHAR
STARTCHAR 22B7
ENCODING 8887
SWIDTH 1008 0
DWIDTH 7 0
BBX 5 2 1 1
BITMAP
98
F8
ENDCHAR
STARTCHAR 22B8
ENCODING 8888
SWIDTH 864 0
DWIDTH 6 0
BBX 4 2 1 1
BITMAP
30
F0
ENDCHAR
STARTCHAR 22B9
ENCODING 8889
SWIDTH 864 0
DWIDTH 6 0
BBX 4 1 1 1
BITMAP
B0
ENDCHAR
STARTCHAR 22BA
ENCODING 8890
SWIDTH 576 0
DWIDTH 4 0
BBX 3 4 1 -2
BITMAP
E0
80
80
80
ENDCHAR
STARTCHAR 22BB
ENCODING 8891
SWIDTH 864 0
DWIDTH 6 0
BBX 4 4 1 0
BITMAP
A0
C0
40
F0
ENDCHAR
STARTCHAR 22BC
ENCODING 8892
SWIDTH 864 0
DWIDTH 6 0
BBX 4 3 1 0
BITMAP
F0
40
A0
ENDCHAR
STARTCHAR 22BD
ENCODING 8893
SWIDTH 864 0
DWIDTH 6 0
BBX 4 4 1 0
BITMAP
F0
00
60
40
ENDCHAR
STARTCHAR 22BE
ENCODING 8894
SWIDTH 864 0
DWIDTH 6 0
BBX 4 3 1 1
BITMAP
C0
C0
F0
ENDCHAR
STARTCHAR 22BF
ENCODING 8895
SWIDTH 864 0
DWIDTH 6 0
BBX 4 4 1 0
BITMAP
10
30
D0
F0
ENDCHAR
STARTCHAR 22C0
ENCODING 8896
SWIDTH 864 0
DWIDTH 6 0
BBX 4 4 1 0
BITMAP
40
60
A0
90
ENDCHAR
STARTCHAR 22C1
ENCODING 8897
SWIDTH 864 0
DWIDTH 6 0
BBX 4 4 1 0
BITMAP
90
A0
60
40
ENDCHAR
STARTCHAR 22C2
ENCODING 8898
SWIDTH 864 0
DWIDTH 6 0
BBX 4 4 1 0
BITMAP
E0
90
90
90
ENDCHAR
STARTCHAR 22C3
ENCODING 8899
SWIDTH 864 0
DWIDTH 6 0
BBX 4 4 1 0
BITMAP
90
90
90
E0
ENDCHAR
STARTCHAR 22C4
ENCODING 8900
SWIDTH 864 0
DWIDTH 6 0
BBX 4 5 1 0
BITMAP
40
A0
90
A0
40
ENDCHAR
STARTCHAR 22C5
ENCODING 8901
SWIDTH 432 0
DWIDTH 3 0
BBX 1 1 1 1
BITMAP
80
ENDCHAR
STARTCHAR 22C6
ENCODING 8902
SWIDTH 864 0
DWIDTH 6 0
BBX 2 3 2 1
BITMAP
80
C0
40
ENDCHAR
STARTCHAR 22C7
ENCODING 8903
SWIDTH 864 0
DWIDTH 6 0
BBX 4 5 1 -1
BITMAP
50
A0
F0
A0
50
ENDCHAR
STARTCHAR 22C8
ENCODING 8904
SWIDTH 1008 0
DWIDTH 7 0
BBX 5 4 1 0
BITMAP
88
D8
F8
88
ENDCHAR
STARTCHAR 22C9
ENCODING 8905
SWIDTH 864 0
DWIDTH 6 0
BBX 4 4 1 0
BITMAP
90
E0
E0
90
ENDCHAR
STARTCHAR 22CA
ENCODING 8906
SWIDTH 864 0
DWIDTH 6 0
BBX 4 4 1 0
BITMAP
90
70
70
90
ENDCHAR
STARTCHAR 22CB
ENCODING 8907
SWIDTH 864 0
DWIDTH 6 0
BBX 4 4 1 0
BITMAP
80
40
60
90
ENDCHAR
STARTCHAR 22CC
ENCODING 8908
SWIDTH 864 0
DWIDTH 6 0
BBX 4 4 1 0
BITMAP
10
20
60
90
ENDCHAR
STARTCHAR 22CD
ENCODING 8909
SWIDTH 864 0
DWIDTH 6 0
BBX 4 2 1 1
BITMAP
F0
F0
ENDCHAR
STARTCHAR 22CE
ENCODING 8910
SWIDTH 864 0
DWIDTH 6 0
BBX 4 3 1 0
BITMAP
90
A0
40
ENDCHAR
STARTCHAR 22CF
ENCODING 8911
SWIDTH 864 0
DWIDTH 6 0
BBX 4 3 1 1
BITMAP
40
A0
90
ENDCHAR
STARTCHAR 22D0
ENCODING 8912
SWIDTH 864 0
DWIDTH 6 0
BBX 4 4 1 0
BITMAP
F0
F0
F0
F0
ENDCHAR
STARTCHAR 22D1
ENCODING 8913
SWIDTH 864 0
DWIDTH 6 0
BBX 4 4 1 0
BITMAP
E0
F0
F0
E0
ENDCHAR
STARTCHAR 22D2
ENCODING 8914
SWIDTH 864 0
DWIDTH 6 0
BBX 4 4 1 0
BITMAP
30
B0
F0
E0
ENDCHAR
STARTCHAR 22D3
ENCODING 8915
SWIDTH 864 0
DWIDTH 6 0
BBX 4 4 1 0
BITMAP
E0
F0
B0
30
ENDCHAR
STARTCHAR 22D4
ENCODING 8916
SWIDTH 864 0
DWIDTH 6 0
BBX 4 4 1 1
BITMAP
E0
D0
D0
10
ENDCHAR
STARTCHAR 22D5
ENCODING 8917
SWIDTH 864 0
DWIDTH 6 0
BBX 4 4 1 0
BITMAP
20
F0
F0
20
ENDCHAR
STARTCHAR 22D6
ENCODING 8918
SWIDTH 864 0
DWIDTH 6 0
BBX 4 5 1 0
BITMAP
10
60
A0
40
30
ENDCHAR
STARTCHAR 22D7
ENCODING 8919
SWIDTH 864 0
DWIDTH 6 0
BBX 4 5 1 0
BITMAP
80
40
B0
60
80
ENDCHAR
STARTCHAR 22D8
ENCODING 8920
SWIDTH 1440 0
DWIDTH 10 0
BBX 8 5 1 0
BITMAP
15
7A
AC
56
3D
ENDCHAR
STARTCHAR 22D9
ENCODING 8921
SWIDTH 1440 0
DWIDTH 10 0
BBX 8 5 1 0
BITMAP
A8
56
3D
7A
AC
ENDCHAR
STARTCHAR 22DA
ENCODING 8922
SWIDTH 864 0
DWIDTH 6 0
BBX 4 9 1 -1
BITMAP
20
C0
60
00
F0
00
80
70
E0
ENDCHAR
STARTCHAR 22DB
ENCODING 8923
SWIDTH 864 0
DWIDTH 6 0
BBX 4 9 1 -1
BITMAP
80
70
E0
00
F0
00
20
C0
60
ENDCHAR
STARTCHAR 22DC
ENCODING 8924
SWIDTH 864 0
DWIDTH 6 0
BBX 3 4 1 0
BITMAP
20
E0
C0
60
ENDCHAR
STARTCHAR 22DD
ENCODING 8925
SWIDTH 864 0
DWIDTH 6 0
BBX 4 4 1 0
BITMAP
80
F0
70
E0
ENDCHAR
STARTCHAR 22DE
ENCODING 8926
SWIDTH 864 0
DWIDTH 6 0
BBX 4 5 1 0
BITMAP
F0
20
C0
60
10
ENDCHAR
STARTCHAR 22DF
ENCODING 8927
SWIDTH 864 0
DWIDTH 6 0
BBX 4 5 1 0
BITMAP
70
C0
30
40
80
ENDCHAR
STARTCHAR 22E0
ENCODING 8928
SWIDTH 864 0
DWIDTH 6 0
BBX 4 7 1 -1
BITMAP
10
20
E0
60
30
F0
20
ENDCHAR
STARTCHAR 22E1
ENCODING 8929
SWIDTH 864 0
DWIDTH 6 0
BBX 4 5 1 0
BITMAP
80
F0
C0
80
F0
ENDCHAR
STARTCHAR 22E2
ENCODING 8930
SWIDTH 864 0
DWIDTH 6 0
BBX 4 5 1 -1
BITMAP
20
F0
C0
F0
F0
ENDCHAR
STARTCHAR 22E3
ENCODING 8931
SWIDTH 864 0
DWIDTH 6 0
BBX 4 5 1 -1
BITMAP
20
F0
50
F0
F0
ENDCHAR
STARTCHAR 22E4
ENCODING 8932
SWIDTH 864 0
DWIDTH 6 0
BBX 4 5 1 -1
BITMAP
F0
80
F0
F0
40
ENDCHAR
STARTCHAR 22E5
ENCODING 8933
SWIDTH 864 0
DWIDTH 6 0
BBX 4 5 1 -1
BITMAP
F0
10
F0
F0
40
ENDCHAR
STARTCHAR 22E6
ENCODING 8934
SWIDTH 864 0
DWIDTH 6 0
BBX 4 4 1 0
BITMAP
20
C0
60
F0
ENDCHAR
STARTCHAR 22E7
ENCODING 8935
SWIDTH 864 0
DWIDTH 6 0
BBX 4 4 1 0
BITMAP
80
70
E0
F0
ENDCHAR
STARTCHAR 22E8
ENCODING 8936
SWIDTH 864 0
DWIDTH 6 0
BBX 4 6 1 0
BITMAP
10
20
C0
60
10
F0
ENDCHAR
STARTCHAR 22E9
ENCODING 8937
SWIDTH 864 0
DWIDTH 6 0
BBX 4 5 1 1
BITMAP
C0
30
40
80
F0
ENDCHAR
STARTCHAR 22EA
ENCODING 8938
SWIDTH 864 0
DWIDTH 6 0
BBX 4 4 1 0
BITMAP
30
50
D0
70
ENDCHAR
STARTCHAR 22EB
ENCODING 8939
SWIDTH 864 0
DWIDTH 6 0
BBX 3 5 1 -1
BITMAP
20
C0
A0
E0
80
ENDCHAR
STARTCHAR 22EC
ENCODING 8940
SWIDTH 864 0
DWIDTH 6 0
BBX 4 4 1 0
BITMAP
30
D0
30
F0
ENDCHAR
STARTCHAR 22ED
ENCODING 8941
SWIDTH 864 0
DWIDTH 6 0
BBX 4 4 1 0
BITMAP
C0
F0
A0
F0
ENDCHAR
STARTCHAR 22EE
ENCODING 8942
SWIDTH 864 0
DWIDTH 6 0
BBX 1 5 2 0
BITMAP
80
00
80
00
80
ENDCHAR
STARTCHAR 22EF
ENCODING 8943
SWIDTH 864 0
DWIDTH 6 0
BBX 4 1 1 1
BITMAP
D0
ENDCHAR
STARTCHAR 22F0
ENCODING 8944
SWIDTH 864 0
DWIDTH 6 0
BBX 4 5 1 0
BITMAP
10
00
40
00
80
ENDCHAR
STARTCHAR 22F1
ENCODING 8945
SWIDTH 864 0
DWIDTH 6 0
BBX 4 5 1 0
BITMAP
80
00
40
00
10
ENDCHAR
STARTCHAR 2302
ENCODING 8962
SWIDTH 864 0
DWIDTH 6 0
BBX 5 5 0 0
BITMAP
30
58
88
88
F8
ENDCHAR
STARTCHAR 2306
ENCODING 8966
SWIDTH 864 0
DWIDTH 6 0
BBX 4 4 1 0
BITMAP
F0
F0
40
A0
ENDCHAR
STARTCHAR 2308
ENCODING 8968
SWIDTH 576 0
DWIDTH 4 0
BBX 2 6 1 -1
BITMAP
C0
80
80
80
80
80
ENDCHAR
STARTCHAR 2309
ENCODING 8969
SWIDTH 576 0
DWIDTH 4 0
BBX 1 6 1 -1
BITMAP
80
80
80
80
80
80
ENDCHAR
STARTCHAR 230A
ENCODING 8970
SWIDTH 576 0
DWIDTH 4 0
BBX 2 6 1 -1
BITMAP
80
80
80
80
80
C0
ENDCHAR
STARTCHAR 230B
ENCODING 8971
SWIDTH 576 0
DWIDTH 4 0
BBX 1 6 1 -1
BITMAP
80
80
80
80
80
80
ENDCHAR
STARTCHAR 2320
ENCODING 8992
SWIDTH 432 0
DWIDTH 3 0
BBX 2 7 1 -1
BITMAP
40
80
80
80
80
80
80
ENDCHAR
STARTCHAR 2321
ENCODING 8993
SWIDTH 432 0
DWIDTH 3 0
BBX 2 7 0 -1
BITMAP
40
40
40
40
40
40
80
ENDCHAR
STARTCHAR 2322
ENCODING 8994
SWIDTH 864 0
DWIDTH 6 0
BBX 3 1 1 2
BITMAP
E0
ENDCHAR
STARTCHAR 2323
ENCODING 8995
SWIDTH 864 0
DWIDTH 6 0
BBX 3 1 1 2
BITMAP
E0
ENDCHAR
STARTCHAR 2400
ENCODING 9216
SWIDTH 1008 0
DWIDTH 7 0
BBX 7 3 0 0
BITMAP
8C
EC
D6
ENDCHAR
STARTCHAR 2401
ENCODING 9217
SWIDTH 1008 0
DWIDTH 7 0
BBX 7 3 0 0
BITMAP
D2
76
D2
ENDCHAR
STARTCHAR 2402
ENCODING 9218
SWIDTH 1008 0
DWIDTH 7 0
BBX 6 3 0 0
BITMAP
F4
54
D0
ENDCHAR
STARTCHAR 2403
ENCODING 9219
SWIDTH 1008 0
DWIDTH 7 0
BBX 6 3 0 0
BITMAP
F4
D4
D0
ENDCHAR
STARTCHAR 2404
ENCODING 9220
SWIDTH 1008 0
DWIDTH 7 0
BBX 7 3 0 0
BITMAP
D6
EC
D0
ENDCHAR
STARTCHAR 2405
ENCODING 9221
SWIDTH 1008 0
DWIDTH 7 0
BBX 7 3 0 0
BITMAP
E4
DA
D6
ENDCHAR
STARTCHAR 2406
ENCODING 9222
SWIDTH 1008 0
DWIDTH 7 0
BBX 7 3 0 0
BITMAP
50
64
D2
ENDCHAR
STARTCHAR 2407
ENCODING 9223
SWIDTH 1008 0
DWIDTH 7 0
BBX 7 3 0 0
BITMAP
D4
D4
DE
ENDCHAR
STARTCHAR 2408
ENCODING 9224
SWIDTH 1008 0
DWIDTH 7 0
BBX 4 3 1 0
BITMAP
D0
D0
D0
ENDCHAR
STARTCHAR 2409
ENCODING 9225
SWIDTH 1008 0
DWIDTH 7 0
BBX 5 3 1 0
BITMAP
98
D0
80
ENDCHAR
STARTCHAR 240A
ENCODING 9226
SWIDTH 1008 0
DWIDTH 7 0
BBX 5 3 1 0
BITMAP
98
90
C0
ENDCHAR
STARTCHAR 240B
ENCODING 9227
SWIDTH 864 0
DWIDTH 6 0
BBX 4 3 1 0
BITMAP
B0
D0
90
ENDCHAR
STARTCHAR 240C
ENCODING 9228
SWIDTH 1008 0
DWIDTH 7 0
BBX 4 2 2 0
BITMAP
B0
A0
ENDCHAR
STARTCHAR 240D
ENCODING 9229
SWIDTH 1008 0
DWIDTH 7 0
BBX 4 3 1 0
BITMAP
D0
90
D0
ENDCHAR
STARTCHAR 240E
ENCODING 9230
SWIDTH 1008 0
DWIDTH 7 0
BBX 5 3 1 0
BITMAP
D0
68
D0
ENDCHAR
STARTCHAR 240F
ENCODING 9231
SWIDTH 1008 0
DWIDTH 7 0
BBX 5 3 1 0
BITMAP
D8
50
D8
ENDCHAR
STARTCHAR 2410
ENCODING 9232
SWIDTH 1008 0
DWIDTH 7 0
BBX 7 3 0 0
BITMAP
D6
D4
DE
ENDCHAR
STARTCHAR 2411
ENCODING 9233
SWIDTH 1008 0
DWIDTH 7 0
BBX 7 3 0 0
BITMAP
DC
E4
DE
ENDCHAR
STARTCHAR 2412
ENCODING 9234
SWIDTH 1008 0
DWIDTH 7 0
BBX 7 3 0 0
BITMAP
DE
E4
DE
ENDCHAR
STARTCHAR 2413
ENCODING 9235
SWIDTH 1008 0
DWIDTH 7 0
BBX 7 3 0 0
BITMAP
DC
E4
DE
ENDCHAR
STARTCHAR 2414
ENCODING 9236
SWIDTH 1008 0
DWIDTH 7 0
BBX 7 3 0 0
BITMAP
DC
E6
D8
ENDCHAR
STARTCHAR 2415
ENCODING 9237
SWIDTH 1008 0
DWIDTH 7 0
BBX 7 3 0 0
BITMAP
90
F4
D2
ENDCHAR
STARTCHAR 2416
ENCODING 9238
SWIDTH 1008 0
DWIDTH 7 0
BBX 7 3 0 0
BITMAP
C6
56
D2
ENDCHAR
STARTCHAR 2417
ENCODING 9239
SWIDTH 1008 0
DWIDTH 7 0
BBX 7 3 0 0
BITMAP
F4
D4
D6
ENDCHAR
STARTCHAR 2418
ENCODING 9240
SWIDTH 1008 0
DWIDTH 7 0
BBX 7 3 0 0
BITMAP
56
B6
52
ENDCHAR
STARTCHAR 2419
ENCODING 9241
SWIDTH 1008 0
DWIDTH 7 0
BBX 5 3 1 0
BITMAP
D8
D8
C8
ENDCHAR
STARTCHAR 241A
ENCODING 9242
SWIDTH 1008 0
DWIDTH 7 0
BBX 7 3 0 0
BITMAP
C4
74
D6
ENDCHAR
STARTCHAR 241B
ENCODING 9243
SWIDTH 1008 0
DWIDTH 7 0
BBX 7 3 0 0
BITMAP
D6
D8
D6
ENDCHAR
STARTCHAR 241C
ENCODING 9244
SWIDTH 1008 0
DWIDTH 7 0
BBX 4 3 2 0
BITMAP
A0
A0
30
ENDCHAR
STARTCHAR 241D
ENCODING 9245
SWIDTH 1008 0
DWIDTH 7 0
BBX 5 3 1 0
BITMAP
D8
90
D8
ENDCHAR
STARTCHAR 241E
ENCODING 9246
SWIDTH 1008 0
DWIDTH 7 0
BBX 5 3 1 0
BITMAP
D8
D0
D8
ENDCHAR
STARTCHAR 241F
ENCODING 9247
SWIDTH 1008 0
DWIDTH 7 0
BBX 5 3 1 0
BITMAP
98
D0
D8
ENDCHAR
STARTCHAR 2420
ENCODING 9248
SWIDTH 1008 0
DWIDTH 7 0
BBX 5 3 1 0
BITMAP
D8
58
C0
ENDCHAR
STARTCHAR 2421
ENCODING 9249
SWIDTH 1008 0
DWIDTH 7 0
BBX 7 3 0 0
BITMAP
D4
E4
DE
ENDCHAR
STARTCHAR 2422
ENCODING 9250
SWIDTH 1008 0
DWIDTH 7 0
BBX 5 5 1 0
BITMAP
50
50
68
48
F0
ENDCHAR
STARTCHAR 2423
ENCODING 9251
SWIDTH 288 0
DWIDTH 2 0
BBX 2 1 0 -1
BITMAP
C0
ENDCHAR
STARTCHAR 2424
ENCODING 9252
SWIDTH 1008 0
DWIDTH 7 0
BBX 5 3 1 0
BITMAP
90
D0
D8
ENDCHAR
STARTCHAR 2500
ENCODING 9472
SWIDTH 1008 0
DWIDTH 7 0
BBX 7 1 0 1
BITMAP
FE
ENDCHAR
STARTCHAR 2501
ENCODING 9473
SWIDTH 1008 0
DWIDTH 7 0
BBX 7 1 0 1
BITMAP
FE
ENDCHAR
STARTCHAR 2502
ENCODING 9474
SWIDTH 1008 0
DWIDTH 7 0
BBX 1 7 3 -1
BITMAP
80
80
80
80
80
80
80
ENDCHAR
STARTCHAR 2503
ENCODING 9475
SWIDTH 1008 0
DWIDTH 7 0
BBX 1 7 3 -1
BITMAP
80
80
80
80
80
80
80
ENDCHAR
STARTCHAR 2504
ENCODING 9476
SWIDTH 1008 0
DWIDTH 7 0
BBX 7 1 0 1
BITMAP
D6
ENDCHAR
STARTCHAR 2505
ENCODING 9477
SWIDTH 1008 0
DWIDTH 7 0
BBX 7 1 0 1
BITMAP
D6
ENDCHAR
STARTCHAR 2506
ENCODING 9478
SWIDTH 1008 0
DWIDTH 7 0
BBX 1 6 3 -1
BITMAP
80
80
80
80
80
80
ENDCHAR
STARTCHAR 2507
ENCODING 9479
SWIDTH 1008 0
DWIDTH 7 0
BBX 1 7 3 -2
BITMAP
80
80
80
80
00
80
80
ENDCHAR
STARTCHAR 2508
ENCODING 9480
SWIDTH 1008 0
DWIDTH 7 0
BBX 7 1 0 1
BITMAP
EE
ENDCHAR
STARTCHAR 2509
ENCODING 9481
SWIDTH 1008 0
DWIDTH 7 0
BBX 7 1 0 1
BITMAP
EE
ENDCHAR
STARTCHAR 250A
ENCODING 9482
SWIDTH 1008 0
DWIDTH 7 0
BBX 1 7 3 -2
BITMAP
80
00
80
00
80
00
80
ENDCHAR
STARTCHAR 250B
ENCODING 9483
SWIDTH 1008 0
DWIDTH 7 0
BBX 1 7 3 -2
BITMAP
80
00
80
00
80
00
80
ENDCHAR
STARTCHAR 250C
ENCODING 9484
SWIDTH 1008 0
DWIDTH 7 0
BBX 4 4 3 -2
BITMAP
F0
80
80
80
ENDCHAR
STARTCHAR 250D
ENCODING 9485
SWIDTH 1008 0
DWIDTH 7 0
BBX 4 3 3 -1
BITMAP
F0
80
80
ENDCHAR
STARTCHAR 250E
ENCODING 9486
SWIDTH 1008 0
DWIDTH 7 0
BBX 4 3 3 -1
BITMAP
F0
80
80
ENDCHAR
STARTCHAR 250F
ENCODING 9487
SWIDTH 1008 0
DWIDTH 7 0
BBX 4 3 3 -1
BITMAP
F0
80
80
ENDCHAR
STARTCHAR 2510
ENCODING 9488
SWIDTH 1008 0
DWIDTH 7 0
BBX 4 3 0 -1
BITMAP
F0
10
10
ENDCHAR
STARTCHAR 2511
ENCODING 9489
SWIDTH 1008 0
DWIDTH 7 0
BBX 4 3 0 -1
BITMAP
F0
10
10
ENDCHAR
STARTCHAR 2512
ENCODING 9490
SWIDTH 1008 0
DWIDTH 7 0
BBX 4 3 0 -1
BITMAP
F0
10
10
ENDCHAR
STARTCHAR 2513
ENCODING 9491
SWIDTH 1008 0
DWIDTH 7 0
BBX 4 3 0 -1
BITMAP
F0
10
10
ENDCHAR
STARTCHAR 2514
ENCODING 9492
SWIDTH 1008 0
DWIDTH 7 0
BBX 4 5 3 1
BITMAP
80
80
80
80
F0
ENDCHAR
STARTCHAR 2515
ENCODING 9493
SWIDTH 1008 0
DWIDTH 7 0
BBX 4 5 3 1
BITMAP
80
80
80
80
F0
ENDCHAR
STARTCHAR 2516
ENCODING 9494
SWIDTH 1008 0
DWIDTH 7 0
BBX 4 5 3 1
BITMAP
80
80
80
80
F0
ENDCHAR
STARTCHAR 2517
ENCODING 9495
SWIDTH 1008 0
DWIDTH 7 0
BBX 4 5 3 1
BITMAP
80
80
80
80
F0
ENDCHAR
STARTCHAR 2518
ENCODING 9496
SWIDTH 1008 0
DWIDTH 7 0
BBX 4 5 0 1
BITMAP
10
10
10
10
F0
ENDCHAR
STARTCHAR 2519
ENCODING 9497
SWIDTH 1008 0
DWIDTH 7 0
BBX 4 5 0 1
BITMAP
10
10
10
10
F0
ENDCHAR
STARTCHAR 251A
ENCODING 9498
SWIDTH 1008 0
DWIDTH 7 0
BBX 4 5 0 1
BITMAP
10
10
10
10
F0
ENDCHAR
STARTCHAR 251B
ENCODING 9499
SWIDTH 1008 0
DWIDTH 7 0
BBX 4 5 0 1
BITMAP
10
10
10
10
F0
ENDCHAR
STARTCHAR 251C
ENCODING 9500
SWIDTH 1008 0
DWIDTH 7 0
BBX 4 7 3 -1
BITMAP
80
80
80
80
F0
80
80
ENDCHAR
STARTCHAR 251D
ENCODING 9501
SWIDTH 1008 0
DWIDTH 7 0
BBX 4 7 3 -1
BITMAP
80
80
80
80
F0
80
80
ENDCHAR
STARTCHAR 251E
ENCODING 9502
SWIDTH 1008 0
DWIDTH 7 0
BBX 4 7 3 -1
BITMAP
80
80
80
80
F0
80
80
ENDCHAR
STARTCHAR 251F
ENCODING 9503
SWIDTH 1008 0
DWIDTH 7 0
BBX 4 7 3 -1
BITMAP
80
80
80
80
F0
80
80
ENDCHAR
STARTCHAR 2520
ENCODING 9504
SWIDTH 1008 0
DWIDTH 7 0
BBX 4 7 3 -1
BITMAP
80
80
80
80
F0
80
80
ENDCHAR
STARTCHAR 2521
ENCODING 9505
SWIDTH 1008 0
DWIDTH 7 0
BBX 4 7 3 -1
BITMAP
80
80
80
80
F0
80
80
ENDCHAR
STARTCHAR 2522
ENCODING 9506
SWIDTH 1008 0
DWIDTH 7 0
BBX 4 7 3 -1
BITMAP
80
80
80
80
F0
80
80
ENDCHAR
STARTCHAR 2523
ENCODING 9507
SWIDTH 1008 0
DWIDTH 7 0
BBX 4 7 3 -1
BITMAP
80
80
80
80
F0
80
80
ENDCHAR
STARTCHAR 2524
ENCODING 9508
SWIDTH 1008 0
DWIDTH 7 0
BBX 4 7 0 -1
BITMAP
10
10
10
10
F0
10
10
ENDCHAR
STARTCHAR 2525
ENCODING 9509
SWIDTH 1008 0
DWIDTH 7 0
BBX 4 7 0 -1
BITMAP
10
10
10
10
F0
10
10
ENDCHAR
STARTCHAR 2526
ENCODING 9510
SWIDTH 1008 0
DWIDTH 7 0
BBX 4 7 0 -1
BITMAP
10
10
10
10
F0
10
10
ENDCHAR
STARTCHAR 2527
ENCODING 9511
SWIDTH 1008 0
DWIDTH 7 0
BBX 4 7 0 -1
BITMAP
10
10
10
10
F0
10
10
ENDCHAR
STARTCHAR 2528
ENCODING 9512
SWIDTH 1008 0
DWIDTH 7 0
BBX 4 7 0 -1
BITMAP
10
10
10
10
F0
10
10
ENDCHAR
STARTCHAR 2529
ENCODING 9513
SWIDTH 1008 0
DWIDTH 7 0
BBX 4 7 0 -1
BITMAP
10
10
10
10
F0
10
10
ENDCHAR
STARTCHAR 252A
ENCODING 9514
SWIDTH 1008 0
DWIDTH 7 0
BBX 4 7 0 -1
BITMAP
10
10
10
10
F0
10
10
ENDCHAR
STARTCHAR 252B
ENCODING 9515
SWIDTH 1008 0
DWIDTH 7 0
BBX 4 7 0 -1
BITMAP
10
10
10
10
F0
10
10
ENDCHAR
STARTCHAR 252C
ENCODING 9516
SWIDTH 1008 0
DWIDTH 7 0
BBX 7 3 0 -1
BITMAP
FE
10
10
ENDCHAR
STARTCHAR 252D
ENCODING 9517
SWIDTH 1008 0
DWIDTH 7 0
BBX 7 3 0 -1
BITMAP
FE
10
10
ENDCHAR
STARTCHAR 252E
ENCODING 9518
SWIDTH 1008 0
DWIDTH 7 0
BBX 7 3 0 -1
BITMAP
FE
10
10
ENDCHAR
STARTCHAR 252F
ENCODING 9519
SWIDTH 1008 0
DWIDTH 7 0
BBX 7 3 0 -1
BITMAP
FE
10
10
ENDCHAR
STARTCHAR 2530
ENCODING 9520
SWIDTH 1008 0
DWIDTH 7 0
BBX 7 3 0 -1
BITMAP
FE
10
10
ENDCHAR
STARTCHAR 2531
ENCODING 9521
SWIDTH 1008 0
DWIDTH 7 0
BBX 7 3 0 -1
BITMAP
FE
10
10
ENDCHAR
STARTCHAR 2532
ENCODING 9522
SWIDTH 1008 0
DWIDTH 7 0
BBX 7 3 0 -1
BITMAP
FE
10
10
ENDCHAR
STARTCHAR 2533
ENCODING 9523
SWIDTH 1008 0
DWIDTH 7 0
BBX 7 3 0 -1
BITMAP
FE
10
10
ENDCHAR
STARTCHAR 2534
ENCODING 9524
SWIDTH 1008 0
DWIDTH 7 0
BBX 7 5 0 1
BITMAP
10
10
10
10
FE
ENDCHAR
STARTCHAR 2535
ENCODING 9525
SWIDTH 1008 0
DWIDTH 7 0
BBX 7 5 0 1
BITMAP
10
10
10
10
FE
ENDCHAR
STARTCHAR 2536
ENCODING 9526
SWIDTH 1008 0
DWIDTH 7 0
BBX 7 5 0 1
BITMAP
10
10
10
10
FE
ENDCHAR
STARTCHAR 2537
ENCODING 9527
SWIDTH 1008 0
DWIDTH 7 0
BBX 7 5 0 1
BITMAP
10
10
10
10
FE
ENDCHAR
STARTCHAR 2538
ENCODING 9528
SWIDTH 1008 0
DWIDTH 7 0
BBX 7 5 0 1
BITMAP
10
10
10
10
FE
ENDCHAR
STARTCHAR 2539
ENCODING 9529
SWIDTH 1008 0
DWIDTH 7 0
BBX 7 5 0 1
BITMAP
10
10
10
10
FE
ENDCHAR
STARTCHAR 253A
ENCODING 9530
SWIDTH 1008 0
DWIDTH 7 0
BBX 7 5 0 1
BITMAP
10
10
10
10
FE
ENDCHAR
STARTCHAR 253B
ENCODING 9531
SWIDTH 1008 0
DWIDTH 7 0
BBX 7 5 0 1
BITMAP
10
10
10
10
FE
ENDCHAR
STARTCHAR 253C
ENCODING 9532
SWIDTH 1008 0
DWIDTH 7 0
BBX 7 7 0 -1
BITMAP
10
10
10
10
FE
10
10
ENDCHAR
STARTCHAR 253D
ENCODING 9533
SWIDTH 1008 0
DWIDTH 7 0
BBX 7 7 0 -1
BITMAP
10
10
10
10
FE
10
10
ENDCHAR
STARTCHAR 253E
ENCODING 9534
SWIDTH 1008 0
DWIDTH 7 0
BBX 7 7 0 -1
BITMAP
10
10
10
10
FE
10
10
ENDCHAR
STARTCHAR 253F
ENCODING 9535
SWIDTH 1008 0
DWIDTH 7 0
BBX 7 7 0 -1
BITMAP
10
10
10
10
FE
10
10
ENDCHAR
STARTCHAR 2540
ENCODING 9536
SWIDTH 1008 0
DWIDTH 7 0
BBX 7 7 0 -1
BITMAP
10
10
10
10
FE
10
10
ENDCHAR
STARTCHAR 2541
ENCODING 9537
SWIDTH 1008 0
DWIDTH 7 0
BBX 7 7 0 -1
BITMAP
10
10
10
10
FE
10
10
ENDCHAR
STARTCHAR 2542
ENCODING 9538
SWIDTH 1008 0
DWIDTH 7 0
BBX 7 7 0 -1
BITMAP
10
10
10
10
FE
10
10
ENDCHAR
STARTCHAR 2543
ENCODING 9539
SWIDTH 1008 0
DWIDTH 7 0
BBX 7 7 0 -1
BITMAP
10
10
10
10
FE
10
10
ENDCHAR
STARTCHAR 2544
ENCODING 9540
SWIDTH 1008 0
DWIDTH 7 0
BBX 7 7 0 -1
BITMAP
10
10
10
10
FE
10
10
ENDCHAR
STARTCHAR 2545
ENCODING 9541
SWIDTH 1008 0
DWIDTH 7 0
BBX 7 7 0 -1
BITMAP
10
10
10
10
FE
10
10
ENDCHAR
STARTCHAR 2546
ENCODING 9542
SWIDTH 1008 0
DWIDTH 7 0
BBX 7 7 0 -1
BITMAP
10
10
10
10
FE
10
10
ENDCHAR
STARTCHAR 2547
ENCODING 9543
SWIDTH 1008 0
DWIDTH 7 0
BBX 7 7 0 -1
BITMAP
10
10
10
10
FE
10
10
ENDCHAR
STARTCHAR 2548
ENCODING 9544
SWIDTH 1008 0
DWIDTH 7 0
BBX 7 7 0 -1
BITMAP
10
10
10
10
FE
10
10
ENDCHAR
STARTCHAR 2549
ENCODING 9545
SWIDTH 1008 0
DWIDTH 7 0
BBX 7 7 0 -1
BITMAP
10
10
10
10
FE
10
10
ENDCHAR
STARTCHAR 254A
ENCODING 9546
SWIDTH 1008 0
DWIDTH 7 0
BBX 7 7 0 -1
BITMAP
10
10
10
10
FE
10
10
ENDCHAR
STARTCHAR 254B
ENCODING 9547
SWIDTH 1008 0
DWIDTH 7 0
BBX 7 7 0 -1
BITMAP
10
10
10
10
FE
10
10
ENDCHAR
STARTCHAR 254C
ENCODING 9548
SWIDTH 1008 0
DWIDTH 7 0
BBX 7 1 0 1
BITMAP
EE
ENDCHAR
STARTCHAR 254D
ENCODING 9549
SWIDTH 1008 0
DWIDTH 7 0
BBX 7 1 0 1
BITMAP
EE
ENDCHAR
STARTCHAR 254E
ENCODING 9550
SWIDTH 1008 0
DWIDTH 7 0
BBX 1 7 3 -1
BITMAP
80
80
80
80
00
80
80
ENDCHAR
STARTCHAR 254F
ENCODING 9551
SWIDTH 1008 0
DWIDTH 7 0
BBX 1 7 3 -1
BITMAP
80
80
80
80
00
80
80
ENDCHAR
STARTCHAR 2550
ENCODING 9552
SWIDTH 1008 0
DWIDTH 7 0
BBX 7 3 0 0
BITMAP
FE
00
FE
ENDCHAR
STARTCHAR 2551
ENCODING 9553
SWIDTH 1008 0
DWIDTH 7 0
BBX 1 7 3 -1
BITMAP
80
80
80
80
80
80
80
ENDCHAR
STARTCHAR 2552
ENCODING 9554
SWIDTH 1008 0
DWIDTH 7 0
BBX 4 4 3 -1
BITMAP
F0
80
F0
80
ENDCHAR
STARTCHAR 2553
ENCODING 9555
SWIDTH 1008 0
DWIDTH 7 0
BBX 4 3 3 -1
BITMAP
F0
80
80
ENDCHAR
STARTCHAR 2554
ENCODING 9556
SWIDTH 1008 0
DWIDTH 7 0
BBX 4 4 3 -1
BITMAP
F0
80
F0
80
ENDCHAR
STARTCHAR 2555
ENCODING 9557
SWIDTH 1008 0
DWIDTH 7 0
BBX 4 4 0 -1
BITMAP
F0
10
F0
10
ENDCHAR
STARTCHAR 2556
ENCODING 9558
SWIDTH 1008 0
DWIDTH 7 0
BBX 4 3 0 -1
BITMAP
F0
30
30
ENDCHAR
STARTCHAR 2557
ENCODING 9559
SWIDTH 1008 0
DWIDTH 7 0
BBX 4 4 0 -1
BITMAP
F0
10
F0
30
ENDCHAR
STARTCHAR 2558
ENCODING 9560
SWIDTH 1008 0
DWIDTH 7 0
BBX 4 6 3 0
BITMAP
80
80
80
F0
80
F0
ENDCHAR
STARTCHAR 2559
ENCODING 9561
SWIDTH 1008 0
DWIDTH 7 0
BBX 4 5 3 1
BITMAP
80
80
80
80
F0
ENDCHAR
STARTCHAR 255A
ENCODING 9562
SWIDTH 1008 0
DWIDTH 7 0
BBX 4 6 3 0
BITMAP
80
80
80
F0
80
F0
ENDCHAR
STARTCHAR 255B
ENCODING 9563
SWIDTH 1008 0
DWIDTH 7 0
BBX 4 6 0 0
BITMAP
10
10
10
F0
10
F0
ENDCHAR
STARTCHAR 255C
ENCODING 9564
SWIDTH 1008 0
DWIDTH 7 0
BBX 4 5 0 1
BITMAP
30
30
30
30
F0
ENDCHAR
STARTCHAR 255D
ENCODING 9565
SWIDTH 1008 0
DWIDTH 7 0
BBX 4 6 0 0
BITMAP
30
30
30
F0
10
F0
ENDCHAR
STARTCHAR 255E
ENCODING 9566
SWIDTH 1008 0
DWIDTH 7 0
BBX 4 7 3 -1
BITMAP
80
80
80
F0
80
F0
80
ENDCHAR
STARTCHAR 255F
ENCODING 9567
SWIDTH 1008 0
DWIDTH 7 0
BBX 4 6 3 0
BITMAP
80
80
80
80
F0
80
ENDCHAR
STARTCHAR 2560
ENCODING 9568
SWIDTH 1008 0
DWIDTH 7 0
BBX 4 7 3 -1
BITMAP
80
80
80
F0
80
F0
80
ENDCHAR
STARTCHAR 2561
ENCODING 9569
SWIDTH 1008 0
DWIDTH 7 0
BBX 4 7 0 -1
BITMAP
10
10
10
F0
10
F0
10
ENDCHAR
STARTCHAR 2562
ENCODING 9570
SWIDTH 1008 0
DWIDTH 7 0
BBX 4 7 0 -1
BITMAP
30
30
30
30
F0
30
30
ENDCHAR
STARTCHAR 2563
ENCODING 9571
SWIDTH 1008 0
DWIDTH 7 0
BBX 4 7 0 -1
BITMAP
30
30
30
F0
10
F0
30
ENDCHAR
STARTCHAR 2564
ENCODING 9572
SWIDTH 1008 0
DWIDTH 7 0
BBX 7 4 0 -1
BITMAP
FE
00
FE
10
ENDCHAR
STARTCHAR 2565
ENCODING 9573
SWIDTH 1008 0
DWIDTH 7 0
BBX 7 1 0 1
BITMAP
FE
ENDCHAR
STARTCHAR 2566
ENCODING 9574
SWIDTH 1008 0
DWIDTH 7 0
BBX 7 4 0 -1
BITMAP
FE
00
EE
30
ENDCHAR
STARTCHAR 2567
ENCODING 9575
SWIDTH 1008 0
DWIDTH 7 0
BBX 7 6 0 0
BITMAP
10
10
10
FE
00
FE
ENDCHAR
STARTCHAR 2568
ENCODING 9576
SWIDTH 1008 0
DWIDTH 7 0
BBX 7 5 0 1
BITMAP
30
30
30
30
FE
ENDCHAR
STARTCHAR 2569
ENCODING 9577
SWIDTH 1008 0
DWIDTH 7 0
BBX 7 5 0 1
BITMAP
30
30
EE
00
FE
ENDCHAR
STARTCHAR 256A
ENCODING 9578
SWIDTH 1008 0
DWIDTH 7 0
BBX 7 7 0 -1
BITMAP
10
10
10
FE
10
FE
10
ENDCHAR
STARTCHAR 256B
ENCODING 9579
SWIDTH 1008 0
DWIDTH 7 0
BBX 7 7 0 -1
BITMAP
30
30
30
30
FE
30
30
ENDCHAR
STARTCHAR 256C
ENCODING 9580
SWIDTH 1008 0
DWIDTH 7 0
BBX 7 7 0 -1
BITMAP
30
30
30
EE
00
EE
30
ENDCHAR
STARTCHAR 256D
ENCODING 9581
SWIDTH 1008 0
DWIDTH 7 0
BBX 4 3 3 -1
BITMAP
30
40
80
ENDCHAR
STARTCHAR 256E
ENCODING 9582
SWIDTH 1008 0
DWIDTH 7 0
BBX 4 3 0 -1
BITMAP
C0
20
10
ENDCHAR
STARTCHAR 256F
ENCODING 9583
SWIDTH 1008 0
DWIDTH 7 0
BBX 4 5 0 1
BITMAP
10
10
20
20
C0
ENDCHAR
STARTCHAR 2570
ENCODING 9584
SWIDTH 1008 0
DWIDTH 7 0
BBX 4 4 3 2
BITMAP
80
80
40
30
ENDCHAR
STARTCHAR 2571
ENCODING 9585
SWIDTH 1008 0
DWIDTH 7 0
BBX 7 7 0 -1
BITMAP
02
04
08
10
20
40
80
ENDCHAR
STARTCHAR 2572
ENCODING 9586
SWIDTH 1008 0
DWIDTH 7 0
BBX 7 7 0 -1
BITMAP
80
40
20
10
08
04
02
ENDCHAR
STARTCHAR 2573
ENCODING 9587
SWIDTH 1008 0
DWIDTH 7 0
BBX 7 7 0 -1
BITMAP
82
44
28
10
28
44
82
ENDCHAR
STARTCHAR 2574
ENCODING 9588
SWIDTH 1008 0
DWIDTH 7 0
BBX 4 1 0 1
BITMAP
F0
ENDCHAR
STARTCHAR 2575
ENCODING 9589
SWIDTH 1008 0
DWIDTH 7 0
BBX 1 4 3 2
BITMAP
80
80
80
80
ENDCHAR
STARTCHAR 2576
ENCODING 9590
SWIDTH 1008 0
DWIDTH 7 0
BBX 4 1 3 1
BITMAP
F0
ENDCHAR
STARTCHAR 2577
ENCODING 9591
SWIDTH 1008 0
DWIDTH 7 0
BBX 1 4 3 -2
BITMAP
80
80
80
80
ENDCHAR
STARTCHAR 2578
ENCODING 9592
SWIDTH 1008 0
DWIDTH 7 0
BBX 4 1 0 1
BITMAP
F0
ENDCHAR
STARTCHAR 2579
ENCODING 9593
SWIDTH 1008 0
DWIDTH 7 0
BBX 1 4 3 2
BITMAP
80
80
80
80
ENDCHAR
STARTCHAR 257A
ENCODING 9594
SWIDTH 1008 0
DWIDTH 7 0
BBX 4 1 3 1
BITMAP
F0
ENDCHAR
STARTCHAR 257B
ENCODING 9595
SWIDTH 1008 0
DWIDTH 7 0
BBX 1 4 3 -1
BITMAP
80
80
80
80
ENDCHAR
STARTCHAR 257C
ENCODING 9596
SWIDTH 1008 0
DWIDTH 7 0
BBX 7 1 0 1
BITMAP
FE
ENDCHAR
STARTCHAR 257D
ENCODING 9597
SWIDTH 1008 0
DWIDTH 7 0
BBX 1 7 3 -1
BITMAP
80
80
80
80
80
80
80
ENDCHAR
STARTCHAR 257E
ENCODING 9598
SWIDTH 1008 0
DWIDTH 7 0
BBX 7 1 0 1
BITMAP
FE
ENDCHAR
STARTCHAR 257F
ENCODING 9599
SWIDTH 1008 0
DWIDTH 7 0
BBX 1 7 3 -1
BITMAP
80
80
80
80
80
80
80
ENDCHAR
STARTCHAR 2580
ENCODING 9600
SWIDTH 1008 0
DWIDTH 7 0
BBX 7 4 0 2
BITMAP
FE
FE
FE
FE
ENDCHAR
STARTCHAR 2582
ENCODING 9602
SWIDTH 1008 0
DWIDTH 7 0
BBX 7 1 0 -1
BITMAP
FE
ENDCHAR
STARTCHAR 2583
ENCODING 9603
SWIDTH 1008 0
DWIDTH 7 0
BBX 7 3 0 -1
BITMAP
FE
FE
FE
ENDCHAR
STARTCHAR 2584
ENCODING 9604
SWIDTH 1008 0
DWIDTH 7 0
BBX 7 4 0 -1
BITMAP
FE
FE
FE
FE
ENDCHAR
STARTCHAR 2585
ENCODING 9605
SWIDTH 1008 0
DWIDTH 7 0
BBX 7 4 0 -1
BITMAP
FE
FE
FE
FE
ENDCHAR
STARTCHAR 2586
ENCODING 9606
SWIDTH 1008 0
DWIDTH 7 0
BBX 7 5 0 -1
BITMAP
FE
FE
FE
FE
FE
ENDCHAR
STARTCHAR 2587
ENCODING 9607
SWIDTH 1008 0
DWIDTH 7 0
BBX 7 6 0 -1
BITMAP
FE
FE
FE
FE
FE
FE
ENDCHAR
STARTCHAR 2588
ENCODING 9608
SWIDTH 1008 0
DWIDTH 7 0
BBX 7 7 0 -1
BITMAP
FE
FE
FE
FE
FE
FE
FE
ENDCHAR
STARTCHAR 2589
ENCODING 9609
SWIDTH 1008 0
DWIDTH 7 0
BBX 6 7 0 -1
BITMAP
FC
FC
FC
FC
FC
FC
FC
ENDCHAR
STARTCHAR 258A
ENCODING 9610
SWIDTH 1008 0
DWIDTH 7 0
BBX 5 7 0 -1
BITMAP
F8
F8
F8
F8
F8
F8
F8
ENDCHAR
STARTCHAR 258B
ENCODING 9611
SWIDTH 1008 0
DWIDTH 7 0
BBX 4 7 0 -1
BITMAP
F0
F0
F0
F0
F0
F0
F0
ENDCHAR
STARTCHAR 258C
ENCODING 9612
SWIDTH 1008 0
DWIDTH 7 0
BBX 4 7 0 -1
BITMAP
F0
F0
F0
F0
F0
F0
F0
ENDCHAR
STARTCHAR 258D
ENCODING 9613
SWIDTH 1008 0
DWIDTH 7 0
BBX 3 7 0 -1
BITMAP
E0
E0
E0
E0
E0
E0
E0
ENDCHAR
STARTCHAR 258E
ENCODING 9614
SWIDTH 1008 0
DWIDTH 7 0
BBX 2 7 0 -1
BITMAP
C0
C0
C0
C0
C0
C0
C0
ENDCHAR
STARTCHAR 258F
ENCODING 9615
SWIDTH 1008 0
DWIDTH 7 0
BBX 1 7 0 -1
BITMAP
80
80
80
80
80
80
80
ENDCHAR
STARTCHAR 2590
ENCODING 9616
SWIDTH 1008 0
DWIDTH 7 0
BBX 4 7 3 -1
BITMAP
F0
F0
F0
F0
F0
F0
F0
ENDCHAR
STARTCHAR 2591
ENCODING 9617
SWIDTH 1008 0
DWIDTH 7 0
BBX 0 0 0 -4
BITMAP
ENDCHAR
STARTCHAR 2592
ENCODING 9618
SWIDTH 1008 0
DWIDTH 7 0
BBX 7 7 0 -1
BITMAP
5A
5A
B4
5A
B4
5A
B4
ENDCHAR
STARTCHAR 2593
ENCODING 9619
SWIDTH 1008 0
DWIDTH 7 0
BBX 7 10 0 -5
BITMAP
FE
FE
FE
FE
FE
FE
FE
FE
FE
FE
ENDCHAR
STARTCHAR 2594
ENCODING 9620
SWIDTH 1008 0
DWIDTH 7 0
BBX 7 1 0 5
BITMAP
FE
ENDCHAR
STARTCHAR 2595
ENCODING 9621
SWIDTH 1008 0
DWIDTH 7 0
BBX 1 7 6 -1
BITMAP
80
80
80
80
80
80
80
ENDCHAR
STARTCHAR 25A0
ENCODING 9632
SWIDTH 864 0
DWIDTH 6 0
BBX 4 4 1 0
BITMAP
F0
F0
F0
F0
ENDCHAR
STARTCHAR 25A1
ENCODING 9633
SWIDTH 864 0
DWIDTH 6 0
BBX 4 4 1 0
BITMAP
F0
90
90
F0
ENDCHAR
STARTCHAR 25A2
ENCODING 9634
SWIDTH 864 0
DWIDTH 6 0
BBX 4 4 1 0
BITMAP
F0
90
90
F0
ENDCHAR
STARTCHAR 25A3
ENCODING 9635
SWIDTH 864 0
DWIDTH 6 0
BBX 4 4 1 0
BITMAP
F0
90
90
F0
ENDCHAR
STARTCHAR 25A4
ENCODING 9636
SWIDTH 864 0
DWIDTH 6 0
BBX 4 4 1 0
BITMAP
F0
F0
F0
F0
ENDCHAR
STARTCHAR 25A5
ENCODING 9637
SWIDTH 864 0
DWIDTH 6 0
BBX 4 4 1 0
BITMAP
F0
D0
D0
F0
ENDCHAR
STARTCHAR 25A6
ENCODING 9638
SWIDTH 864 0
DWIDTH 6 0
BBX 4 4 1 0
BITMAP
F0
F0
F0
F0
ENDCHAR
STARTCHAR 25A7
ENCODING 9639
SWIDTH 864 0
DWIDTH 6 0
BBX 4 4 1 0
BITMAP
F0
D0
F0
F0
ENDCHAR
STARTCHAR 25A8
ENCODING 9640
SWIDTH 864 0
DWIDTH 6 0
BBX 4 4 1 0
BITMAP
F0
F0
D0
F0
ENDCHAR
STARTCHAR 25A9
ENCODING 9641
SWIDTH 864 0
DWIDTH 6 0
BBX 4 4 1 0
BITMAP
F0
B0
F0
F0
ENDCHAR
STARTCHAR 25AA
ENCODING 9642
SWIDTH 576 0
DWIDTH 4 0
BBX 2 2 1 1
BITMAP
C0
C0
ENDCHAR
STARTCHAR 25AB
ENCODING 9643
SWIDTH 576 0
DWIDTH 4 0
BBX 2 2 1 1
BITMAP
C0
C0
ENDCHAR
STARTCHAR 25AC
ENCODING 9644
SWIDTH 864 0
DWIDTH 6 0
BBX 4 2 1 1
BITMAP
F0
F0
ENDCHAR
STARTCHAR 25AD
ENCODING 9645
SWIDTH 864 0
DWIDTH 6 0
BBX 4 2 1 1
BITMAP
F0
F0
ENDCHAR
STARTCHAR 25AE
ENCODING 9646
SWIDTH 576 0
DWIDTH 4 0
BBX 2 4 1 0
BITMAP
C0
C0
C0
C0
ENDCHAR
STARTCHAR 25AF
ENCODING 9647
SWIDTH 576 0
DWIDTH 4 0
BBX 2 5 1 0
BITMAP
C0
C0
C0
C0
C0
ENDCHAR
STARTCHAR 25B0
ENCODING 9648
SWIDTH 864 0
DWIDTH 6 0
BBX 4 2 1 1
BITMAP
70
E0
ENDCHAR
STARTCHAR 25B1
ENCODING 9649
SWIDTH 864 0
DWIDTH 6 0
BBX 4 3 1 0
BITMAP
70
A0
E0
ENDCHAR
STARTCHAR 25B2
ENCODING 9650
SWIDTH 864 0
DWIDTH 6 0
BBX 4 4 1 0
BITMAP
40
60
60
F0
ENDCHAR
STARTCHAR 25B3
ENCODING 9651
SWIDTH 864 0
DWIDTH 6 0
BBX 4 4 1 0
BITMAP
40
A0
A0
F0
ENDCHAR
STARTCHAR 25B4
ENCODING 9652
SWIDTH 576 0
DWIDTH 4 0
BBX 2 2 1 1
BITMAP
80
C0
ENDCHAR
STARTCHAR 25B5
ENCODING 9653
SWIDTH 576 0
DWIDTH 4 0
BBX 2 2 1 1
BITMAP
80
C0
ENDCHAR
STARTCHAR 25B6
ENCODING 9654
SWIDTH 864 0
DWIDTH 6 0
BBX 3 4 1 0
BITMAP
80
E0
E0
80
ENDCHAR
STARTCHAR 25B7
ENCODING 9655
SWIDTH 864 0
DWIDTH 6 0
BBX 3 4 1 0
BITMAP
80
E0
A0
C0
ENDCHAR
STARTCHAR 25B8
ENCODING 9656
SWIDTH 576 0
DWIDTH 4 0
BBX 1 2 1 1
BITMAP
80
80
ENDCHAR
STARTCHAR 25B9
ENCODING 9657
SWIDTH 576 0
DWIDTH 4 0
BBX 1 2 1 1
BITMAP
80
80
ENDCHAR
STARTCHAR 25BA
ENCODING 9658
SWIDTH 864 0
DWIDTH 6 0
BBX 3 2 1 1
BITMAP
C0
E0
ENDCHAR
STARTCHAR 25BB
ENCODING 9659
SWIDTH 864 0
DWIDTH 6 0
BBX 3 2 1 1
BITMAP
C0
E0
ENDCHAR
STARTCHAR 25BC
ENCODING 9660
SWIDTH 864 0
DWIDTH 6 0
BBX 4 4 1 0
BITMAP
F0
60
60
40
ENDCHAR
STARTCHAR 25BD
ENCODING 9661
SWIDTH 864 0
DWIDTH 6 0
BBX 4 4 1 0
BITMAP
F0
A0
A0
40
ENDCHAR
STARTCHAR 25BE
ENCODING 9662
SWIDTH 576 0
DWIDTH 4 0
BBX 2 2 1 1
BITMAP
C0
80
ENDCHAR
STARTCHAR 25BF
ENCODING 9663
SWIDTH 576 0
DWIDTH 4 0
BBX 2 2 1 1
BITMAP
C0
80
ENDCHAR
STARTCHAR 25C0
ENCODING 9664
SWIDTH 864 0
DWIDTH 6 0
BBX 4 4 1 0
BITMAP
10
70
F0
10
ENDCHAR
STARTCHAR 25C1
ENCODING 9665
SWIDTH 864 0
DWIDTH 6 0
BBX 4 4 1 0
BITMAP
10
70
D0
30
ENDCHAR
STARTCHAR 25C2
ENCODING 9666
SWIDTH 576 0
DWIDTH 4 0
BBX 2 2 1 1
BITMAP
40
C0
ENDCHAR
STARTCHAR 25C3
ENCODING 9667
SWIDTH 576 0
DWIDTH 4 0
BBX 2 2 1 1
BITMAP
40
C0
ENDCHAR
STARTCHAR 25C4
ENCODING 9668
SWIDTH 864 0
DWIDTH 6 0
BBX 3 2 2 1
BITMAP
60
E0
ENDCHAR
STARTCHAR 25C5
ENCODING 9669
SWIDTH 864 0
DWIDTH 6 0
BBX 3 2 2 1
BITMAP
60
E0
ENDCHAR
STARTCHAR 25C6
ENCODING 9670
SWIDTH 864 0
DWIDTH 6 0
BBX 3 4 1 0
BITMAP
40
E0
E0
40
ENDCHAR
STARTCHAR 25C7
ENCODING 9671
SWIDTH 864 0
DWIDTH 6 0
BBX 4 5 1 0
BITMAP
40
A0
90
A0
40
ENDCHAR
STARTCHAR 25C8
ENCODING 9672
SWIDTH 864 0
DWIDTH 6 0
BBX 4 5 1 0
BITMAP
40
A0
F0
A0
40
ENDCHAR
STARTCHAR 25C9
ENCODING 9673
SWIDTH 864 0
DWIDTH 6 0
BBX 4 4 1 0
BITMAP
E0
90
90
E0
ENDCHAR
STARTCHAR 25CA
ENCODING 9674
SWIDTH 720 0
DWIDTH 5 0
BBX 4 5 1 0
BITMAP
40
A0
90
A0
40
ENDCHAR
STARTCHAR 25CB
ENCODING 9675
SWIDTH 864 0
DWIDTH 6 0
BBX 4 4 1 0
BITMAP
E0
90
90
E0
ENDCHAR
STARTCHAR 25CC
ENCODING 9676
SWIDTH 864 0
DWIDTH 6 0
BBX 4 4 1 0
BITMAP
A0
10
10
60
ENDCHAR
STARTCHAR 25CD
ENCODING 9677
SWIDTH 864 0
DWIDTH 6 0
BBX 4 4 1 0
BITMAP
E0
D0
D0
E0
ENDCHAR
STARTCHAR 25CE
ENCODING 9678
SWIDTH 864 0
DWIDTH 6 0
BBX 4 4 1 0
BITMAP
E0
F0
F0
E0
ENDCHAR
STARTCHAR 25CF
ENCODING 9679
SWIDTH 864 0
DWIDTH 6 0
BBX 4 4 1 0
BITMAP
E0
F0
F0
E0
ENDCHAR
STARTCHAR 25D0
ENCODING 9680
SWIDTH 864 0
DWIDTH 6 0
BBX 4 4 1 0
BITMAP
E0
D0
D0
E0
ENDCHAR
STARTCHAR 25D1
ENCODING 9681
SWIDTH 864 0
DWIDTH 6 0
BBX 4 4 1 0
BITMAP
E0
B0
B0
E0
ENDCHAR
STARTCHAR 25D2
ENCODING 9682
SWIDTH 864 0
DWIDTH 6 0
BBX 4 4 1 0
BITMAP
E0
90
F0
E0
ENDCHAR
STARTCHAR 25D3
ENCODING 9683
SWIDTH 864 0
DWIDTH 6 0
BBX 4 4 1 0
BITMAP
E0
F0
90
E0
ENDCHAR
STARTCHAR 25D4
ENCODING 9684
SWIDTH 864 0
DWIDTH 6 0
BBX 4 4 1 0
BITMAP
E0
B0
90
E0
ENDCHAR
STARTCHAR 25D5
ENCODING 9685
SWIDTH 864 0
DWIDTH 6 0
BBX 4 4 1 0
BITMAP
E0
B0
F0
E0
ENDCHAR
STARTCHAR 25D6
ENCODING 9686
SWIDTH 576 0
DWIDTH 4 0
BBX 2 4 1 0
BITMAP
C0
C0
C0
C0
ENDCHAR
STARTCHAR 25D7
ENCODING 9687
SWIDTH 576 0
DWIDTH 4 0
BBX 2 4 1 0
BITMAP
80
C0
C0
80
ENDCHAR
STARTCHAR 25D8
ENCODING 9688
SWIDTH 1008 0
DWIDTH 7 0
BBX 7 7 0 -1
BITMAP
FE
FE
EE
C6
EE
FE
FE
ENDCHAR
STARTCHAR 25D9
ENCODING 9689
SWIDTH 1008 0
DWIDTH 7 0
BBX 7 7 0 -1
BITMAP
FE
C6
BA
FE
BA
C6
FE
ENDCHAR
STARTCHAR 25DA
ENCODING 9690
SWIDTH 1008 0
DWIDTH 7 0
BBX 7 4 0 2
BITMAP
FE
C6
BA
FE
ENDCHAR
STARTCHAR 25DB
ENCODING 9691
SWIDTH 1008 0
DWIDTH 7 0
BBX 7 3 0 -1
BITMAP
BA
C6
FE
ENDCHAR
STARTCHAR 25DC
ENCODING 9692
SWIDTH 576 0
DWIDTH 4 0
BBX 2 2 1 2
BITMAP
40
80
ENDCHAR
STARTCHAR 25DD
ENCODING 9693
SWIDTH 576 0
DWIDTH 4 0
BBX 2 2 1 2
BITMAP
80
40
ENDCHAR
STARTCHAR 25DE
ENCODING 9694
SWIDTH 576 0
DWIDTH 4 0
BBX 2 2 1 0
BITMAP
40
80
ENDCHAR
STARTCHAR 25DF
ENCODING 9695
SWIDTH 576 0
DWIDTH 4 0
BBX 2 2 1 0
BITMAP
80
40
ENDCHAR
STARTCHAR 25E0
ENCODING 9696
SWIDTH 1008 0
DWIDTH 7 0
BBX 5 2 1 2
BITMAP
70
88
ENDCHAR
STARTCHAR 25E1
ENCODING 9697
SWIDTH 1008 0
DWIDTH 7 0
BBX 5 2 1 0
BITMAP
88
70
ENDCHAR
STARTCHAR 25E2
ENCODING 9698
SWIDTH 864 0
DWIDTH 6 0
BBX 4 4 1 0
BITMAP
10
30
70
F0
ENDCHAR
STARTCHAR 25E3
ENCODING 9699
SWIDTH 864 0
DWIDTH 6 0
BBX 3 4 1 0
BITMAP
80
80
C0
E0
ENDCHAR
STARTCHAR 25E4
ENCODING 9700
SWIDTH 864 0
DWIDTH 6 0
BBX 3 4 1 0
BITMAP
E0
C0
80
80
ENDCHAR
STARTCHAR 25E5
ENCODING 9701
SWIDTH 864 0
DWIDTH 6 0
BBX 4 4 1 0
BITMAP
F0
70
30
10
ENDCHAR
STARTCHAR 25E6
ENCODING 9702
SWIDTH 576 0
DWIDTH 4 0
BBX 2 2 1 1
BITMAP
C0
C0
ENDCHAR
STARTCHAR 25E7
ENCODING 9703
SWIDTH 864 0
DWIDTH 6 0
BBX 4 4 1 0
BITMAP
F0
D0
D0
F0
ENDCHAR
STARTCHAR 25E8
ENCODING 9704
SWIDTH 864 0
DWIDTH 6 0
BBX 4 4 1 0
BITMAP
F0
B0
B0
F0
ENDCHAR
STARTCHAR 25E9
ENCODING 9705
SWIDTH 864 0
DWIDTH 6 0
BBX 4 4 1 0
BITMAP
F0
F0
90
F0
ENDCHAR
STARTCHAR 25EA
ENCODING 9706
SWIDTH 864 0
DWIDTH 6 0
BBX 4 4 1 0
BITMAP
F0
90
F0
F0
ENDCHAR
STARTCHAR 25EB
ENCODING 9707
SWIDTH 864 0
DWIDTH 6 0
BBX 4 4 1 0
BITMAP
F0
D0
D0
F0
ENDCHAR
STARTCHAR 25EC
ENCODING 9708
SWIDTH 864 0
DWIDTH 6 0
BBX 4 4 1 0
BITMAP
40
A0
60
F0
ENDCHAR
STARTCHAR 25ED
ENCODING 9709
SWIDTH 864 0
DWIDTH 6 0
BBX 4 4 1 0
BITMAP
40
60
60
F0
ENDCHAR
STARTCHAR 25EE
ENCODING 9710
SWIDTH 864 0
DWIDTH 6 0
BBX 4 4 1 0
BITMAP
40
A0
A0
F0
ENDCHAR
STARTCHAR 263A
ENCODING 9786
SWIDTH 864 0
DWIDTH 6 0
BBX 6 5 0 0
BITMAP
78
88
B4
78
78
ENDCHAR
STARTCHAR 263B
ENCODING 9787
SWIDTH 864 0
DWIDTH 6 0
BBX 6 5 0 0
BITMAP
78
68
FC
48
78
ENDCHAR
STARTCHAR 263C
ENCODING 9788
SWIDTH 720 0
DWIDTH 5 0
BBX 5 6 0 0
BITMAP
30
50
88
50
70
20
ENDCHAR
STARTCHAR 2640
ENCODING 9792
SWIDTH 864 0
DWIDTH 6 0
BBX 4 5 1 -1
BITMAP
E0
90
90
E0
F0
ENDCHAR
STARTCHAR 2642
ENCODING 9794
SWIDTH 864 0
DWIDTH 6 0
BBX 6 5 0 0
BITMAP
0C
7C
88
88
70
ENDCHAR
STARTCHAR 2660
ENCODING 9824
SWIDTH 864 0
DWIDTH 6 0
BBX 4 5 1 0
BITMAP
40
E0
F0
F0
40
ENDCHAR
STARTCHAR 2663
ENCODING 9827
SWIDTH 864 0
DWIDTH 6 0
BBX 4 5 1 0
BITMAP
60
60
F0
B0
40
ENDCHAR
STARTCHAR 2665
ENCODING 9829
SWIDTH 864 0
DWIDTH 6 0
BBX 5 5 0 0
BITMAP
58
F8
78
78
30
ENDCHAR
STARTCHAR 2666
ENCODING 9830
SWIDTH 864 0
DWIDTH 6 0
BBX 5 5 0 0
BITMAP
20
30
F8
30
20
ENDCHAR
STARTCHAR 266A
ENCODING 9834
SWIDTH 576 0
DWIDTH 4 0
BBX 4 4 0 1
BITMAP
60
50
40
C0
ENDCHAR
STARTCHAR 266B
ENCODING 9835
SWIDTH 576 0
DWIDTH 4 0
BBX 4 6 0 -1
BITMAP
10
70
50
50
30
C0
ENDCHAR
STARTCHAR 266D
ENCODING 9837
SWIDTH 576 0
DWIDTH 4 0
BBX 2 5 1 0
BITMAP
80
80
C0
C0
C0
ENDCHAR
STARTCHAR 266E
ENCODING 9838
SWIDTH 576 0
DWIDTH 4 0
BBX 2 5 1 -1
BITMAP
80
C0
C0
C0
C0
ENDCHAR
STARTCHAR 266F
ENCODING 9839
SWIDTH 576 0
DWIDTH 4 0
BBX 3 5 1 0
BITMAP
E0
C0
E0
80
80
ENDCHAR
STARTCHAR FB01
ENCODING 64257
SWIDTH 720 0
DWIDTH 5 0
BBX 4 5 0 0
BITMAP
70
F0
90
90
90
ENDCHAR
STARTCHAR FB02
ENCODING 64258
SWIDTH 720 0
DWIDTH 5 0
BBX 4 5 0 0
BITMAP
70
D0
50
50
50
ENDCHAR
STARTCHAR FB1E
ENCODING 64286
SWIDTH 0 0
DWIDTH 0 0
BBX 3 2 1 5
BITMAP
A0
40
ENDCHAR
STARTCHAR FEFF
ENCODING 65279
SWIDTH 0 0
DWIDTH 0 0
BBX 0 0 0 0
BITMAP
ENDCHAR
ENDFONT
